<?xml version="1.0" encoding="utf-8"?>
<!-- Generator: Adobe Illustrator 18.1.1, SVG Export Plug-In . SVG Version: 6.00 Build 0)  -->
<svg version="1.1" id="Слой_1" xmlns="http://www.w3.org/2000/svg" xmlns:xlink="http://www.w3.org/1999/xlink" x="0px" y="0px"
	 viewBox="215 -216 496 496" enable-background="new 215 -216 496 496" xml:space="preserve">
<g>
	<linearGradient id="SVGID_1_" gradientUnits="userSpaceOnUse" x1="218" y1="32" x2="711.0162" y2="32">
		<stop  offset="0" style="stop-color:#821DC9"/>
		<stop  offset="1" style="stop-color:#4600CD"/>
	</linearGradient>
	<path fill="url(#SVGID_1_)" d="M711,40v-64.2c0-17.8-11.5-33.2-28.5-38.3L631-78v-12.2c14.5-10.1,24-26.9,24-45.9v-24
		c0-30.9-25.1-56-56-56s-56,25.1-56,56v24c0,19,9.5,35.8,24,45.9V-78l-45.4,13.6c-17-15.2-38.7-23.7-61.8-23.7
		c-22.9,0-43.9,8.4-60.2,22.3L359-78v-12.2c14.5-10.1,24-26.9,24-45.9v-24c0-30.9-25.1-56-56-56s-56,25.1-56,56v24
		c0,19,9.5,35.8,24,45.9V-78l-51.5,15.4C226.5-57.4,215-42,215-24.2V40h16v-64.2c0-10.7,6.9-19.9,17.1-23l51.5-15.5
		c4.7,6,13.7,14.6,27.4,14.6s22.7-8.6,27.4-14.6l32.8,9.8c-10.4,13.1-17.4,29-19.5,46.5C357.5-17.2,343.1-24,327-24
		c-30.9,0-56,25.1-56,56v24c0,19,9.5,35.8,24,45.9V114l-51.5,15.4c-17,5.1-28.5,20.5-28.5,38.3V240h96c4.4,0,8,3.6,8,8v32h288v-32
		c0-4.4,3.6-8,8-8h96v-72.2c0-17.8-11.5-33.2-28.5-38.3L631,114v-12.2C645.5,91.8,655,75,655,56V32c0-30.9-25.1-56-56-56
		c-15.7,0-29.8,6.5-40,16.9v-7.6c0-15.8-8.6-30-22-37.5l34.6-10.4c4.7,6,13.7,14.6,27.4,14.6s22.7-8.6,27.4-14.6l51.5,15.5
		c10.2,3.1,17.1,12.3,17.1,23V40H711z M327-200c22.1,0,40,17.9,40,40h-36.7c-5.1,0-10.1-2.1-13.7-5.7l-5.7-5.7l-5.7,5.7
		c-3.6,3.6-8.6,5.7-13.7,5.7H287C287-182.1,304.9-200,327-200z M287-136v-8h4.7c7,0,13.6-2,19.3-5.7c5.7,3.7,12.3,5.7,19.3,5.7H367
		v8c0,22.1-17.9,40-40,40S287-113.9,287-136z M327-64c-8.5,0-14-7.1-16-10.2v-8.2c5.1,1.5,10.4,2.4,16,2.4s10.9-0.8,16-2.4v8.2
		C341-71.1,335.5-64,327-64z M546.9,76.4C551,86.8,558,95.6,567,101.9V114l-51.5,15.4c-1.7,0.5-3.3,1.2-5,1.9l-7.6-1.7v-15.8
		c8.6-6.9,15.3-15.9,19.4-26.2C531.6,86.8,540.3,82.9,546.9,76.4z M463,128c8.5,0,16.6-1.7,24-4.7v8.7l-24,18l-24-18v-8.7
		C446.4,126.3,454.5,128,463,128z M429.2,144.6l19.5,14.6l-20.1,12l-5.1-25.4L429.2,144.6z M454.2,208h17.7l6.2,56h-30.1L454.2,208z
		 M473.2,192h-20.5l-4.6-13.8l14.8-8.9l14.8,8.9L473.2,192z M477.3,159.3l19.5-14.6l5.6,1.3l-5.1,25.4L477.3,159.3z M536.8,64.1
		c-2.8,3-6.3,5.2-10.1,6.5c0.2-2.2,0.3-4.4,0.3-6.6V25.7c8.6,3.3,15,10.8,15.9,19.9C543.5,52.5,541.4,59.1,536.8,64.1z M511,64
		c0,26.5-21.5,48-48,48s-48-21.5-48-48V24h27.2c17.4,0,34.4-4.4,49.6-12.7l6.3,12.7H511V64z M399.3,70.6c-3.8-1.3-7.3-3.4-10.1-6.5
		c-4.6-5.1-6.8-11.6-6.1-18.5c0.9-9.1,7.3-16.6,15.9-19.9V64C399,66.2,399.1,68.4,399.3,70.6z M403.6,87.6
		c4.1,10.3,10.9,19.4,19.4,26.2v15.8l-7.6,1.7c-1.6-0.7-3.3-1.4-4.9-1.9L359,114v-12.2c9-6.3,16-15.1,20.1-25.5
		C385.7,82.9,394.4,86.8,403.6,87.6z M327-8c22.1,0,40,17.9,40,40h-4.7c-5.1,0-10.1-2.1-13.7-5.7l-5.7-5.7l-5.7,5.7
		c-3.6,3.6-8.6,5.7-13.7,5.7H287C287,9.9,304.9-8,327-8z M287,56v-8h36.7c7,0,13.6-2,19.3-5.7c5.7,3.7,12.3,5.7,19.3,5.7h4.7v8
		c0,22.1-17.9,40-40,40S287,78.1,287,56z M327,112c5.6,0,10.9-0.8,16-2.4v8.2c-2,3.1-7.5,10.2-16,10.2s-14-7.1-16-10.2v-8.2
		C316.1,111.2,321.4,112,327,112z M311,224h-32v-56h-16v56h-32v-56.2c0-10.7,6.9-19.9,17.1-23l51.5-15.5c4.7,6,13.7,14.6,27.4,14.6
		s22.7-8.6,27.4-14.6l30.3,9.1l-22.3,5.1c-25.6,5.9-43.4,28.3-43.4,54.6v9.8h16v-9.8c0-18.7,12.8-34.8,31-39l41.9-9.7l9.4,47.2
		l16.7-10l4.7,14.2l-7,63.1H391v-64h-16v64h-40v-16C335,234.8,324.2,224,311,224z M677.9,144.8c10.2,3.1,17.1,12.3,17.1,23V224h-32
		v-56h-16v56h-32c-13.2,0-24,10.8-24,24v16h-40v-64h-16v64h-40.8l-7-63.1l4.7-14.2l16.7,10l9.4-47.2l41.9,9.7
		c18.3,4.2,31,20.2,31,39v9.8h16v-9.8c0-26.2-17.8-48.7-43.4-54.6l-22.3-5.1l30.3-9.1c4.7,6,13.7,14.6,27.4,14.6s22.7-8.6,27.4-14.6
		L677.9,144.8z M615,117.8c-2,3.1-7.5,10.2-16,10.2c-8.5,0-14-7.2-16-10.2v-8.2c5.1,1.5,10.4,2.4,16,2.4s10.9-0.8,16-2.4V117.8z
		 M599,96c-22.1,0-40-17.9-40-40v-8h4.7c7,0,13.6-2,19.3-5.7c5.7,3.7,12.3,5.7,19.3,5.7H639v8C639,78.1,621.1,96,599,96z M599-8
		c22.1,0,40,17.9,40,40h-36.7c-5.1,0-10.1-2.1-13.7-5.7l-5.7-5.7l-5.7,5.7c-3.6,3.6-8.6,5.7-13.7,5.7H559C559,9.9,576.9-8,599-8z
		 M543,16.7c-7.1-5.4-15.9-8.7-25.4-8.7h-9.7l-9.8-19.7l-7.5,5C476.2,2.9,459.4,8,442.2,8h-33.8c-9.5,0-18.3,3.3-25.4,8.7V4.8
		c0-42.4,34.5-76.8,76.8-76.8c20.5,0,39.8,8,54.3,22.5l8.5,8.5l1.8,0.6c11.1,3.7,18.5,14,18.5,25.7V16.7z M599-200
		c22.1,0,40,17.9,40,40h-4.7c-5.1,0-10.1-2.1-13.7-5.7l-5.7-5.7l-5.7,5.7c-3.6,3.6-8.6,5.7-13.7,5.7H559
		C559-182.1,576.9-200,599-200z M559-136v-8h36.7c7,0,13.6-2,19.3-5.7c5.7,3.7,12.3,5.7,19.3,5.7h4.7v8c0,22.1-17.9,40-40,40
		S559-113.9,559-136z M599-64c-8.5,0-14-7.2-16-10.2v-8.2c5.1,1.5,10.4,2.4,16,2.4s10.9-0.8,16-2.4v8.2C613-71.1,607.5-64,599-64z"
		/>
	<linearGradient id="SVGID_2_" gradientUnits="userSpaceOnUse" x1="218" y1="-208" x2="711.0162" y2="-208">
		<stop  offset="0" style="stop-color:#821DC9"/>
		<stop  offset="1" style="stop-color:#4600CD"/>
	</linearGradient>
	<path fill="url(#SVGID_2_)" d="M399-216h16v16h-16V-216z"/>
	<linearGradient id="SVGID_3_" gradientUnits="userSpaceOnUse" x1="218" y1="-140" x2="711.0162" y2="-140">
		<stop  offset="0" style="stop-color:#821DC9"/>
		<stop  offset="1" style="stop-color:#4600CD"/>
	</linearGradient>
	<path fill="url(#SVGID_3_)" d="M399-184h16v88h-16V-184z"/>
	<linearGradient id="SVGID_4_" gradientUnits="userSpaceOnUse" x1="218" y1="-208" x2="711.0162" y2="-208">
		<stop  offset="0" style="stop-color:#821DC9"/>
		<stop  offset="1" style="stop-color:#4600CD"/>
	</linearGradient>
	<path fill="url(#SVGID_4_)" d="M511-216h16v16h-16V-216z"/>
	<linearGradient id="SVGID_5_" gradientUnits="userSpaceOnUse" x1="218" y1="-140" x2="711.0162" y2="-140">
		<stop  offset="0" style="stop-color:#821DC9"/>
		<stop  offset="1" style="stop-color:#4600CD"/>
	</linearGradient>
	<path fill="url(#SVGID_5_)" d="M511-184h16v88h-16V-184z"/>
	<linearGradient id="SVGID_6_" gradientUnits="userSpaceOnUse" x1="218" y1="-156" x2="711.0162" y2="-156">
		<stop  offset="0" style="stop-color:#821DC9"/>
		<stop  offset="1" style="stop-color:#4600CD"/>
	</linearGradient>
	<path fill="url(#SVGID_6_)" d="M431-184h16v56h-16V-184z"/>
	<linearGradient id="SVGID_7_" gradientUnits="userSpaceOnUse" x1="218" y1="-104" x2="711.0162" y2="-104">
		<stop  offset="0" style="stop-color:#821DC9"/>
		<stop  offset="1" style="stop-color:#4600CD"/>
	</linearGradient>
	<path fill="url(#SVGID_7_)" d="M431-112h16v16h-16V-112z"/>
	<linearGradient id="SVGID_8_" gradientUnits="userSpaceOnUse" x1="218" y1="-156" x2="711.0162" y2="-156">
		<stop  offset="0" style="stop-color:#821DC9"/>
		<stop  offset="1" style="stop-color:#4600CD"/>
	</linearGradient>
	<path fill="url(#SVGID_8_)" d="M479-184h16v56h-16V-184z"/>
	<linearGradient id="SVGID_9_" gradientUnits="userSpaceOnUse" x1="218" y1="-104" x2="711.0162" y2="-104">
		<stop  offset="0" style="stop-color:#821DC9"/>
		<stop  offset="1" style="stop-color:#4600CD"/>
	</linearGradient>
	<path fill="url(#SVGID_9_)" d="M479-112h16v16h-16V-112z"/>
</g>
</svg>
