<?xml version="1.0" encoding="utf-8"?>
<!-- Generator: Adobe Illustrator 18.1.1, SVG Export Plug-In . SVG Version: 6.00 Build 0)  -->
<svg version="1.1" id="Слой_1" xmlns="http://www.w3.org/2000/svg" xmlns:xlink="http://www.w3.org/1999/xlink" x="0px" y="0px"
	 viewBox="0 0 65 65" enable-background="new 0 0 65 65" xml:space="preserve">
<g id="Page-1">
	<g id="_x30_01---Degree">
		<linearGradient id="Shape_2_" gradientUnits="userSpaceOnUse" x1="8.876207e-003" y1="15.6937" x2="64.9373" y2="15.6937">
			<stop  offset="0" style="stop-color:#821DC9"/>
			<stop  offset="1" style="stop-color:#4600CD"/>
		</linearGradient>
		<path id="Shape" fill="url(#Shape_2_)" d="M63.5,11L33.2,0.1c-0.5-0.2-1-0.2-1.5,0L1.4,11C0.6,11.3,0,12.1,0,13s0.6,1.7,1.4,2
			l14.8,5.3v6.7c0,4.2,14.6,4.3,16.2,4.3c1.7,0,16.2-0.1,16.2-4.3v-6.7l3.2-1.2v2.5c0,1.2,1,2.2,2.2,2.2h2.2c1.2,0,2.2-1,2.2-2.2
			v-3.2c0-0.5-0.1-1-0.4-1.4l5.4-1.9c0.9-0.3,1.4-1.1,1.4-2C64.9,12.1,64.4,11.3,63.5,11L63.5,11z M46.5,24.7
			c-4.1-1.9-12.8-1.9-14.1-1.9c-1.3,0-9.9,0.1-14.1,1.9v-9.4C19,14.4,24.2,13,32.5,13s13.4,1.4,14.1,2.3V24.7z M32.5,29.2
			c-8,0-13-1.3-14-2.2c0.9-0.8,6-2.2,14-2.2s13,1.3,14,2.2C45.5,27.9,40.5,29.2,32.5,29.2z M52.5,16.7L48.7,18v-2.9
			c0-4.2-14.6-4.3-16.2-4.3c-1.7,0-16.2,0.1-16.2,4.3V18L2.2,13L32.5,2.2l21.6,7.7v5.5C53.4,15.6,52.9,16.1,52.5,16.7z M56.3,21.6
			h-2.2v-3.2c0-0.6,0.5-1.1,1.1-1.1s1.1,0.5,1.1,1.1V21.6z M56.3,15.3v-4.6l6.5,2.3L56.3,15.3z"/>
		<linearGradient id="Shape_3_" gradientUnits="userSpaceOnUse" x1="-8.567440e-010" y1="49.2465" x2="64.9418" y2="49.2465">
			<stop  offset="0" style="stop-color:#821DC9"/>
			<stop  offset="1" style="stop-color:#4600CD"/>
		</linearGradient>
		<path id="Shape_1_" fill="url(#Shape_3_)" d="M61.7,33.6c-0.1,0-0.1,0-0.2,0c-9.6,1.5-19.3,2.2-29,2.1c-9.7,0.1-19.4-0.7-29-2.1
			c-0.1,0-0.1,0-0.2,0C2.5,33.6,0,34.4,0,45.5s2.5,11.9,3.2,11.9c0.1,0,0.1,0,0.2,0c7.4-1.2,14.8-1.8,22.3-2l-2.1,5.1
			c-0.3,0.8-0.1,1.7,0.5,2.3c0.6,0.6,1.6,0.8,2.4,0.4l0.8-0.4l0.4,0.8c0.3,0.8,1.1,1.3,2,1.3h0c0.9,0,1.7-0.5,2-1.4l1.9-4.5l1.9,4.5
			c0.3,0.8,1.1,1.4,2,1.4h0c0.9,0,1.6-0.5,2-1.3l0.4-0.8l0.8,0.3c0.8,0.4,1.7,0.2,2.4-0.4c0.6-0.6,0.8-1.5,0.5-2.4l-2.1-5
			c6.7,0.2,13.4,0.9,20.1,1.9c0.1,0,0.1,0,0.2,0c0.8,0,3.2-0.9,3.2-11.9S62.5,33.6,61.7,33.6L61.7,33.6z M35.9,37.8
			c0.4,1.7,0.7,3.4,0.8,5.1c-2.5-1.1-5.3-0.9-7.5,0.7c-0.1-1.9-0.3-3.9-0.7-5.8c1.3,0,2.7,0,4,0C33.7,37.9,34.8,37.9,35.9,37.8z
			 M33.6,55.2c-3,0-5.4-2.4-5.4-5.4s2.4-5.4,5.4-5.4s5.4,2.4,5.4,5.4C39,52.8,36.5,55.2,33.6,55.2z M3.2,36.3c0.8,3,1.2,6.1,1.1,9.2
			c0.1,3.1-0.3,6.2-1.1,9.2c-0.8-3-1.2-6.1-1.1-9.2C2.1,42.4,2.4,39.3,3.2,36.3z M5.4,54.8c0.6-1.7,1.1-4.6,1.1-9.4S6,37.8,5.4,36.1
			c6.9,0.9,13.8,1.5,20.7,1.7c0.6,2.5,0.9,5.1,0.9,7.7c0,0.2,0,0.3,0,0.5c-1.3,2.2-1.4,4.8-0.3,7.1l0,0.1
			C19.6,53.3,12.5,53.9,5.4,54.8L5.4,54.8z M29.7,62.8L28.9,61c-0.2-0.5-0.9-0.8-1.4-0.6l-1.8,0.8l2.5-6.1c1,1.1,2.4,1.8,3.8,2.1
			L29.7,62.8z M39.7,60.4c-0.5-0.2-1.2,0-1.4,0.6l-0.8,1.8l-2.3-5.6c1.5-0.3,2.8-1,3.8-2.1l2.5,6.1L39.7,60.4z M61.5,55.1
			c-7-1.1-14-1.7-21-1.9L40.4,53c1.4-2.9,0.8-6.3-1.5-8.5c0-2.2-0.3-4.5-0.8-6.7c7.8-0.2,15.6-0.9,23.3-2c0.5,0.9,1.3,4.2,1.3,9.7
			S62,54.3,61.5,55.1L61.5,55.1z"/>
	</g>
</g>
</svg>
