<svg xmlns="http://www.w3.org/2000/svg" viewBox="0 0 512 512">
  <linearGradient id="gradient" gradientUnits="userSpaceOnUse">
    <stop offset="0%" stop-color="#821DC9"/>
    <stop offset="100%" stop-color="#4600CD"/>
  </linearGradient>
  <g fill="url(#gradient)">
    <g>
      <path d="M502,107.86H301.603V26.901C301.603,12.068,289.535,0,274.702,0H26.9C12.067,0,0,12.068,0,26.901V485.1
			C0,499.933,12.067,512,26.9,512h247.802c14.833,0,26.901-12.067,26.901-26.9V372.363H502c5.522,0,10-4.478,10-10V117.86
			C512,112.338,507.522,107.86,502,107.86z M281.603,485.1c0,3.805-3.096,6.9-6.901,6.9H26.9c-3.805,0-6.9-3.096-6.9-6.9v-54.475
			h261.603V485.1z M281.603,410.625H20V87.373h261.603V410.625z M281.603,67.373H20V26.901C20,23.096,23.096,20,26.9,20h247.802
			c3.806,0,6.901,3.096,6.901,6.901V67.373z M492,352.363H301.603V215.622H492V352.363z M492,195.622H301.603v-28.019H492V195.622z
			 M492,147.603H301.603V127.86H492V147.603z"/>
    </g>
  </g>
  <g fill="url(#gradient)">
    <g>
      <path d="M426.564,233.98c-9.517,0-18.439,2.594-26.097,7.113c-7.884-4.671-16.804-7.113-26.147-7.113
			c-28.403,0-51.512,23.108-51.512,51.512c0,28.403,23.108,51.512,51.512,51.512c9.343,0,18.263-2.442,26.147-7.113
			c7.658,4.518,16.58,7.113,26.097,7.113c28.403,0,51.511-23.108,51.511-51.512C478.074,257.088,454.967,233.98,426.564,233.98z
			 M384.58,315.307c-3.26,1.12-6.71,1.696-10.26,1.696c-17.377,0-31.512-14.136-31.512-31.512c0-17.376,14.136-31.512,31.512-31.512
			c3.551,0,7.001,0.576,10.26,1.696c-5.997,8.42-9.528,18.713-9.528,29.816C375.052,296.593,378.583,306.886,384.58,315.307z
			 M426.564,317.003c-17.376,0-31.512-14.136-31.512-31.512c0-17.376,14.136-31.512,31.512-31.512
			c17.375,0,31.511,14.136,31.511,31.512C458.074,302.867,443.939,317.003,426.564,317.003z"/>
    </g>
  </g>
  <g fill="url(#gradient)">
    <g>
      <path d="M170.802,451.313h-40c-5.523,0-10,4.478-10,10c0,5.522,4.477,10,10,10h40c5.522,0,10-4.478,10-10
			C180.802,455.791,176.324,451.313,170.802,451.313z"/>
    </g>
  </g>
  <g fill="url(#gradient)">
    <g>
      <path d="M229.649,41.73c-0.13-0.64-0.33-1.269-0.58-1.87c-0.25-0.599-0.55-1.179-0.92-1.729c-0.359-0.541-0.779-1.05-1.239-1.521
			c-0.46-0.46-0.971-0.869-1.521-1.239c-0.54-0.36-1.12-0.67-1.72-0.92c-0.61-0.25-1.24-0.44-1.88-0.57c-1.29-0.26-2.61-0.26-3.9,0
			c-0.64,0.13-1.269,0.32-1.87,0.57c-0.61,0.25-1.19,0.56-1.73,0.92c-0.549,0.37-1.06,0.779-1.52,1.239
			c-0.46,0.471-0.88,0.981-1.239,1.521c-0.36,0.549-0.671,1.129-0.921,1.729c-0.25,0.6-0.449,1.23-0.569,1.87
			c-0.13,0.65-0.2,1.301-0.2,1.96c0,2.63,1.071,5.21,2.93,7.07c0.46,0.46,0.97,0.88,1.52,1.24c0.541,0.36,1.121,0.67,1.73,0.92
			c0.6,0.25,1.23,0.439,1.87,0.57c0.641,0.13,1.3,0.199,1.95,0.199c0.65,0,1.309-0.069,1.948-0.199c0.64-0.13,1.27-0.32,1.88-0.57
			c0.6-0.25,1.18-0.561,1.72-0.92c0.55-0.36,1.061-0.78,1.521-1.24c1.86-1.86,2.93-4.44,2.93-7.07
			C229.839,43.031,229.769,42.38,229.649,41.73z"/>
    </g>
  </g>
  <g fill="url(#gradient)">
    <g>
      <path d="M179.957,33.687H81.763c-5.523,0-10,4.478-10,10c0,5.522,4.477,10,10,10h98.194c5.523,0,10-4.478,10-10
			C189.957,38.165,185.48,33.687,179.957,33.687z"/>
    </g>
  </g>
  <g fill="url(#gradient)">
    <g>
      <path d="M236.528,173.814c-2.868-1.838-6.473-2.093-9.57-0.67c-5.455,2.503-11.291,3.773-17.345,3.773
			c-16.008,0-30.787-9.363-37.648-23.853c-1.654-3.493-5.173-5.72-9.038-5.72h-24.254c-3.865,0-7.384,2.228-9.038,5.72
			c-6.861,14.491-21.639,23.853-37.648,23.853c-6.055,0-11.89-1.269-17.345-3.773c-3.095-1.422-6.702-1.167-9.57,0.67
			c-2.867,1.839-4.601,5.012-4.601,8.418v98.919c0,20.333,15.018,40.609,44.636,60.265c20.66,13.712,41.029,22.162,41.886,22.515
			c1.22,0.503,2.514,0.754,3.809,0.754s2.589-0.251,3.806-0.754c0.858-0.353,21.226-8.803,41.886-22.515
			c29.618-19.657,44.636-39.932,44.636-60.265v-98.919C241.13,178.826,239.395,175.653,236.528,173.814z M221.132,281.152
			c0,25.842-48.544,52.902-70.33,62.645c-21.79-9.745-70.33-36.803-70.33-62.645v-85.304c3.765,0.712,7.612,1.07,11.516,1.07
			c21.519,0,41.531-11.42,52.632-29.572h12.363c11.101,18.152,31.113,29.572,52.632,29.572c3.905,0,7.75-0.358,11.517-1.07V281.152z
			"/>
    </g>
  </g>
  <g fill="url(#gradient)">
    <g>
      <path d="M190.878,230.334c-3.907-3.904-10.237-3.904-14.143,0l-34.046,34.046l-17.821-17.821c-3.907-3.904-10.237-3.904-14.143,0
			c-3.905,3.906-3.905,10.238,0,14.143l24.893,24.893c1.953,1.952,4.511,2.929,7.071,2.929s5.119-0.976,7.072-2.93l41.117-41.117
			C194.783,240.571,194.783,234.239,190.878,230.334z"/>
    </g>
  </g>
</svg>
