<svg xmlns="http://www.w3.org/2000/svg" viewBox="0 0 512.002 512.002">
  <linearGradient id="gradient" gradientUnits="userSpaceOnUse">
    <stop offset="0%" stop-color="#821DC9"/>
    <stop offset="100%" stop-color="#4600CD"/>
  </linearGradient>
  <g fill="url(#gradient)">
    <g>
      <g>
        <path d="M200.021,396.576c-0.13-0.64-0.32-1.27-0.57-1.87c-0.25-0.611-0.56-1.19-0.92-1.73c-0.36-0.55-0.78-1.06-1.24-1.52
			c-0.46-0.46-0.98-0.88-1.52-1.24c-0.55-0.359-1.13-0.67-1.73-0.92s-1.23-0.439-1.87-0.569c-1.29-0.261-2.62-0.261-3.911,0
			c-0.64,0.13-1.27,0.319-1.87,0.569s-1.18,0.561-1.73,0.92c-0.54,0.36-1.06,0.78-1.52,1.24c-0.46,0.459-0.88,0.969-1.24,1.52
			c-0.36,0.54-0.67,1.12-0.92,1.73c-0.25,0.599-0.44,1.23-0.57,1.87s-0.2,1.3-0.2,1.95c0,0.649,0.07,1.31,0.2,1.96
			c0.13,0.63,0.32,1.26,0.57,1.87c0.25,0.6,0.56,1.18,0.92,1.72c0.36,0.55,0.78,1.06,1.24,1.52c0.46,0.471,0.98,0.881,1.52,1.25
			c0.55,0.361,1.13,0.671,1.73,0.921s1.23,0.439,1.87,0.569c0.65,0.13,1.3,0.19,1.96,0.19c2.63,0,5.211-1.06,7.061-2.931
			c0.46-0.46,0.88-0.97,1.25-1.52c0.36-0.54,0.67-1.12,0.92-1.72c0.25-0.61,0.44-1.24,0.57-1.87c0.13-0.65,0.19-1.311,0.19-1.96
			C200.211,397.876,200.151,397.216,200.021,396.576z"/>
      </g>
    </g>
    <g>
      <g>
        <path d="M331.594,111.515c-0.13-0.641-0.32-1.261-0.57-1.87c-0.25-0.601-0.56-1.18-0.92-1.72c-0.36-0.551-0.78-1.061-1.24-1.521
			c-2.33-2.33-5.781-3.391-9.032-2.74c-0.64,0.13-1.269,0.32-1.869,0.57s-1.18,0.56-1.73,0.92c-0.541,0.37-1.06,0.78-1.52,1.25
			c-0.46,0.46-0.881,0.97-1.24,1.521c-0.36,0.54-0.67,1.119-0.92,1.72c-0.25,0.609-0.44,1.229-0.57,1.87
			c-0.13,0.649-0.2,1.31-0.2,1.96c0,0.649,0.07,1.309,0.2,1.95c0.13,0.64,0.32,1.269,0.57,1.869c0.25,0.6,0.56,1.19,0.92,1.73
			c0.359,0.55,0.78,1.06,1.24,1.52s0.98,0.881,1.52,1.24c0.549,0.36,1.129,0.67,1.73,0.92c0.599,0.25,1.229,0.44,1.869,0.57
			c0.65,0.13,1.301,0.2,1.961,0.2c0.65,0,1.3-0.07,1.949-0.2c0.64-0.13,1.27-0.32,1.87-0.57c0.6-0.25,1.18-0.56,1.73-0.92
			c0.54-0.359,1.06-0.78,1.52-1.24s0.88-0.97,1.24-1.52c0.36-0.54,0.67-1.12,0.92-1.73c0.25-0.599,0.44-1.229,0.57-1.869
			c0.129-0.64,0.189-1.301,0.189-1.95C331.783,112.825,331.724,112.165,331.594,111.515z"/>
      </g>
    </g>
    <g>
      <g>
        <path d="M475.071,399.452c-0.039-0.1-0.08-0.199-0.122-0.298c-8.904-20.84-29.768-28.546-54.449-20.118l-66.249,18.319
			c-3.978-11.624-13.621-21.492-27.196-26.529c-0.088-0.033-0.176-0.064-0.265-0.095l-73.166-24.832
			c-6.24-8.019-25.458-28.123-61.24-28.123c-25.076,0-47.257,17.125-59.999,35.844H44.037c-5.524,0-10.002,4.479-10.002,10.002
			v120.653c0,5.523,4.478,10.002,10.002,10.002h56.899c5.524,0,10.002-4.479,10.002-10.002v-7.829h26.252
			c5.524,0,10.002-4.479,10.002-10.002v-2.281c15.101,1.371,20.237,4.332,34.307,12.446c10.995,6.34,27.609,15.921,57.532,29.373
			c0.145,0.065,0.292,0.127,0.439,0.186c5.768,2.269,17.045,5.834,30.95,5.834c9.677-0.001,20.625-1.727,31.869-6.821
			l147.345-52.755c0.273-0.099,0.543-0.208,0.808-0.33C464.662,445.553,485.85,427.105,475.071,399.452z M90.934,474.272
			L90.934,474.272H54.039V373.624h36.896V474.272z M127.188,456.441h-16.25v-82.818h16.25V456.441z M442.447,433.749
			c0,0-148.014,53.026-148.132,53.08c-20.355,9.355-39.711,3.76-47.309,0.806c-28.858-12.984-44.262-21.867-55.516-28.357
			c-15.624-9.01-23.199-13.378-44.3-15.165v-76.557c9.025-14.732,26.441-29.776,45.195-29.776c32.266,0,45.945,20.962,46.48,21.804
			c1.221,1.984,3.098,3.482,5.305,4.231l76.051,25.812c11.922,4.479,18.229,14.664,15.344,24.809
			c-1.33,4.68-4.403,8.561-8.653,10.929c-4.209,2.347-9.075,2.932-13.718,1.645l-85.729-27.168
			c-5.267-1.667-10.888,1.248-12.556,6.514c-1.668,5.266,1.247,10.887,6.513,12.556l85.888,27.218
			c0.095,0.029,0.189,0.059,0.285,0.085c3.469,0.986,6.999,1.475,10.51,1.475c6.425,0,12.778-1.636,18.545-4.851
			c8.917-4.969,15.365-13.112,18.156-22.931c0.199-0.699,0.376-1.398,0.534-2.096l71.628-19.844
			c10.201-3.487,23.589-4.759,29.525,8.901C462.617,422.888,446.645,431.743,442.447,433.749z"/>
      </g>
    </g>
    <g>
      <g>
        <path d="M467.963,17.724h-56.899c-5.524,0-10.002,4.478-10.002,10.002v7.829h-26.251c-5.523,0-10.002,4.479-10.002,10.002v2.282
			c-15.101-1.371-20.238-4.333-34.308-12.446c-10.994-6.34-27.609-15.921-57.532-29.373c-0.145-0.065-0.291-0.127-0.44-0.186
			c-9.781-3.85-35.419-11.424-62.816,0.986L62.368,59.577c-0.274,0.099-0.543,0.209-0.808,0.33
			c-14.22,6.541-35.408,24.989-24.629,52.641c0.039,0.1,0.079,0.199,0.121,0.298c8.905,20.838,29.768,28.547,54.449,20.118
			l66.249-18.319c3.978,11.624,13.621,21.493,27.195,26.529c0.088,0.033,0.176,0.064,0.265,0.095l73.166,24.832
			c6.24,8.019,25.457,28.123,61.239,28.123c25.075,0,47.255-17.125,59.999-35.844h88.35c5.523,0,10.002-4.479,10.002-10.002V27.726
			C477.965,22.202,473.486,17.724,467.963,17.724z M364.812,144.444c-9.025,14.733-26.441,29.776-45.196,29.776
			c-32.266,0-45.944-20.962-46.48-21.804c-1.221-1.984-3.098-3.482-5.305-4.231l-76.051-25.812
			c-11.922-4.479-18.23-14.664-15.345-24.809c1.331-4.68,4.404-8.562,8.654-10.929c4.211-2.348,9.079-2.931,13.718-1.645
			l85.729,27.168c5.264,1.668,10.887-1.248,12.556-6.514c1.668-5.266-1.247-10.887-6.514-12.556l-85.884-27.216
			c-0.095-0.029-0.19-0.059-0.286-0.085c-9.819-2.792-20.138-1.595-29.055,3.376c-8.918,4.969-15.366,13.112-18.157,22.931
			c-0.199,0.699-0.376,1.398-0.534,2.097l-71.627,19.844c-10.202,3.484-23.589,4.758-29.524-8.901
			c-6.125-16.022,9.848-24.876,14.046-26.883c0,0,148.004-53.023,148.131-53.08c20.356-9.356,39.713-3.76,47.308-0.806
			c28.858,12.984,44.262,21.867,55.517,28.357c15.623,9.01,23.199,13.378,44.3,15.165V144.444z M401.064,138.377h-16.249V55.559
			h16.249V138.377z M457.963,138.377h-36.896V37.728h36.896V138.377z"/>
      </g>
    </g>
    <g>
      <g>
        <path d="M112.879,137.599c-51.753,0-93.858,42.106-93.858,93.859s42.105,93.858,93.858,93.858s93.859-42.105,93.858-93.858
			C206.737,179.704,164.633,137.599,112.879,137.599z M112.879,305.312c-40.723,0-73.854-33.131-73.854-73.854
			c0-40.724,33.131-73.855,73.854-73.855c40.724,0,73.855,33.131,73.854,73.855C186.734,272.181,153.603,305.312,112.879,305.312z"/>
      </g>
    </g>
    <g>
      <g>
        <path d="M135.587,257.002H111.4l3.628-26.316h13.522c2.748,0,4.178-3.09,4.178-6.293c0-3.09-1.429-6.293-4.178-6.293h-11.764
			l1.099-7.895c0.77-5.835,4.178-10.068,11.984-10.068h5.167c3.519,0,5.498-4.005,5.498-7.78c0-3.775-1.979-7.665-5.498-7.665
			h-4.618c-14.293,0-27.486,10.412-29.574,25.515l-1.1,7.895h-6.926c-2.749,0-4.178,3.204-4.178,6.293
			c0,3.204,1.429,6.293,4.178,6.293h5.167l-3.519,26.316h-5.497c-3.299,0-4.948,3.89-4.948,7.779c0,3.89,1.649,7.78,4.948,7.78
			h46.616c3.299,0,4.948-3.89,4.948-7.78C140.533,260.894,138.884,257.003,135.587,257.002z"/>
      </g>
    </g>
    <g>
      <g>
        <path d="M399.123,186.685c-51.753,0-93.858,42.106-93.858,93.859s42.105,93.858,93.858,93.858
			c51.753,0,93.858-42.105,93.858-93.858S450.876,186.685,399.123,186.685z M399.123,354.398c-40.723,0-73.854-33.131-73.854-73.854
			c0-40.724,33.131-73.855,73.854-73.855s73.854,33.131,73.854,73.855C472.977,321.267,439.846,354.398,399.123,354.398z"/>
      </g>
    </g>
    <g>
      <g>
        <path d="M403.03,271.391v-16.704c7.145,0.572,9.235,4.233,12.863,4.233c4.837,0,6.815-6.294,6.815-9.383
			c0-7.893-12.863-9.725-19.68-9.955v-2.859c0-1.602-2.089-3.089-4.179-3.089c-2.418,0-4.178,1.486-4.178,3.089v3.204
			c-11.653,1.717-21.989,8.695-21.989,23.227c0,14.645,11.875,19.564,21.989,23.568v18.536c-8.135-1.488-11.874-8.237-16.491-8.237
			c-4.178,0-7.477,5.719-7.477,9.611c0,7.321,10.776,14.415,23.968,14.874h0.001v2.86c0,1.602,1.759,3.089,4.178,3.089
			c2.089,0,4.179-1.486,4.179-3.089v-3.319c12.863-2.172,21.658-10.754,21.658-24.942
			C424.688,280.659,413.034,275.281,403.03,271.391z M395.771,268.643c-4.178-1.83-7.036-3.89-7.036-7.208
			c0-2.745,2.089-5.376,7.036-6.407V268.643z M401.927,305.142v-15.331c3.958,1.944,6.707,4.347,6.706,8.122
			C408.634,302.053,405.666,304.228,401.927,305.142z"/>
      </g>
    </g>
  </g>
</svg>
