<svg xmlns="http://www.w3.org/2000/svg" width="65" height="65" viewBox="0 0 65 65"><defs><linearGradient id="q51xa" x1="0" x2="65" y1="33" y2="32" gradientUnits="userSpaceOnUse"><stop offset="0" stop-color="#821dc9"/><stop offset="1" stop-color="#4600cd"/></linearGradient></defs><g><g><path fill="#821dc9" d="M65 14.962v31.04a1.27 1.27 0 0 1-1.27 1.27H38.29v14.312A3.419 3.419 0 0 1 34.873 65H3.415A3.419 3.419 0 0 1 0 61.584V3.414A3.419 3.419 0 0 1 3.415 0h31.46a3.419 3.419 0 0 1 3.414 3.415v10.278H63.73c.702 0 1.27.568 1.27 1.27zM35.75 54.67H2.54v6.915c0 .484.393.877.876.877h31.46a.877.877 0 0 0 .875-.877zm0-43.577H2.54V52.13H35.75zm0-7.677a.877.877 0 0 0-.876-.876H3.415a.877.877 0 0 0-.876.876v5.138H35.75zm26.71 23.958H38.29v17.36h24.17zm0-6.096H38.29v3.557h24.17zm0-5.045H38.29v2.506h24.17zm-1.767 20.012a6.547 6.547 0 0 1-6.54 6.54c-1.208 0-2.34-.33-3.313-.904a6.47 6.47 0 0 1-3.319.903 6.547 6.547 0 0 1-6.54-6.54 6.547 6.547 0 0 1 6.54-6.539c1.186 0 2.319.31 3.32.903a6.499 6.499 0 0 1 3.313-.903 6.547 6.547 0 0 1 6.539 6.54zm-13.079 0c0-1.41.448-2.717 1.21-3.786a4.005 4.005 0 0 0-5.303 3.785 4.005 4.005 0 0 0 5.303 3.786 6.504 6.504 0 0 1-1.21-3.785zm10.54 0c0-2.206-1.795-4.001-4-4.001-2.206 0-4.001 1.795-4.001 4 0 2.206 1.795 4.001 4 4.001 2.206 0 4-1.795 4.001-4zm-35.2 22.32a1.27 1.27 0 0 1-1.27 1.27h-5.078a1.27 1.27 0 1 1 0-2.539h5.078c.7 0 1.27.569 1.27 1.27zm6.225-53.018a1.279 1.279 0 0 1-.565 1.055 1.31 1.31 0 0 1-.457.19 1.232 1.232 0 0 1-.733-.073 1.277 1.277 0 0 1-.412-.274 1.28 1.28 0 0 1-.347-1.147 1.33 1.33 0 0 1 .346-.65 1.307 1.307 0 0 1 .413-.274 1.258 1.258 0 0 1 1.19.117c.07.047.134.099.193.157a1.315 1.315 0 0 1 .348.65c.015.083.024.165.024.25zm-5.063 0a1.27 1.27 0 0 1-1.27 1.27H10.38a1.27 1.27 0 1 1 0-2.54h12.466c.701 0 1.27.569 1.27 1.27zm6.496 17.588v12.558c0 2.582-1.906 5.156-5.667 7.651a34.469 34.469 0 0 1-5.317 2.859 1.261 1.261 0 0 1-.967 0 34.464 34.464 0 0 1-5.317-2.859c-3.76-2.495-5.667-5.07-5.667-7.65V23.133a1.27 1.27 0 0 1 1.799-1.153 5.24 5.24 0 0 0 2.202.479 5.313 5.313 0 0 0 4.78-3.028 1.27 1.27 0 0 1 1.147-.727h3.079c.49 0 .937.283 1.147.727a5.313 5.313 0 0 0 4.78 3.028c.769 0 1.51-.162 2.202-.48a1.27 1.27 0 0 1 1.8 1.154zm-2.539 1.73a7.87 7.87 0 0 1-1.462.135 7.868 7.868 0 0 1-6.682-3.754H18.36a7.868 7.868 0 0 1-6.682 3.754c-.496 0-.984-.045-1.462-.136v10.83c0 3.28 6.162 6.715 8.929 7.953 2.766-1.237 8.928-4.673 8.928-7.953zm-3.84 6.173l-5.22 5.22a1.266 1.266 0 0 1-1.795 0l-3.161-3.16a1.27 1.27 0 1 1 1.795-1.796l2.263 2.262 4.322-4.322a1.27 1.27 0 0 1 1.796 1.796z"/><path fill="url(#q51xa)" d="M65 14.962v31.04a1.27 1.27 0 0 1-1.27 1.27H38.29v14.312A3.419 3.419 0 0 1 34.873 65H3.415A3.419 3.419 0 0 1 0 61.584V3.414A3.419 3.419 0 0 1 3.415 0h31.46a3.419 3.419 0 0 1 3.414 3.415v10.278H63.73c.702 0 1.27.568 1.27 1.27zM35.75 54.67H2.54v6.915c0 .484.393.877.876.877h31.46a.877.877 0 0 0 .875-.877zm0-43.577H2.54V52.13H35.75zm0-7.677a.877.877 0 0 0-.876-.876H3.415a.877.877 0 0 0-.876.876v5.138H35.75zm26.71 23.958H38.29v17.36h24.17zm0-6.096H38.29v3.557h24.17zm0-5.045H38.29v2.506h24.17zm-1.767 20.012a6.547 6.547 0 0 1-6.54 6.54c-1.208 0-2.34-.33-3.313-.904a6.47 6.47 0 0 1-3.319.903 6.547 6.547 0 0 1-6.54-6.54 6.547 6.547 0 0 1 6.54-6.539c1.186 0 2.319.31 3.32.903a6.499 6.499 0 0 1 3.313-.903 6.547 6.547 0 0 1 6.539 6.54zm-13.079 0c0-1.41.448-2.717 1.21-3.786a4.005 4.005 0 0 0-5.303 3.785 4.005 4.005 0 0 0 5.303 3.786 6.504 6.504 0 0 1-1.21-3.785zm10.54 0c0-2.206-1.795-4.001-4-4.001-2.206 0-4.001 1.795-4.001 4 0 2.206 1.795 4.001 4 4.001 2.206 0 4-1.795 4.001-4zm-35.2 22.32a1.27 1.27 0 0 1-1.27 1.27h-5.078a1.27 1.27 0 1 1 0-2.539h5.078c.7 0 1.27.569 1.27 1.27zm6.225-53.018a1.279 1.279 0 0 1-.565 1.055 1.31 1.31 0 0 1-.457.19 1.232 1.232 0 0 1-.733-.073 1.277 1.277 0 0 1-.412-.274 1.28 1.28 0 0 1-.347-1.147 1.33 1.33 0 0 1 .346-.65 1.307 1.307 0 0 1 .413-.274 1.258 1.258 0 0 1 1.19.117c.07.047.134.099.193.157a1.315 1.315 0 0 1 .348.65c.015.083.024.165.024.25zm-5.063 0a1.27 1.27 0 0 1-1.27 1.27H10.38a1.27 1.27 0 1 1 0-2.54h12.466c.701 0 1.27.569 1.27 1.27zm6.496 17.588v12.558c0 2.582-1.906 5.156-5.667 7.651a34.469 34.469 0 0 1-5.317 2.859 1.261 1.261 0 0 1-.967 0 34.464 34.464 0 0 1-5.317-2.859c-3.76-2.495-5.667-5.07-5.667-7.65V23.133a1.27 1.27 0 0 1 1.799-1.153 5.24 5.24 0 0 0 2.202.479 5.313 5.313 0 0 0 4.78-3.028 1.27 1.27 0 0 1 1.147-.727h3.079c.49 0 .937.283 1.147.727a5.313 5.313 0 0 0 4.78 3.028c.769 0 1.51-.162 2.202-.48a1.27 1.27 0 0 1 1.8 1.154zm-2.539 1.73a7.87 7.87 0 0 1-1.462.135 7.868 7.868 0 0 1-6.682-3.754H18.36a7.868 7.868 0 0 1-6.682 3.754c-.496 0-.984-.045-1.462-.136v10.83c0 3.28 6.162 6.715 8.929 7.953 2.766-1.237 8.928-4.673 8.928-7.953zm-3.84 6.173l-5.22 5.22a1.266 1.266 0 0 1-1.795 0l-3.161-3.16a1.27 1.27 0 1 1 1.795-1.796l2.263 2.262 4.322-4.322a1.27 1.27 0 0 1 1.796 1.796z"/></g></g></svg>