<svg xmlns="http://www.w3.org/2000/svg" width="60" height="66" viewBox="0 0 60 66"><defs><linearGradient id="yu9ta" x1="-.01" x2="59.99" y1="32.99" y2="33.71" gradientUnits="userSpaceOnUse"><stop offset="0" stop-color="#821dc9"/><stop offset="1" stop-color="#4600cd"/></linearGradient></defs><g><g><path fill="#821dc9" d="M22.93 51.518a1.284 1.284 0 0 1-.213.708 1.26 1.26 0 0 1-2.222-.22 1.343 1.343 0 0 1-.098-.488 1.272 1.272 0 0 1 .098-.487 1.266 1.266 0 0 1 1.417-.762 1.256 1.256 0 0 1 .805.542 1.24 1.24 0 0 1 .188.459c.017.081.024.165.024.248zm16.657-36.343a1.281 1.281 0 0 1-.37.901 1.248 1.248 0 0 1-.411.276 1.28 1.28 0 0 1-.484.098 1.245 1.245 0 0 1-.485-.098 1.337 1.337 0 0 1-.411-.276 1.222 1.222 0 0 1-.273-.414 1.284 1.284 0 0 1 .273-1.388 1.27 1.27 0 0 1 .648-.35 1.274 1.274 0 0 1 1.417.763 1.312 1.312 0 0 1 .096.488zM54.61 58.348c-.034.016-.068.03-.102.042l-18.655 6.726c-1.423.65-2.81.87-4.035.87a10.863 10.863 0 0 1-3.974-.767c-3.788-1.716-5.892-2.937-7.283-3.745-1.782-1.035-2.432-1.412-4.344-1.587v.29a1.27 1.27 0 0 1-1.266 1.276h-3.324v.998a1.27 1.27 0 0 1-1.266 1.275H3.157a1.27 1.27 0 0 1-1.266-1.275V47.068a1.27 1.27 0 0 1 1.266-1.275h11.185c1.614-2.387 4.422-4.57 7.597-4.57 4.53 0 6.963 2.563 7.753 3.585l9.263 3.166a.702.702 0 0 1 .033.013c1.72.642 2.94 1.9 3.444 3.382l8.387-2.336c3.125-1.074 5.766-.092 6.893 2.565a.87.87 0 0 1 .016.038c1.365 3.526-1.318 5.878-3.118 6.712zM9.095 61.176V48.343H4.423v12.833zm4.59-12.833h-2.058v10.56h2.057zm41.691 4.239c-.752-1.742-2.447-1.58-3.738-1.135l-9.069 2.53a4.834 4.834 0 0 1-2.366 3.19 4.782 4.782 0 0 1-3.678.431l-.036-.01-10.874-3.47a1.277 1.277 0 0 1-.825-1.602 1.265 1.265 0 0 1 1.59-.83l10.854 3.464c.587.164 1.204.09 1.736-.21a2.303 2.303 0 0 0 1.096-1.394c.365-1.293-.433-2.591-1.943-3.162l-9.628-3.292a1.268 1.268 0 0 1-.672-.539c-.067-.107-1.8-2.78-5.884-2.78-2.375 0-4.58 1.918-5.722 3.797v9.76c2.671.228 3.63.785 5.608 1.934 1.425.827 3.375 1.96 7.029 3.615.962.377 3.412 1.09 5.99-.102.014-.007 18.754-6.768 18.754-6.768.531-.256 2.553-1.385 1.778-3.427zm2.719-48.34v15.383c0 .704-.568 1.275-1.267 1.275H45.643c-1.614 2.387-4.422 4.57-7.596 4.57-4.53 0-6.964-2.563-7.754-3.585l-9.263-3.166a1.174 1.174 0 0 1-.033-.012c-1.719-.643-2.94-1.9-3.443-3.383L9.166 17.66c-3.124 1.074-5.766.091-6.893-2.565a1.76 1.76 0 0 1-.015-.038C.893 11.53 3.575 9.179 5.376 8.345c.033-.015.067-.03.102-.042l18.654-6.726c3.469-1.582 6.715-.617 7.953-.126l.056.024c3.788 1.715 5.892 2.936 7.284 3.745 1.781 1.034 2.431 1.412 4.343 1.587v-.291a1.27 1.27 0 0 1 1.267-1.276h3.323v-.998a1.27 1.27 0 0 1 1.267-1.275h7.203c.7 0 1.266.57 1.267 1.275zM43.769 19.123v-9.76c-2.672-.228-3.63-.785-5.609-1.934-1.425-.827-3.375-1.96-7.028-3.615-.962-.377-3.413-1.09-5.99.102-.016.008-18.754 6.768-18.754 6.768-.531.256-2.554 1.385-1.778 3.427.751 1.742 2.446 1.58 3.738 1.135l9.068-2.53a4.834 4.834 0 0 1 2.366-3.19 4.776 4.776 0 0 1 3.715-.42l10.873 3.47c.667.213 1.036.93.825 1.6a1.265 1.265 0 0 1-1.59.831l-10.853-3.464a2.305 2.305 0 0 0-2.832 1.603c-.366 1.294.433 2.592 1.942 3.163L31.49 19.6c.28.096.517.287.672.54.068.107 1.8 2.78 5.885 2.78 2.374 0 4.58-1.918 5.722-3.797zm4.59-11.332H46.3V18.35h2.057zm7.203-2.273h-4.671V18.35h4.671zm-31.806 24.7c0 6.598-5.33 11.966-11.883 11.966C5.32 42.184-.01 36.816-.01 30.218c0-6.599 5.33-11.967 11.883-11.967 6.552 0 11.883 5.368 11.883 11.967zm-2.533 0c0-5.193-4.194-9.417-9.35-9.417s-9.35 4.224-9.35 9.417c0 5.192 4.194 9.416 9.35 9.416s9.35-4.224 9.35-9.416zm-5.849 4.248c0 .496-.209.992-.626.992H8.846c-.418 0-.627-.496-.627-.992 0-.495.21-.991.627-.991h.696l.445-3.356h-.654c-.348 0-.529-.394-.529-.802 0-.394.181-.802.53-.802h.876l.14-1.007c.264-1.926 1.934-3.253 3.743-3.253h.585c.446 0 .696.496.696.977s-.25.992-.696.992h-.654c-.988 0-1.42.54-1.517 1.284l-.14 1.006h1.49c.348 0 .529.409.529.803 0 .408-.181.802-.53.802h-1.711l-.46 3.355h3.063c.417 0 .626.497.626.992zm44.621 2.01c0 6.598-5.33 11.967-11.882 11.967-6.553 0-11.883-5.369-11.883-11.967 0-6.599 5.33-11.967 11.883-11.967 6.552 0 11.882 5.368 11.882 11.967zm-2.532 0c0-5.192-4.195-9.417-9.35-9.417-5.156 0-9.35 4.225-9.35 9.417s4.194 9.416 9.35 9.416c5.155 0 9.35-4.224 9.35-9.416zm-6.114 1.984c0 1.809-1.113 2.903-2.742 3.18v.423c0 .204-.264.394-.529.394-.306 0-.529-.19-.529-.394v-.365c-1.67-.058-3.035-.963-3.035-1.896 0-.496.418-1.226.947-1.226.585 0 1.058.861 2.088 1.05v-2.363c-1.28-.51-2.784-1.137-2.784-3.004 0-1.853 1.309-2.743 2.784-2.962v-.408c0-.205.223-.394.529-.394.265 0 .53.19.53.394v.364c.862.03 2.49.263 2.49 1.27 0 .393-.25 1.196-.862 1.196-.46 0-.724-.467-1.629-.54v2.13c1.267.496 2.742 1.182 2.742 3.15zm-3.66-5.238c-.627.132-.892.467-.892.817 0 .424.362.686.891.92zm1.628 5.471c0-.482-.348-.788-.85-1.036v1.955c.474-.117.85-.394.85-.919z"/><path fill="url(#yu9ta)" d="M22.93 51.518a1.284 1.284 0 0 1-.213.708 1.26 1.26 0 0 1-2.222-.22 1.343 1.343 0 0 1-.098-.488 1.272 1.272 0 0 1 .098-.487 1.266 1.266 0 0 1 1.417-.762 1.256 1.256 0 0 1 .805.542 1.24 1.24 0 0 1 .188.459c.017.081.024.165.024.248zm16.657-36.343a1.281 1.281 0 0 1-.37.901 1.248 1.248 0 0 1-.411.276 1.28 1.28 0 0 1-.484.098 1.245 1.245 0 0 1-.485-.098 1.337 1.337 0 0 1-.411-.276 1.222 1.222 0 0 1-.273-.414 1.284 1.284 0 0 1 .273-1.388 1.27 1.27 0 0 1 .648-.35 1.274 1.274 0 0 1 1.417.763 1.312 1.312 0 0 1 .096.488zM54.61 58.348c-.034.016-.068.03-.102.042l-18.655 6.726c-1.423.65-2.81.87-4.035.87a10.863 10.863 0 0 1-3.974-.767c-3.788-1.716-5.892-2.937-7.283-3.745-1.782-1.035-2.432-1.412-4.344-1.587v.29a1.27 1.27 0 0 1-1.266 1.276h-3.324v.998a1.27 1.27 0 0 1-1.266 1.275H3.157a1.27 1.27 0 0 1-1.266-1.275V47.068a1.27 1.27 0 0 1 1.266-1.275h11.185c1.614-2.387 4.422-4.57 7.597-4.57 4.53 0 6.963 2.563 7.753 3.585l9.263 3.166a.702.702 0 0 1 .033.013c1.72.642 2.94 1.9 3.444 3.382l8.387-2.336c3.125-1.074 5.766-.092 6.893 2.565a.87.87 0 0 1 .016.038c1.365 3.526-1.318 5.878-3.118 6.712zM9.095 61.176V48.343H4.423v12.833zm4.59-12.833h-2.058v10.56h2.057zm41.691 4.239c-.752-1.742-2.447-1.58-3.738-1.135l-9.069 2.53a4.834 4.834 0 0 1-2.366 3.19 4.782 4.782 0 0 1-3.678.431l-.036-.01-10.874-3.47a1.277 1.277 0 0 1-.825-1.602 1.265 1.265 0 0 1 1.59-.83l10.854 3.464c.587.164 1.204.09 1.736-.21a2.303 2.303 0 0 0 1.096-1.394c.365-1.293-.433-2.591-1.943-3.162l-9.628-3.292a1.268 1.268 0 0 1-.672-.539c-.067-.107-1.8-2.78-5.884-2.78-2.375 0-4.58 1.918-5.722 3.797v9.76c2.671.228 3.63.785 5.608 1.934 1.425.827 3.375 1.96 7.029 3.615.962.377 3.412 1.09 5.99-.102.014-.007 18.754-6.768 18.754-6.768.531-.256 2.553-1.385 1.778-3.427zm2.719-48.34v15.383c0 .704-.568 1.275-1.267 1.275H45.643c-1.614 2.387-4.422 4.57-7.596 4.57-4.53 0-6.964-2.563-7.754-3.585l-9.263-3.166a1.174 1.174 0 0 1-.033-.012c-1.719-.643-2.94-1.9-3.443-3.383L9.166 17.66c-3.124 1.074-5.766.091-6.893-2.565a1.76 1.76 0 0 1-.015-.038C.893 11.53 3.575 9.179 5.376 8.345c.033-.015.067-.03.102-.042l18.654-6.726c3.469-1.582 6.715-.617 7.953-.126l.056.024c3.788 1.715 5.892 2.936 7.284 3.745 1.781 1.034 2.431 1.412 4.343 1.587v-.291a1.27 1.27 0 0 1 1.267-1.276h3.323v-.998a1.27 1.27 0 0 1 1.267-1.275h7.203c.7 0 1.266.57 1.267 1.275zM43.769 19.123v-9.76c-2.672-.228-3.63-.785-5.609-1.934-1.425-.827-3.375-1.96-7.028-3.615-.962-.377-3.413-1.09-5.99.102-.016.008-18.754 6.768-18.754 6.768-.531.256-2.554 1.385-1.778 3.427.751 1.742 2.446 1.58 3.738 1.135l9.068-2.53a4.834 4.834 0 0 1 2.366-3.19 4.776 4.776 0 0 1 3.715-.42l10.873 3.47c.667.213 1.036.93.825 1.6a1.265 1.265 0 0 1-1.59.831l-10.853-3.464a2.305 2.305 0 0 0-2.832 1.603c-.366 1.294.433 2.592 1.942 3.163L31.49 19.6c.28.096.517.287.672.54.068.107 1.8 2.78 5.885 2.78 2.374 0 4.58-1.918 5.722-3.797zm4.59-11.332H46.3V18.35h2.057zm7.203-2.273h-4.671V18.35h4.671zm-31.806 24.7c0 6.598-5.33 11.966-11.883 11.966C5.32 42.184-.01 36.816-.01 30.218c0-6.599 5.33-11.967 11.883-11.967 6.552 0 11.883 5.368 11.883 11.967zm-2.533 0c0-5.193-4.194-9.417-9.35-9.417s-9.35 4.224-9.35 9.417c0 5.192 4.194 9.416 9.35 9.416s9.35-4.224 9.35-9.416zm-5.849 4.248c0 .496-.209.992-.626.992H8.846c-.418 0-.627-.496-.627-.992 0-.495.21-.991.627-.991h.696l.445-3.356h-.654c-.348 0-.529-.394-.529-.802 0-.394.181-.802.53-.802h.876l.14-1.007c.264-1.926 1.934-3.253 3.743-3.253h.585c.446 0 .696.496.696.977s-.25.992-.696.992h-.654c-.988 0-1.42.54-1.517 1.284l-.14 1.006h1.49c.348 0 .529.409.529.803 0 .408-.181.802-.53.802h-1.711l-.46 3.355h3.063c.417 0 .626.497.626.992zm44.621 2.01c0 6.598-5.33 11.967-11.882 11.967-6.553 0-11.883-5.369-11.883-11.967 0-6.599 5.33-11.967 11.883-11.967 6.552 0 11.882 5.368 11.882 11.967zm-2.532 0c0-5.192-4.195-9.417-9.35-9.417-5.156 0-9.35 4.225-9.35 9.417s4.194 9.416 9.35 9.416c5.155 0 9.35-4.224 9.35-9.416zm-6.114 1.984c0 1.809-1.113 2.903-2.742 3.18v.423c0 .204-.264.394-.529.394-.306 0-.529-.19-.529-.394v-.365c-1.67-.058-3.035-.963-3.035-1.896 0-.496.418-1.226.947-1.226.585 0 1.058.861 2.088 1.05v-2.363c-1.28-.51-2.784-1.137-2.784-3.004 0-1.853 1.309-2.743 2.784-2.962v-.408c0-.205.223-.394.529-.394.265 0 .53.19.53.394v.364c.862.03 2.49.263 2.49 1.27 0 .393-.25 1.196-.862 1.196-.46 0-.724-.467-1.629-.54v2.13c1.267.496 2.742 1.182 2.742 3.15zm-3.66-5.238c-.627.132-.892.467-.892.817 0 .424.362.686.891.92zm1.628 5.471c0-.482-.348-.788-.85-1.036v1.955c.474-.117.85-.394.85-.919z"/></g></g></svg>