<svg xmlns="http://www.w3.org/2000/svg" width="58" height="65" viewBox="0 0 58 65"><defs><linearGradient id="rey1a" x1="0" x2="58" y1="33" y2="32.12" gradientUnits="userSpaceOnUse"><stop offset="0" stop-color="#821dc9"/><stop offset="1" stop-color="#4600cd"/></linearGradient></defs><g><g><path fill="#821dc9" d="M57.996 32.56v25.85c0 3.634-2.953 6.59-6.584 6.59H6.585C2.954 65 0 62.043 0 58.41V1.42A1.265 1.265 0 0 1 2.16.49l3.587 3.59L9.335.49a1.266 1.266 0 0 1 1.79 0l3.587 3.59L18.3.49a1.266 1.266 0 0 1 1.79 0l3.588 3.59L27.265.49a1.266 1.266 0 0 1 1.791 0l3.587 3.59L36.23.49a1.266 1.266 0 0 1 1.791 0l3.587 3.59L45.196.49a1.266 1.266 0 0 1 2.162.897v29.905h9.372c.7 0 1.266.567 1.266 1.267zM46.228 62.464a6.558 6.558 0 0 1-1.4-4.055V32.594l-.002-.035V4.446l-2.321 2.322a1.265 1.265 0 0 1-1.791 0l-3.587-3.59-3.588 3.59a1.266 1.266 0 0 1-1.79 0l-3.588-3.59-3.587 3.59a1.265 1.265 0 0 1-1.791 0l-3.588-3.59-3.587 3.59a1.265 1.265 0 0 1-1.79 0l-3.588-3.59-3.587 3.59a1.266 1.266 0 0 1-1.791 0l-2.32-2.32V58.41a4.058 4.058 0 0 0 4.053 4.055zm9.236-28.638h-8.105V58.41a4.058 4.058 0 0 0 4.053 4.055 4.058 4.058 0 0 0 4.052-4.055zm-26.973-9.09c0 2.065-1.505 3.808-3.546 4.328v1.034a1.267 1.267 0 1 1-2.532 0v-1.034c-2.041-.52-3.546-2.263-3.546-4.328a1.267 1.267 0 1 1 2.533 0c0 1.076 1.022 1.953 2.279 1.953s2.28-.877 2.28-1.953c0-1.077-1.023-1.953-2.28-1.953-2.653 0-4.812-2.014-4.812-4.488 0-2.065 1.505-3.808 3.546-4.328v-.859a1.267 1.267 0 1 1 2.532 0v.86c2.04.519 3.546 2.262 3.546 4.327a1.267 1.267 0 1 1-2.533 0c0-1.076-1.022-1.953-2.28-1.953-1.256 0-2.278.877-2.278 1.953 0 1.077 1.022 1.953 2.279 1.953 2.653 0 4.812 2.013 4.812 4.488zm9.177-3.22c0 .7-.567 1.267-1.267 1.267h-2.468a1.266 1.266 0 0 1 0-2.534h2.468c.7 0 1.267.567 1.267 1.267zm-22.977 0c0 .7-.567 1.267-1.266 1.267h-2.468a1.267 1.267 0 0 1 0-2.534h2.468c.7 0 1.266.567 1.266 1.267zm23.617 14.085c0 .7-.567 1.267-1.266 1.267H16.98a1.267 1.267 0 0 1 0-2.535h20.062c.7 0 1.266.568 1.266 1.268zm-26.726 0c0 .333-.136.66-.371.895a1.275 1.275 0 0 1-.895.372c-.333 0-.66-.136-.896-.372a1.277 1.277 0 0 1-.37-.895c0-.334.135-.66.37-.896.236-.236.563-.372.896-.372.333 0 .66.136.895.372.235.235.371.562.371.896zm26.726 8.363c0 .7-.567 1.267-1.266 1.267H16.98a1.267 1.267 0 0 1 0-2.534h20.062c.7 0 1.266.567 1.266 1.267zm-26.726 0c0 .333-.136.66-.371.896a1.275 1.275 0 0 1-.895.37c-.333 0-.66-.135-.896-.37a1.277 1.277 0 0 1-.37-.896c0-.333.135-.66.37-.896.236-.236.563-.371.896-.371.333 0 .66.135.895.37.235.237.371.564.371.897zm26.726 8.363c0 .7-.567 1.267-1.266 1.267H16.98a1.267 1.267 0 0 1 0-2.534h20.062c.7 0 1.266.567 1.266 1.267zm-26.726 0c0 .333-.136.66-.371.896a1.275 1.275 0 0 1-.895.371c-.333 0-.66-.136-.896-.371a1.277 1.277 0 0 1-.37-.896c0-.333.135-.66.37-.896.236-.236.563-.371.896-.371.333 0 .66.135.895.371s.371.563.371.896z"/><path fill="url(#rey1a)" d="M57.996 32.56v25.85c0 3.634-2.953 6.59-6.584 6.59H6.585C2.954 65 0 62.043 0 58.41V1.42A1.265 1.265 0 0 1 2.16.49l3.587 3.59L9.335.49a1.266 1.266 0 0 1 1.79 0l3.587 3.59L18.3.49a1.266 1.266 0 0 1 1.79 0l3.588 3.59L27.265.49a1.266 1.266 0 0 1 1.791 0l3.587 3.59L36.23.49a1.266 1.266 0 0 1 1.791 0l3.587 3.59L45.196.49a1.266 1.266 0 0 1 2.162.897v29.905h9.372c.7 0 1.266.567 1.266 1.267zM46.228 62.464a6.558 6.558 0 0 1-1.4-4.055V32.594l-.002-.035V4.446l-2.321 2.322a1.265 1.265 0 0 1-1.791 0l-3.587-3.59-3.588 3.59a1.266 1.266 0 0 1-1.79 0l-3.588-3.59-3.587 3.59a1.265 1.265 0 0 1-1.791 0l-3.588-3.59-3.587 3.59a1.265 1.265 0 0 1-1.79 0l-3.588-3.59-3.587 3.59a1.266 1.266 0 0 1-1.791 0l-2.32-2.32V58.41a4.058 4.058 0 0 0 4.053 4.055zm9.236-28.638h-8.105V58.41a4.058 4.058 0 0 0 4.053 4.055 4.058 4.058 0 0 0 4.052-4.055zm-26.973-9.09c0 2.065-1.505 3.808-3.546 4.328v1.034a1.267 1.267 0 1 1-2.532 0v-1.034c-2.041-.52-3.546-2.263-3.546-4.328a1.267 1.267 0 1 1 2.533 0c0 1.076 1.022 1.953 2.279 1.953s2.28-.877 2.28-1.953c0-1.077-1.023-1.953-2.28-1.953-2.653 0-4.812-2.014-4.812-4.488 0-2.065 1.505-3.808 3.546-4.328v-.859a1.267 1.267 0 1 1 2.532 0v.86c2.04.519 3.546 2.262 3.546 4.327a1.267 1.267 0 1 1-2.533 0c0-1.076-1.022-1.953-2.28-1.953-1.256 0-2.278.877-2.278 1.953 0 1.077 1.022 1.953 2.279 1.953 2.653 0 4.812 2.013 4.812 4.488zm9.177-3.22c0 .7-.567 1.267-1.267 1.267h-2.468a1.266 1.266 0 0 1 0-2.534h2.468c.7 0 1.267.567 1.267 1.267zm-22.977 0c0 .7-.567 1.267-1.266 1.267h-2.468a1.267 1.267 0 0 1 0-2.534h2.468c.7 0 1.266.567 1.266 1.267zm23.617 14.085c0 .7-.567 1.267-1.266 1.267H16.98a1.267 1.267 0 0 1 0-2.535h20.062c.7 0 1.266.568 1.266 1.268zm-26.726 0c0 .333-.136.66-.371.895a1.275 1.275 0 0 1-.895.372c-.333 0-.66-.136-.896-.372a1.277 1.277 0 0 1-.37-.895c0-.334.135-.66.37-.896.236-.236.563-.372.896-.372.333 0 .66.136.895.372.235.235.371.562.371.896zm26.726 8.363c0 .7-.567 1.267-1.266 1.267H16.98a1.267 1.267 0 0 1 0-2.534h20.062c.7 0 1.266.567 1.266 1.267zm-26.726 0c0 .333-.136.66-.371.896a1.275 1.275 0 0 1-.895.37c-.333 0-.66-.135-.896-.37a1.277 1.277 0 0 1-.37-.896c0-.333.135-.66.37-.896.236-.236.563-.371.896-.371.333 0 .66.135.895.37.235.237.371.564.371.897zm26.726 8.363c0 .7-.567 1.267-1.266 1.267H16.98a1.267 1.267 0 0 1 0-2.534h20.062c.7 0 1.266.567 1.266 1.267zm-26.726 0c0 .333-.136.66-.371.896a1.275 1.275 0 0 1-.895.371c-.333 0-.66-.136-.896-.371a1.277 1.277 0 0 1-.37-.896c0-.333.135-.66.37-.896.236-.236.563-.371.896-.371.333 0 .66.135.895.371s.371.563.371.896z"/></g></g></svg>