<svg xmlns="http://www.w3.org/2000/svg" width="65" height="65" viewBox="0 0 65 65"><defs><linearGradient id="f9vfa" x1="0" x2="65" y1="32.98" y2="32" gradientUnits="userSpaceOnUse"><stop offset="0" stop-color="#821dc9"/><stop offset="1" stop-color="#4600cd"/></linearGradient></defs><g><g><path fill="#821dc9" d="M64.13 64.982H1.16S0 64.994 0 63.822c0-1.369.87-1.451.87-1.451h2.612v-3.482s-.724-7.768 3.482-14.794c4.832-8.072 11.027-11.024 11.027-11.024s-.343-.772-.87-3.481c-.528-2.71-.871-5.802-.871-5.802s-2.09.109-2.322-.58c-.748-2.233 1.451-4.352 1.451-4.352s-.295-1.567-.29-2.61C15.115 10.636 20.35 0 32.5 0c12.835 0 16.711 11.587 17.12 13.634.41 2.047 0 5.222 0 5.222s.699.677 1.161 1.45c.463.774.775 2.093.29 2.901-.485.81-2.321.58-2.321.58s-.125 1.999-.58 4.352c-.455 2.354-1.161 4.932-1.161 4.932s6.46 3.367 9.866 8.993c5 8.26 4.643 14.795 4.643 14.795v5.512h2.611s.87-.113.87 1.16c0 1.468-.87 1.45-.87 1.45zM16.25 62.37h32.5v-5.512h-14.8v2.901s-.245 1.16-1.45 1.16c-1.206 0-1.45-1.16-1.45-1.16v-2.901h-14.8zm30.179-8.123l-3.483-2.9h-8.995v2.9zm-15.38 0v-2.9h-8.705l-3.773 2.9zM44.397 8.703C40.862 3.508 35.208 2.61 32.79 2.61c-6.437 0-10.503 3.602-12.478 6.382-2.422 3.412-2.321 7.832-2.321 7.832s5.276-2.9 14.8-2.9c7.78 0 8.704 1.16 8.704 1.16s-.382-1.768-2.03-3.771c-1.65-2.003-3.483-2.611-3.483-2.611s-.598-.927 0-1.74c.638-.87 1.697-.512 2.902.29 1.204.8 3.005 2.313 4.353 4.93 1.059 2.059 1.16 3.482 1.16 3.482s.392.117 1.451.58c1.06.463 1.16.58 1.16.58s.924-2.928-2.61-8.122zm3.773 12.474s-2.145-4.352-15.96-4.352c-13.294 0-15.38 4.352-15.38 4.352zm-29.308 2.61s.508 3.029 1.16 5.803c.653 2.774 1.076 4.389 4.643 6.382 3.567 1.993 5.75 2.707 7.835 2.61 2.087-.096 5.101-.594 7.254-2.03 2.564-1.71 4.828-3.087 5.514-7.252.685-4.166.87-5.512.87-5.512zm35.982 20.308c-4.14-6.275-9.286-8.993-9.286-8.993S39.83 41.484 32.5 41.484c-4.463 0-8.415-2.611-8.415-2.611l-4.643 2.9s-1.003.755-1.741-.29c-.68-.96 0-1.74 0-1.74l3.772-2.32s-.546-.65-1.16-1.161c-.616-.512-1.161-.87-1.161-.87s-6.984 3.566-10.737 11.604c-2.139 4.58-2.321 9.863-2.321 9.863v5.512h7.544v-7.543l7.545-6.092h22.634l7.545 6.092v7.543h7.544v-4.932s.57-6.322-4.062-13.344zM14.41 45.639c-.659-.286-1.184-1.19-.28-2.249.377-.44.817-1.074 1.825-.676.747.295 1.153 1.354.478 2.037-.85.86-1.243 1.227-2.023.888zM33.37 8.122c-1.209-.032-1.746-.069-2.032-.87-.24-.676-.296-1.74 1.451-1.74.58 0 1.343-.138 1.741.87.295.746-.2 1.767-1.16 1.74z"/><path fill="url(#f9vfa)" d="M64.13 64.982H1.16S0 64.994 0 63.822c0-1.369.87-1.451.87-1.451h2.612v-3.482s-.724-7.768 3.482-14.794c4.832-8.072 11.027-11.024 11.027-11.024s-.343-.772-.87-3.481c-.528-2.71-.871-5.802-.871-5.802s-2.09.109-2.322-.58c-.748-2.233 1.451-4.352 1.451-4.352s-.295-1.567-.29-2.61C15.115 10.636 20.35 0 32.5 0c12.835 0 16.711 11.587 17.12 13.634.41 2.047 0 5.222 0 5.222s.699.677 1.161 1.45c.463.774.775 2.093.29 2.901-.485.81-2.321.58-2.321.58s-.125 1.999-.58 4.352c-.455 2.354-1.161 4.932-1.161 4.932s6.46 3.367 9.866 8.993c5 8.26 4.643 14.795 4.643 14.795v5.512h2.611s.87-.113.87 1.16c0 1.468-.87 1.45-.87 1.45zM16.25 62.37h32.5v-5.512h-14.8v2.901s-.245 1.16-1.45 1.16c-1.206 0-1.45-1.16-1.45-1.16v-2.901h-14.8zm30.179-8.123l-3.483-2.9h-8.995v2.9zm-15.38 0v-2.9h-8.705l-3.773 2.9zM44.397 8.703C40.862 3.508 35.208 2.61 32.79 2.61c-6.437 0-10.503 3.602-12.478 6.382-2.422 3.412-2.321 7.832-2.321 7.832s5.276-2.9 14.8-2.9c7.78 0 8.704 1.16 8.704 1.16s-.382-1.768-2.03-3.771c-1.65-2.003-3.483-2.611-3.483-2.611s-.598-.927 0-1.74c.638-.87 1.697-.512 2.902.29 1.204.8 3.005 2.313 4.353 4.93 1.059 2.059 1.16 3.482 1.16 3.482s.392.117 1.451.58c1.06.463 1.16.58 1.16.58s.924-2.928-2.61-8.122zm3.773 12.474s-2.145-4.352-15.96-4.352c-13.294 0-15.38 4.352-15.38 4.352zm-29.308 2.61s.508 3.029 1.16 5.803c.653 2.774 1.076 4.389 4.643 6.382 3.567 1.993 5.75 2.707 7.835 2.61 2.087-.096 5.101-.594 7.254-2.03 2.564-1.71 4.828-3.087 5.514-7.252.685-4.166.87-5.512.87-5.512zm35.982 20.308c-4.14-6.275-9.286-8.993-9.286-8.993S39.83 41.484 32.5 41.484c-4.463 0-8.415-2.611-8.415-2.611l-4.643 2.9s-1.003.755-1.741-.29c-.68-.96 0-1.74 0-1.74l3.772-2.32s-.546-.65-1.16-1.161c-.616-.512-1.161-.87-1.161-.87s-6.984 3.566-10.737 11.604c-2.139 4.58-2.321 9.863-2.321 9.863v5.512h7.544v-7.543l7.545-6.092h22.634l7.545 6.092v7.543h7.544v-4.932s.57-6.322-4.062-13.344zM14.41 45.639c-.659-.286-1.184-1.19-.28-2.249.377-.44.817-1.074 1.825-.676.747.295 1.153 1.354.478 2.037-.85.86-1.243 1.227-2.023.888zM33.37 8.122c-1.209-.032-1.746-.069-2.032-.87-.24-.676-.296-1.74 1.451-1.74.58 0 1.343-.138 1.741.87.295.746-.2 1.767-1.16 1.74z"/></g></g></svg>