<svg xmlns="http://www.w3.org/2000/svg" width="65" height="54" viewBox="0 0 65 54"><defs><linearGradient id="ciaea" x1="0" x2="65" y1="27" y2="27" gradientUnits="userSpaceOnUse"><stop offset="0" stop-color="#821dc9"/><stop offset="1" stop-color="#4600cd"/></linearGradient></defs><g><g><path fill="#004043" d="M58.616 30.704v20.683h5.078a1.306 1.306 0 0 1 0 2.613H1.306a1.306 1.306 0 0 1 0-2.613h4.788V30.662C.867 29.85 0 24.708 0 23.806c0-.02.007-.034.01-.052-.003-.032-.01-.061-.01-.093v-3.484c0-.084.01-.166.025-.245.01-.051.026-.1.042-.148.008-.024.013-.05.022-.072.025-.065.056-.125.09-.185l.007-.012a1.31 1.31 0 0 1 .129-.18L5.878 7.061c.054-.125.13-.233.216-.331V1.306C6.094.585 6.678 0 7.4 0h49.91c.721 0 1.306.585 1.306 1.306v5.189c.074.084.142.176.195.282l5.924 12.57c.014.029.021.06.033.09.015.02.025.042.038.064a1.311 1.311 0 0 1 .107.217c.018.048.033.096.045.146.006.026.013.05.018.076a1.3 1.3 0 0 1 .024.237v3.484c0 .05-.01.096-.014.144l.014.001s-.423 6.182-6.384 6.898zM14.22 51.387h8.415V45.29h-1.596a1.306 1.306 0 0 1 0-2.613h1.596V36.29h-8.415zm-5.514 0h2.902V34.983c0-.721.585-1.306 1.306-1.306H23.94c.72 0 1.305.585 1.305 1.306v16.404h30.76V30.662c-2.408-.374-3.892-1.664-4.79-3.038-.441.87-2 3.15-6.237 3.15-3.286 0-5.175-1.518-6.241-3.15-.441.87-1.999 3.15-6.237 3.15-3.286 0-5.174-1.518-6.24-3.15-.442.87-2 3.15-6.238 3.15-3.287 0-5.175-1.52-6.242-3.152-.397.781-1.705 2.711-5.075 3.083zM44.252 18.87h5.19L46.655 8.129h-7.757l.937 11.342a1.3 1.3 0 0 1 .21.706v3.339s.305 4.645 4.933 4.645c4.627 0 4.933-4.645 4.933-4.645v-2.032h-5.659a1.306 1.306 0 0 1 0-2.613zm-11.607 2.613h-5.078v2.032s.305 4.645 4.933 4.645c4.627 0 4.933-4.645 4.933-4.645v-3.078l-1.017-12.31h-7.832l-.888 10.743h4.95a1.306 1.306 0 0 1 0 2.613zM23.94 18.87h1.275l.887-10.742h-7.39L15.09 20.504v3.012s.306 4.645 4.933 4.645c4.628 0 4.933-4.645 4.933-4.645v-2.032H23.94a1.306 1.306 0 0 1 0-2.613zm-20.547 0h2.846a1.306 1.306 0 0 1 0 2.613H2.612v2.032s.305 4.645 4.933 4.645c4.627 0 4.933-4.645 4.933-4.645v-3.339c0-.267.08-.515.218-.722L16.012 8.13h-7.75zM56.004 2.613H8.705v2.903h47.3zm.556 5.516h-7.207L52.14 18.87h9.484zm5.828 13.355h-9.866v2.032s.306 4.645 4.933 4.645c4.628 0 4.933-4.645 4.933-4.645zM29.163 33.677h22.924c.721 0 1.306.585 1.306 1.306v12.484c0 .722-.585 1.307-1.306 1.307H29.163a1.306 1.306 0 0 1-1.306-1.307V34.984c0-.722.585-1.307 1.306-1.307zM50.78 46.161v-8.023l-8.02 8.023zm-20.312 0h8.7c.062-.122.138-.238.24-.34l9.525-9.531h-3.86c-.014.016-.025.034-.04.05l-2.618 2.619a1.305 1.305 0 1 1-1.847-1.848l.82-.821H30.47zm8.174-3.428a1.305 1.305 0 1 1-1.846-1.848l.586-.586a1.305 1.305 0 1 1 1.847 1.847z"/><path fill="url(#ciaea)" d="M58.616 30.704v20.683h5.078a1.306 1.306 0 0 1 0 2.613H1.306a1.306 1.306 0 0 1 0-2.613h4.788V30.662C.867 29.85 0 24.708 0 23.806c0-.02.007-.034.01-.052-.003-.032-.01-.061-.01-.093v-3.484c0-.084.01-.166.025-.245.01-.051.026-.1.042-.148.008-.024.013-.05.022-.072.025-.065.056-.125.09-.185l.007-.012a1.31 1.31 0 0 1 .129-.18L5.878 7.061c.054-.125.13-.233.216-.331V1.306C6.094.585 6.678 0 7.4 0h49.91c.721 0 1.306.585 1.306 1.306v5.189c.074.084.142.176.195.282l5.924 12.57c.014.029.021.06.033.09.015.02.025.042.038.064a1.311 1.311 0 0 1 .107.217c.018.048.033.096.045.146.006.026.013.05.018.076a1.3 1.3 0 0 1 .024.237v3.484c0 .05-.01.096-.014.144l.014.001s-.423 6.182-6.384 6.898zM14.22 51.387h8.415V45.29h-1.596a1.306 1.306 0 0 1 0-2.613h1.596V36.29h-8.415zm-5.514 0h2.902V34.983c0-.721.585-1.306 1.306-1.306H23.94c.72 0 1.305.585 1.305 1.306v16.404h30.76V30.662c-2.408-.374-3.892-1.664-4.79-3.038-.441.87-2 3.15-6.237 3.15-3.286 0-5.175-1.518-6.241-3.15-.441.87-1.999 3.15-6.237 3.15-3.286 0-5.174-1.518-6.24-3.15-.442.87-2 3.15-6.238 3.15-3.287 0-5.175-1.52-6.242-3.152-.397.781-1.705 2.711-5.075 3.083zM44.252 18.87h5.19L46.655 8.129h-7.757l.937 11.342a1.3 1.3 0 0 1 .21.706v3.339s.305 4.645 4.933 4.645c4.627 0 4.933-4.645 4.933-4.645v-2.032h-5.659a1.306 1.306 0 0 1 0-2.613zm-11.607 2.613h-5.078v2.032s.305 4.645 4.933 4.645c4.627 0 4.933-4.645 4.933-4.645v-3.078l-1.017-12.31h-7.832l-.888 10.743h4.95a1.306 1.306 0 0 1 0 2.613zM23.94 18.87h1.275l.887-10.742h-7.39L15.09 20.504v3.012s.306 4.645 4.933 4.645c4.628 0 4.933-4.645 4.933-4.645v-2.032H23.94a1.306 1.306 0 0 1 0-2.613zm-20.547 0h2.846a1.306 1.306 0 0 1 0 2.613H2.612v2.032s.305 4.645 4.933 4.645c4.627 0 4.933-4.645 4.933-4.645v-3.339c0-.267.08-.515.218-.722L16.012 8.13h-7.75zM56.004 2.613H8.705v2.903h47.3zm.556 5.516h-7.207L52.14 18.87h9.484zm5.828 13.355h-9.866v2.032s.306 4.645 4.933 4.645c4.628 0 4.933-4.645 4.933-4.645zM29.163 33.677h22.924c.721 0 1.306.585 1.306 1.306v12.484c0 .722-.585 1.307-1.306 1.307H29.163a1.306 1.306 0 0 1-1.306-1.307V34.984c0-.722.585-1.307 1.306-1.307zM50.78 46.161v-8.023l-8.02 8.023zm-20.312 0h8.7c.062-.122.138-.238.24-.34l9.525-9.531h-3.86c-.014.016-.025.034-.04.05l-2.618 2.619a1.305 1.305 0 1 1-1.847-1.848l.82-.821H30.47zm8.174-3.428a1.305 1.305 0 1 1-1.846-1.848l.586-.586a1.305 1.305 0 1 1 1.847 1.847z"/></g></g></svg>