<svg xmlns="http://www.w3.org/2000/svg" viewBox="0 0 512 512">
  <linearGradient id="gradient" gradientUnits="userSpaceOnUse">
    <stop offset="0%" stop-color="#821DC9"/>
    <stop offset="100%" stop-color="#4600CD"/>
  </linearGradient>
  <g fill="url(#gradient)">
    <g>
      <g>
        <path d="M145.74,406.411c-0.13-0.641-0.32-1.27-0.57-1.87c-0.25-0.61-0.56-1.19-0.92-1.73c-0.36-0.55-0.78-1.06-1.24-1.52
			c-0.46-0.46-0.97-0.88-1.52-1.24c-0.54-0.36-1.12-0.67-1.73-0.92c-0.6-0.25-1.23-0.45-1.87-0.57c-1.29-0.26-2.62-0.26-3.91,0
			c-0.63,0.12-1.26,0.32-1.87,0.57c-0.6,0.25-1.18,0.56-1.72,0.92c-0.55,0.36-1.06,0.78-1.52,1.24c-0.47,0.46-0.88,0.97-1.25,1.52
			c-0.36,0.54-0.67,1.12-0.92,1.73c-0.25,0.599-0.44,1.229-0.57,1.87c-0.13,0.639-0.19,1.3-0.19,1.949c0,2.631,1.06,5.21,2.93,7.07
			c0.46,0.46,0.97,0.88,1.52,1.24c0.54,0.359,1.12,0.67,1.72,0.92c0.61,0.25,1.24,0.439,1.87,0.57c0.65,0.13,1.31,0.199,1.96,0.199
			c0.65,0,1.31-0.069,1.95-0.199c0.64-0.131,1.27-0.32,1.87-0.57c0.61-0.25,1.19-0.561,1.73-0.92c0.55-0.36,1.06-0.78,1.52-1.24
			c1.86-1.86,2.93-4.439,2.93-7.07C145.94,407.711,145.87,407.051,145.74,406.411z"/>
      </g>
    </g>
    <g>
      <g>
        <path d="M376.062,398.361H177.229c-5.523,0-10,4.477-10,10c0,5.522,4.477,10,10,10h198.834c5.522,0,10-4.477,9.999-10
			C386.062,402.837,381.584,398.361,376.062,398.361z"/>
      </g>
    </g>
    <g>
      <g>
        <path d="M256,60.44c-71.095,0-128.935,57.801-128.935,128.849c0,17.834,3.597,35.118,10.693,51.37
			c1.591,3.644,5.189,5.999,9.165,5.999h218.154c3.976,0,7.574-2.355,9.166-5.999c7.094-16.253,10.692-33.536,10.692-51.37
			C384.935,118.241,327.095,60.44,256,60.44z M358.322,226.658H153.677c-4.39-11.941-6.612-24.482-6.613-37.369
			c0-60.02,48.868-108.849,108.935-108.849s108.935,48.829,108.935,108.849C364.934,202.175,362.713,214.717,358.322,226.658z"/>
      </g>
    </g>
    <g>
      <g>
        <path d="M402.476,226.658H109.523c-5.523,0-10,4.478-10,10v138.504c0,5.522,4.477,10,10,10h292.954c5.522,0,10-4.477,9.999-10
			V236.658C412.476,231.136,407.998,226.658,402.476,226.658z M392.476,365.162H119.523V246.658h272.953V365.162z"/>
      </g>
    </g>
    <g>
      <g>
        <path d="M490.987,60.44H21.012C9.426,60.44,0,69.863,0,81.444v349.111c0,11.582,9.426,21.005,21.012,21.005h469.975
			c11.586,0,21.013-9.423,21.013-21.005V81.444C512,69.863,502.573,60.44,490.987,60.44z M392.476,246.658v118.504H119.523V246.658
			H392.476z M183.297,189.288c0-40.056,32.614-72.643,72.703-72.643s72.703,32.587,72.703,72.643
			c0,13.292-3.561,26.11-10.342,37.369H193.639C186.858,215.399,183.297,202.581,183.297,189.288z M358.323,226.658h-17.464
			c5.164-11.684,7.845-24.35,7.845-37.369c0-51.083-41.587-92.643-92.703-92.643c-51.117,0-92.703,41.56-92.703,92.643
			c0,13.019,2.681,25.684,7.845,37.369h-17.465c-4.391-11.941-6.612-24.482-6.612-37.369c0-60.02,48.868-108.849,108.935-108.849
			c60.065,0,108.934,48.83,108.934,108.849C364.935,202.175,362.713,214.717,358.323,226.658z M20,81.444
			c0-0.554,0.454-1.005,1.012-1.005h166.057c-11.01,6.988-20.892,15.596-29.309,25.487H20V81.444z M20,125.928h123.758
			c-10.624,18.72-16.694,40.346-16.694,63.361c0,12.799,1.853,25.315,5.522,37.369h-23.064c-5.523,0-10,4.478-10,10v128.504H20
			V125.928z M492,430.556c0,0.554-0.454,1.005-1.013,1.005H21.012c-0.558,0-1.012-0.451-1.012-1.005v-45.395h472V430.556z
			 M492,365.161h-79.523V236.658c0-5.522-4.478-10-10-10h-23.064c3.669-12.054,5.522-24.57,5.522-37.369
			c0-23.015-6.07-44.641-16.694-63.361H492V365.161z M492,105.928H354.24c-8.417-9.891-18.3-18.5-29.309-25.487h166.056V80.44
			c0.559,0,1.013,0.451,1.013,1.005V105.928z"/>
      </g>
    </g>
    <g>
      <g>
        <path d="M193.927,261.33h-24.96c-4.221,0-6.994,2.759-6.994,5.893v79.752c0,4.013,4.703,6.019,9.406,6.019
			c4.702,0,9.405-2.006,9.405-6.019v-27.085h11.937c16.64,0,29.662-8.025,29.662-29.092v-0.627
			C222.383,269.104,209.844,261.33,193.927,261.33z M203.573,292.301c0,8.528-4.1,12.54-10.853,12.54h-11.937v-26.458h11.937
			c6.753,0,10.853,4.012,10.853,12.54V292.301z"/>
      </g>
    </g>
    <g>
      <g>
        <path d="M289.904,343.59l-22.548-76.491c-1.326-4.389-6.753-6.521-12.299-6.521s-10.972,2.133-12.299,6.521L220.33,343.59
			c-0.121,0.501-0.241,1.003-0.241,1.379c0,4.64,6.872,8.025,12.057,8.025c3.014,0,5.426-1.003,6.15-3.637l4.099-15.674h25.443
			l4.1,15.674c0.724,2.634,3.135,3.637,6.149,3.637c5.186,0,12.059-3.385,12.059-8.025
			C290.146,344.592,290.024,344.09,289.904,343.59z M246.255,318.636l8.803-33.605l8.802,33.605H246.255z"/>
      </g>
    </g>
    <g>
      <g>
        <path d="M340.544,261.33c-3.014,0-4.22,1.254-5.425,3.637l-16.761,32.226l-16.881-32.226c-1.326-2.384-2.412-3.637-5.426-3.637
			c-5.184,0-12.781,3.385-12.781,8.025c0,0.376,0,0.878,0.241,1.379l24.96,43.01c0.241,0.377,0.482,1.003,0.482,1.756h-0.002v31.473
			c0,4.013,4.703,6.019,9.406,6.019c4.702,0,9.405-2.006,9.405-6.019v-31.473c0-0.753,0.241-1.38,0.483-1.756l24.839-43.01
			c0.242-0.501,0.242-1.003,0.242-1.379C353.326,264.715,345.729,261.33,340.544,261.33z"/>
      </g>
    </g>
    <g>
      <g>
        <path d="M259.85,179.282v-16.462c7.049,0.564,9.108,4.172,12.687,4.172c4.771,0,6.723-6.202,6.723-9.246
			c0-7.781-12.687-9.585-19.41-9.811v-2.818c0-1.579-2.06-3.045-4.12-3.045c-2.386,0-4.121,1.466-4.121,3.045v3.157
			c-11.493,1.692-21.686,8.569-21.686,22.89c0,14.434,11.711,19.282,21.686,23.229v18.267c-8.023-1.467-11.709-8.119-16.264-8.119
			c-4.12,0-7.373,5.638-7.373,9.472c0,7.216,10.627,14.207,23.638,14.658h-0.001v2.82c0,1.578,1.735,3.044,4.121,3.044
			c2.059,0,4.12-1.466,4.12-3.044v-3.271c12.686-2.142,21.361-10.599,21.361-24.581C281.211,188.415,269.717,183.116,259.85,179.282
			z M252.695,176.576c-4.12-1.804-6.94-3.834-6.94-7.104c0-2.706,2.061-5.299,6.94-6.315V176.576z M258.767,212.547v-15.11
			c3.904,1.916,6.615,4.284,6.615,8.006C265.382,209.501,262.455,211.645,258.767,212.547z"/>
      </g>
    </g>
  </g>
</svg>
