<svg xmlns="http://www.w3.org/2000/svg" width="65" height="50" viewBox="0 0 65 50"><defs><linearGradient id="4ahea" x1="0" x2="65" y1="24.97" y2="24.98" gradientUnits="userSpaceOnUse"><stop offset="0" stop-color="#821dc9"/><stop offset="1" stop-color="#4600cd"/></linearGradient></defs><g><g><path fill="#821dc9" d="M18.527 44.445a1.291 1.291 0 0 1-.564 1.062 1.253 1.253 0 0 1-.457.19 1.239 1.239 0 0 1-.953-.19 1.285 1.285 0 0 1-.193-1.965 1.23 1.23 0 0 1 .412-.276 1.243 1.243 0 0 1 .971 0 1.252 1.252 0 0 1 .687.691 1.292 1.292 0 0 1 .097.488zm30.485 0c0 .706-.569 1.278-1.27 1.278H22.5c-.701 0-1.27-.572-1.27-1.278 0-.706.569-1.278 1.27-1.278h25.242c.701 0 1.27.572 1.27 1.278zm-2.683-27.998c0-7.67-6.203-13.911-13.829-13.911s-13.83 6.24-13.83 13.911c0 1.647.282 3.25.84 4.776h2.217a11.854 11.854 0 0 1-.996-4.776c0-6.528 5.28-11.84 11.77-11.84 6.488 0 11.768 5.312 11.768 11.84 0 1.664-.34 3.283-.996 4.776h2.217c.558-1.526.84-3.129.84-4.776zM65 2.664v44.618a2.68 2.68 0 0 1-2.667 2.684H2.668A2.679 2.679 0 0 1 0 47.282V2.664A2.68 2.68 0 0 1 2.668-.02h59.664A2.68 2.68 0 0 1 65 2.664zM24.584 21.223h5.978c-.96-.341-1.62-.972-1.62-1.616 0-.49.414-1.21.937-1.21.578 0 1.046.85 2.064 1.037V17.1c-1.266-.504-2.753-1.123-2.753-2.968 0-1.83 1.294-2.71 2.753-2.926v-.403c0-.202.22-.39.524-.39.261 0 .523.188.523.39v.36c.853.029 2.464.26 2.464 1.254 0 .389-.248 1.182-.854 1.182-.454 0-.715-.461-1.61-.534v2.104c1.252.49 2.712 1.168 2.712 3.113 0 1.494-.77 2.494-1.962 2.942h6.678a9.266 9.266 0 0 0 1.313-4.776c0-5.12-4.14-9.284-9.23-9.284-5.09 0-9.23 4.165-9.23 9.284 0 1.7.452 3.337 1.313 4.776zM2.539 5.793h17.49a16.527 16.527 0 0 1 3.72-3.257H2.667a.129.129 0 0 0-.128.128zm0 33.132h10.096V22.5c0-.706.568-1.278 1.27-1.278h2.927a16.448 16.448 0 0 1-.7-4.776c0-2.941.77-5.705 2.118-8.098H2.54zm59.922 2.555H2.539v5.802c0 .07.058.128.128.128h59.665a.129.129 0 0 0 .129-.128zm0-33.13H46.749a16.443 16.443 0 0 1 2.12 8.097c0 1.636-.236 3.236-.701 4.776h2.928c.7 0 1.27.572 1.27 1.278v16.423H62.46zm0-5.686a.129.129 0 0 0-.129-.128H41.251a16.528 16.528 0 0 1 3.72 3.257h17.49zM49.826 23.78H15.174v15.146h34.652zM28.232 29.34v.08c0 2.693-1.653 3.718-3.766 3.718h-1.515V36.6c0 .513-.597.77-1.194.77s-1.194-.257-1.194-.77V26.408c0-.401.352-.754.888-.754h3.169c2.02 0 3.612.994 3.612 3.686zm-2.388.096c0-1.09-.52-1.602-1.378-1.602h-1.515v3.381h1.515c.858 0 1.378-.513 1.378-1.602zm10.99 6.908c0 .593-.872 1.025-1.53 1.025-.383 0-.689-.128-.78-.464l-.521-2.004h-3.23l-.52 2.004c-.093.336-.399.464-.781.464-.659 0-1.531-.432-1.531-1.025 0-.048.015-.112.03-.176l2.848-9.776c.168-.561.857-.834 1.561-.834s1.393.273 1.562.834l2.862 9.776c.015.063.03.127.03.176zm-3.336-3.366l-1.118-4.294-1.117 4.294zm11.358-6.298c0 .048 0 .112-.031.176l-3.153 5.497a.428.428 0 0 0-.062.225V36.6c0 .513-.597.77-1.194.77s-1.194-.257-1.194-.77v-4.022a.43.43 0 0 0-.06-.225l-3.17-5.497c-.03-.064-.03-.128-.03-.176 0-.593.964-1.026 1.623-1.026.382 0 .52.16.688.465l2.143 4.119 2.128-4.119c.153-.304.306-.465.689-.465.658 0 1.623.433 1.623 1.026zM32.08 13.107c-.619.13-.88.462-.88.807 0 .419.357.678.88.909zm1.611 5.405c0-.476-.344-.778-.84-1.023v1.93c.468-.115.84-.389.84-.907z"/><path fill="url(#4ahea)" d="M18.527 44.445a1.291 1.291 0 0 1-.564 1.062 1.253 1.253 0 0 1-.457.19 1.239 1.239 0 0 1-.953-.19 1.285 1.285 0 0 1-.193-1.965 1.23 1.23 0 0 1 .412-.276 1.243 1.243 0 0 1 .971 0 1.252 1.252 0 0 1 .687.691 1.292 1.292 0 0 1 .097.488zm30.485 0c0 .706-.569 1.278-1.27 1.278H22.5c-.701 0-1.27-.572-1.27-1.278 0-.706.569-1.278 1.27-1.278h25.242c.701 0 1.27.572 1.27 1.278zm-2.683-27.998c0-7.67-6.203-13.911-13.829-13.911s-13.83 6.24-13.83 13.911c0 1.647.282 3.25.84 4.776h2.217a11.854 11.854 0 0 1-.996-4.776c0-6.528 5.28-11.84 11.77-11.84 6.488 0 11.768 5.312 11.768 11.84 0 1.664-.34 3.283-.996 4.776h2.217c.558-1.526.84-3.129.84-4.776zM65 2.664v44.618a2.68 2.68 0 0 1-2.667 2.684H2.668A2.679 2.679 0 0 1 0 47.282V2.664A2.68 2.68 0 0 1 2.668-.02h59.664A2.68 2.68 0 0 1 65 2.664zM24.584 21.223h5.978c-.96-.341-1.62-.972-1.62-1.616 0-.49.414-1.21.937-1.21.578 0 1.046.85 2.064 1.037V17.1c-1.266-.504-2.753-1.123-2.753-2.968 0-1.83 1.294-2.71 2.753-2.926v-.403c0-.202.22-.39.524-.39.261 0 .523.188.523.39v.36c.853.029 2.464.26 2.464 1.254 0 .389-.248 1.182-.854 1.182-.454 0-.715-.461-1.61-.534v2.104c1.252.49 2.712 1.168 2.712 3.113 0 1.494-.77 2.494-1.962 2.942h6.678a9.266 9.266 0 0 0 1.313-4.776c0-5.12-4.14-9.284-9.23-9.284-5.09 0-9.23 4.165-9.23 9.284 0 1.7.452 3.337 1.313 4.776zM2.539 5.793h17.49a16.527 16.527 0 0 1 3.72-3.257H2.667a.129.129 0 0 0-.128.128zm0 33.132h10.096V22.5c0-.706.568-1.278 1.27-1.278h2.927a16.448 16.448 0 0 1-.7-4.776c0-2.941.77-5.705 2.118-8.098H2.54zm59.922 2.555H2.539v5.802c0 .07.058.128.128.128h59.665a.129.129 0 0 0 .129-.128zm0-33.13H46.749a16.443 16.443 0 0 1 2.12 8.097c0 1.636-.236 3.236-.701 4.776h2.928c.7 0 1.27.572 1.27 1.278v16.423H62.46zm0-5.686a.129.129 0 0 0-.129-.128H41.251a16.528 16.528 0 0 1 3.72 3.257h17.49zM49.826 23.78H15.174v15.146h34.652zM28.232 29.34v.08c0 2.693-1.653 3.718-3.766 3.718h-1.515V36.6c0 .513-.597.77-1.194.77s-1.194-.257-1.194-.77V26.408c0-.401.352-.754.888-.754h3.169c2.02 0 3.612.994 3.612 3.686zm-2.388.096c0-1.09-.52-1.602-1.378-1.602h-1.515v3.381h1.515c.858 0 1.378-.513 1.378-1.602zm10.99 6.908c0 .593-.872 1.025-1.53 1.025-.383 0-.689-.128-.78-.464l-.521-2.004h-3.23l-.52 2.004c-.093.336-.399.464-.781.464-.659 0-1.531-.432-1.531-1.025 0-.048.015-.112.03-.176l2.848-9.776c.168-.561.857-.834 1.561-.834s1.393.273 1.562.834l2.862 9.776c.015.063.03.127.03.176zm-3.336-3.366l-1.118-4.294-1.117 4.294zm11.358-6.298c0 .048 0 .112-.031.176l-3.153 5.497a.428.428 0 0 0-.062.225V36.6c0 .513-.597.77-1.194.77s-1.194-.257-1.194-.77v-4.022a.43.43 0 0 0-.06-.225l-3.17-5.497c-.03-.064-.03-.128-.03-.176 0-.593.964-1.026 1.623-1.026.382 0 .52.16.688.465l2.143 4.119 2.128-4.119c.153-.304.306-.465.689-.465.658 0 1.623.433 1.623 1.026zM32.08 13.107c-.619.13-.88.462-.88.807 0 .419.357.678.88.909zm1.611 5.405c0-.476-.344-.778-.84-1.023v1.93c.468-.115.84-.389.84-.907z"/></g></g></svg>