<svg xmlns="http://www.w3.org/2000/svg" viewBox="0 0 65 65">
  <linearGradient id="gradient" gradientUnits="userSpaceOnUse">
    <stop offset="0%" stop-color="#821DC9"/>
    <stop offset="100%" stop-color="#4600CD"/>
  </linearGradient>
  <g fill="url(#gradient)">
    <path d="M60.3,31.2h-9.4v-30c0-0.5-0.3-1-0.8-1.2c-0.5-0.2-1-0.1-1.4,0.3L45.1,4l-3.6-3.6
		c-0.5-0.5-1.3-0.5-1.8,0L36.2,4l-3.6-3.6c-0.5-0.5-1.3-0.5-1.8,0L27.2,4l-3.6-3.6c-0.5-0.5-1.3-0.5-1.8,0L18.2,4l-3.6-3.6
		c-0.5-0.5-1.3-0.5-1.8,0L9.2,4L5.6,0.4c-0.5-0.5-1.3-0.5-1.8,0C3.5,0.6,3.4,1,3.4,1.3v57.1c0,3.6,3,6.6,6.6,6.6H55c0,0,0,0,0,0
		c0,0,0,0,0,0c3.6,0,6.6-3,6.6-6.6V32.5C61.6,31.8,61,31.2,60.3,31.2z M10,62.5c-2.2,0-4.1-1.8-4.1-4.1V4.3l2.3,2.3
		c0.5,0.5,1.3,0.5,1.8,0l3.6-3.6l3.6,3.6c0.5,0.5,1.3,0.5,1.8,0l3.6-3.6l3.6,3.6c0.5,0.5,1.3,0.5,1.8,0l3.6-3.6l3.6,3.6
		c0.5,0.5,1.3,0.5,1.8,0l3.6-3.6l3.6,3.6c0.5,0.5,1.3,0.5,1.8,0l2.3-2.3v28.2c0,0,0,0,0,0v25.9c0,1.5,0.5,2.9,1.4,4.1H10z M59,58.4
		c0,2.2-1.8,4.1-4.1,4.1c-2.2,0-4.1-1.8-4.1-4.1V33.8H59C59,33.8,59,58.4,59,58.4z"/>
    <path d="M37.4,22.7h2.5c0.7,0,1.3-0.6,1.3-1.3c0-0.7-0.6-1.3-1.3-1.3h-2.5
		c-0.7,0-1.3,0.6-1.3,1.3C36.2,22.1,36.7,22.7,37.4,22.7z"/>
    <path d="M16.9,20.2h-2.5c-0.7,0-1.3,0.6-1.3,1.3c0,0.7,0.6,1.3,1.3,1.3h2.5
		c0.7,0,1.3-0.6,1.3-1.3C18.2,20.7,17.6,20.2,16.9,20.2z"/>
    <path d="M40.6,34.3H20.5c-0.7,0-1.3,0.6-1.3,1.3c0,0.7,0.6,1.3,1.3,1.3h20.1
		c0.7,0,1.3-0.6,1.3-1.3C41.8,34.8,41.3,34.3,40.6,34.3z"/>
    <path d="M13.8,34.3c-0.3,0-0.7,0.1-0.9,0.4s-0.4,0.6-0.4,0.9c0,0.3,0.1,0.7,0.4,0.9
		s0.6,0.4,0.9,0.4c0.3,0,0.7-0.1,0.9-0.4s0.4-0.6,0.4-0.9c0-0.3-0.1-0.7-0.4-0.9S14.1,34.3,13.8,34.3z"/>
    <path d="M40.6,42.7H20.5c-0.7,0-1.3,0.6-1.3,1.3c0,0.7,0.6,1.3,1.3,1.3h20.1
		c0.7,0,1.3-0.6,1.3-1.3C41.8,43.2,41.3,42.7,40.6,42.7z"/>
    <path d="M13.8,42.7c-0.3,0-0.7,0.1-0.9,0.4s-0.4,0.6-0.4,0.9c0,0.3,0.1,0.7,0.4,0.9
		s0.6,0.4,0.9,0.4c0.3,0,0.7-0.1,0.9-0.4s0.4-0.6,0.4-0.9c0-0.3-0.1-0.7-0.4-0.9S14.1,42.7,13.8,42.7z"/>
    <path d="M40.6,51H20.5c-0.7,0-1.3,0.6-1.3,1.3s0.6,1.3,1.3,1.3h20.1
		c0.7,0,1.3-0.6,1.3-1.3S41.3,51,40.6,51z"/>
    <path d="M13.8,51c-0.3,0-0.7,0.1-0.9,0.4c-0.2,0.2-0.4,0.6-0.4,0.9c0,0.3,0.1,0.7,0.4,0.9
		s0.6,0.4,0.9,0.4c0.3,0,0.7-0.1,0.9-0.4s0.4-0.6,0.4-0.9c0-0.3-0.1-0.7-0.4-0.9C14.4,51.2,14.1,51,13.8,51z"/>
    <path d="M21.1,26.3h2.3v2.9c0,0.1,0,0.2,0.1,0.2c0.1,0.1,0.1,0.1,0.2,0.1h1.7
		c0.1,0,0.2,0,0.2-0.1c0.1-0.1,0.1-0.1,0.1-0.2v-2.9h5.1c0.1,0,0.2,0,0.2-0.1c0.1-0.1,0.1-0.1,0.1-0.2v-1.3c0-0.1,0-0.2-0.1-0.2
		c-0.1-0.1-0.1-0.1-0.2-0.1h-5.1v-2.2h3.5c1.4,0,2.5-0.4,3.3-1.2c0.9-0.8,1.3-1.9,1.3-3.1c0-1.3-0.4-2.3-1.3-3.1
		c-0.9-0.8-2-1.2-3.3-1.2h-5.5c-0.1,0-0.2,0-0.2,0.1c-0.1,0.1-0.1,0.1-0.1,0.2v6.3h-2.3c-0.1,0-0.2,0-0.2,0.1
		c-0.1,0.1-0.1,0.1-0.1,0.2v1.5c0,0.1,0,0.2,0.1,0.2c0.1,0.1,0.1,0.1,0.2,0.1h2.3v2.2h-2.3c-0.1,0-0.2,0-0.2,0.1
		c-0.1,0.1-0.1,0.1-0.1,0.2V26c0,0.1,0,0.2,0.1,0.2C20.9,26.3,21,26.3,21.1,26.3z M25.7,15.7H29c0.7,0,1.3,0.2,1.7,0.6
		c0.4,0.4,0.7,0.9,0.7,1.6c0,0.7-0.2,1.2-0.7,1.6c-0.4,0.4-1,0.6-1.7,0.6h-3.3V15.7z"/>
  </g>
</svg>
