<svg xmlns="http://www.w3.org/2000/svg" width="58" height="65" viewBox="0 0 58 65"><defs><linearGradient id="bgv1a" x1="0" x2="58" y1="33" y2="32.12" gradientUnits="userSpaceOnUse"><stop offset="0" stop-color="#821dc9"/><stop offset="1" stop-color="#4600cd"/></linearGradient></defs><g><g><path fill="#821dc9" d="M57.996 32.56v25.85c0 3.634-2.954 6.59-6.584 6.59H6.585C2.954 65 0 62.043 0 58.41V1.42A1.265 1.265 0 0 1 2.16.49l3.587 3.59L9.334.49a1.266 1.266 0 0 1 1.791 0l3.587 3.59L18.3.49a1.266 1.266 0 0 1 1.79 0l3.588 3.59L27.265.49a1.266 1.266 0 0 1 1.791 0l3.587 3.59L36.23.49a1.266 1.266 0 0 1 1.791 0l3.587 3.59L45.196.49a1.266 1.266 0 0 1 2.162.897v29.905h9.372c.7 0 1.266.567 1.266 1.267zM46.228 62.464a6.558 6.558 0 0 1-1.4-4.055V32.594l-.002-.035V4.446l-2.321 2.322a1.265 1.265 0 0 1-1.791 0l-3.588-3.59-3.587 3.59a1.266 1.266 0 0 1-1.79 0l-3.588-3.59-3.587 3.59a1.265 1.265 0 0 1-1.791 0l-3.588-3.59-3.587 3.59a1.265 1.265 0 0 1-1.79 0l-3.588-3.59-3.587 3.59a1.266 1.266 0 0 1-1.791 0l-2.32-2.32V58.41a4.058 4.058 0 0 0 4.053 4.055zm9.236-28.638h-8.105V58.41a4.058 4.058 0 0 0 4.052 4.055 4.058 4.058 0 0 0 4.053-4.055zm-17.797-12.31c0 .7-.567 1.267-1.266 1.267h-2.468a1.266 1.266 0 0 1 0-2.534h2.468c.7 0 1.266.567 1.266 1.267zm-22.976 0c0 .7-.567 1.267-1.266 1.267h-2.468a1.267 1.267 0 0 1 0-2.534h2.468c.7 0 1.266.567 1.266 1.267zm23.617 14.085c0 .7-.567 1.267-1.266 1.267H16.98a1.267 1.267 0 0 1 0-2.535h20.062c.7 0 1.266.568 1.266 1.268zm-26.726 0c0 .333-.136.66-.371.895a1.275 1.275 0 0 1-.895.372c-.334 0-.66-.136-.896-.372a1.277 1.277 0 0 1-.37-.895c0-.334.135-.66.37-.896.236-.236.562-.372.896-.372.333 0 .66.136.895.372.235.235.37.562.37.896zm26.726 8.363c0 .7-.567 1.267-1.266 1.267H16.98a1.267 1.267 0 0 1 0-2.534h20.062c.7 0 1.266.567 1.266 1.267zm-26.726 0c0 .333-.136.66-.371.896a1.275 1.275 0 0 1-.895.37c-.334 0-.66-.135-.896-.37a1.277 1.277 0 0 1-.37-.896c0-.333.135-.66.37-.896.236-.236.562-.371.896-.371.333 0 .66.135.895.37.235.237.37.564.37.897zm26.726 8.363c0 .7-.567 1.267-1.266 1.267H16.98a1.267 1.267 0 0 1 0-2.534h20.062c.7 0 1.266.567 1.266 1.267zm-26.726 0c0 .333-.136.66-.371.896a1.275 1.275 0 0 1-.895.371c-.334 0-.66-.136-.896-.371a1.277 1.277 0 0 1-.37-.896c0-.333.135-.66.37-.896.236-.236.562-.371.896-.371.333 0 .66.135.895.371s.37.563.37.896zm5.51-26.645a.306.306 0 0 1-.092-.229v-1.273c0-.092.03-.168.091-.228a.32.32 0 0 1 .234-.09H19.6V21.69h-2.275a.32.32 0 0 1-.234-.09.306.306 0 0 1-.091-.228V19.89c0-.086.03-.16.091-.223a.31.31 0 0 1 .234-.095H19.6v-6.254a.307.307 0 0 1 .325-.318h5.474c1.354 0 2.46.405 3.316 1.213.857.809 1.285 1.853 1.285 3.132 0 1.28-.428 2.324-1.285 3.132-.857.809-1.962 1.213-3.316 1.213h-3.453v2.173h5.129a.32.32 0 0 1 .234.09c.06.06.091.136.091.228v1.273c0 .093-.03.17-.091.23a.32.32 0 0 1-.234.088h-5.129v2.91a.296.296 0 0 1-.096.228.324.324 0 0 1-.229.09h-1.696a.32.32 0 0 1-.233-.09.304.304 0 0 1-.092-.228v-2.91h-2.275a.32.32 0 0 1-.234-.089zm4.854-6.11h3.25c.718 0 1.296-.206 1.737-.617.44-.41.66-.948.66-1.611s-.22-1.2-.66-1.61c-.44-.411-1.02-.617-1.737-.617h-3.25z"/><path fill="url(#bgv1a)" d="M57.996 32.56v25.85c0 3.634-2.954 6.59-6.584 6.59H6.585C2.954 65 0 62.043 0 58.41V1.42A1.265 1.265 0 0 1 2.16.49l3.587 3.59L9.334.49a1.266 1.266 0 0 1 1.791 0l3.587 3.59L18.3.49a1.266 1.266 0 0 1 1.79 0l3.588 3.59L27.265.49a1.266 1.266 0 0 1 1.791 0l3.587 3.59L36.23.49a1.266 1.266 0 0 1 1.791 0l3.587 3.59L45.196.49a1.266 1.266 0 0 1 2.162.897v29.905h9.372c.7 0 1.266.567 1.266 1.267zM46.228 62.464a6.558 6.558 0 0 1-1.4-4.055V32.594l-.002-.035V4.446l-2.321 2.322a1.265 1.265 0 0 1-1.791 0l-3.588-3.59-3.587 3.59a1.266 1.266 0 0 1-1.79 0l-3.588-3.59-3.587 3.59a1.265 1.265 0 0 1-1.791 0l-3.588-3.59-3.587 3.59a1.265 1.265 0 0 1-1.79 0l-3.588-3.59-3.587 3.59a1.266 1.266 0 0 1-1.791 0l-2.32-2.32V58.41a4.058 4.058 0 0 0 4.053 4.055zm9.236-28.638h-8.105V58.41a4.058 4.058 0 0 0 4.052 4.055 4.058 4.058 0 0 0 4.053-4.055zm-17.797-12.31c0 .7-.567 1.267-1.266 1.267h-2.468a1.266 1.266 0 0 1 0-2.534h2.468c.7 0 1.266.567 1.266 1.267zm-22.976 0c0 .7-.567 1.267-1.266 1.267h-2.468a1.267 1.267 0 0 1 0-2.534h2.468c.7 0 1.266.567 1.266 1.267zm23.617 14.085c0 .7-.567 1.267-1.266 1.267H16.98a1.267 1.267 0 0 1 0-2.535h20.062c.7 0 1.266.568 1.266 1.268zm-26.726 0c0 .333-.136.66-.371.895a1.275 1.275 0 0 1-.895.372c-.334 0-.66-.136-.896-.372a1.277 1.277 0 0 1-.37-.895c0-.334.135-.66.37-.896.236-.236.562-.372.896-.372.333 0 .66.136.895.372.235.235.37.562.37.896zm26.726 8.363c0 .7-.567 1.267-1.266 1.267H16.98a1.267 1.267 0 0 1 0-2.534h20.062c.7 0 1.266.567 1.266 1.267zm-26.726 0c0 .333-.136.66-.371.896a1.275 1.275 0 0 1-.895.37c-.334 0-.66-.135-.896-.37a1.277 1.277 0 0 1-.37-.896c0-.333.135-.66.37-.896.236-.236.562-.371.896-.371.333 0 .66.135.895.37.235.237.37.564.37.897zm26.726 8.363c0 .7-.567 1.267-1.266 1.267H16.98a1.267 1.267 0 0 1 0-2.534h20.062c.7 0 1.266.567 1.266 1.267zm-26.726 0c0 .333-.136.66-.371.896a1.275 1.275 0 0 1-.895.371c-.334 0-.66-.136-.896-.371a1.277 1.277 0 0 1-.37-.896c0-.333.135-.66.37-.896.236-.236.562-.371.896-.371.333 0 .66.135.895.371s.37.563.37.896zm5.51-26.645a.306.306 0 0 1-.092-.229v-1.273c0-.092.03-.168.091-.228a.32.32 0 0 1 .234-.09H19.6V21.69h-2.275a.32.32 0 0 1-.234-.09.306.306 0 0 1-.091-.228V19.89c0-.086.03-.16.091-.223a.31.31 0 0 1 .234-.095H19.6v-6.254a.307.307 0 0 1 .325-.318h5.474c1.354 0 2.46.405 3.316 1.213.857.809 1.285 1.853 1.285 3.132 0 1.28-.428 2.324-1.285 3.132-.857.809-1.962 1.213-3.316 1.213h-3.453v2.173h5.129a.32.32 0 0 1 .234.09c.06.06.091.136.091.228v1.273c0 .093-.03.17-.091.23a.32.32 0 0 1-.234.088h-5.129v2.91a.296.296 0 0 1-.096.228.324.324 0 0 1-.229.09h-1.696a.32.32 0 0 1-.233-.09.304.304 0 0 1-.092-.228v-2.91h-2.275a.32.32 0 0 1-.234-.089zm4.854-6.11h3.25c.718 0 1.296-.206 1.737-.617.44-.41.66-.948.66-1.611s-.22-1.2-.66-1.61c-.44-.411-1.02-.617-1.737-.617h-3.25z"/></g></g></svg>