<svg xmlns="http://www.w3.org/2000/svg" width="65" height="65" viewBox="0 0 65 65"><defs><linearGradient id="ptxla" x1="0" x2="65" y1="32" y2="33" gradientUnits="userSpaceOnUse"><stop offset="0" stop-color="#821dc9"/><stop offset="1" stop-color="#4600cd"/></linearGradient></defs><g><g><path fill="#821dc9" d="M58.215 46.374a1.269 1.269 0 0 1-.703-.213 1.283 1.283 0 0 1-.54-.807 1.24 1.24 0 0 1 0-.497 1.275 1.275 0 0 1 .54-.807 1.3 1.3 0 0 1 .456-.189 1.243 1.243 0 0 1 .734.072 1.31 1.31 0 0 1 .413.274 1.257 1.257 0 0 1 .347.65 1.261 1.261 0 0 1-.76 1.42 1.263 1.263 0 0 1-.486.098zM65 24.434v27.337a1.27 1.27 0 0 1-1.27 1.27H43.78v10.69A1.27 1.27 0 0 1 42.509 65h-9.07c-.7 0-1.27-.568-1.27-1.27V53.04H10.184a1.27 1.27 0 0 1-1.27-1.269v-5.397H2.505A2.508 2.508 0 0 1 0 43.87V23.804a2.508 2.508 0 0 1 2.505-2.505h6.892a10.317 10.317 0 0 1 9.856-7.204h25.194V1.27c0-.7.568-1.27 1.27-1.27h12.695A1.27 1.27 0 0 1 59.5 1.923l-2.149 3.587 2.149 3.587a1.27 1.27 0 0 1-1.09 1.922H46.987v3.077h7.674c5.702 0 10.34 4.638 10.34 10.34zM46.986 8.48h9.185L54.783 6.16a1.269 1.269 0 0 1 0-1.304l1.388-2.318h-9.185zm-34.88 12.82h14.29c-1.21-2.745-3.957-4.665-7.143-4.665a7.784 7.784 0 0 0-7.147 4.665zm14.948 7.364l-5.295 5.175 5.295 5.175zM5.709 23.838l11.323 11.07 10.021-9.796v-.677c0-.201-.007-.4-.022-.597zm-3.17 19.545l9.766-9.545-9.766-9.549zm3.17.453h21.344v-1.272l-7.111-6.95-2.023 1.977a1.267 1.267 0 0 1-1.775 0l-2.022-1.977zm5.743 6.666h15.602v-4.128H11.452zM41.24 53.04h-6.531v9.42h6.53zm21.22-28.606c0-4.302-3.498-7.801-7.8-7.801h-7.674v1.608a5.503 5.503 0 0 1 4.225 5.346 5.5 5.5 0 0 1-5.494 5.494 5.5 5.5 0 0 1-5.495-5.494 5.503 5.503 0 0 1 4.225-5.346v-1.608H26.033a10.32 10.32 0 0 1 3.56 7.8v19.401h23.164a1.27 1.27 0 0 1 0 2.54H29.593v4.127H62.46zM44.448 22.7v-1.782a2.96 2.96 0 0 0-1.686 2.669 2.958 2.958 0 0 0 2.956 2.955 2.959 2.959 0 0 0 2.955-2.955 2.96 2.96 0 0 0-1.686-2.669v1.782a1.27 1.27 0 1 1-2.54 0z"/><path fill="url(#ptxla)" d="M58.215 46.374a1.269 1.269 0 0 1-.703-.213 1.283 1.283 0 0 1-.54-.807 1.24 1.24 0 0 1 0-.497 1.275 1.275 0 0 1 .54-.807 1.3 1.3 0 0 1 .456-.189 1.243 1.243 0 0 1 .734.072 1.31 1.31 0 0 1 .413.274 1.257 1.257 0 0 1 .347.65 1.261 1.261 0 0 1-.76 1.42 1.263 1.263 0 0 1-.486.098zM65 24.434v27.337a1.27 1.27 0 0 1-1.27 1.27H43.78v10.69A1.27 1.27 0 0 1 42.509 65h-9.07c-.7 0-1.27-.568-1.27-1.27V53.04H10.184a1.27 1.27 0 0 1-1.27-1.269v-5.397H2.505A2.508 2.508 0 0 1 0 43.87V23.804a2.508 2.508 0 0 1 2.505-2.505h6.892a10.317 10.317 0 0 1 9.856-7.204h25.194V1.27c0-.7.568-1.27 1.27-1.27h12.695A1.27 1.27 0 0 1 59.5 1.923l-2.149 3.587 2.149 3.587a1.27 1.27 0 0 1-1.09 1.922H46.987v3.077h7.674c5.702 0 10.34 4.638 10.34 10.34zM46.986 8.48h9.185L54.783 6.16a1.269 1.269 0 0 1 0-1.304l1.388-2.318h-9.185zm-34.88 12.82h14.29c-1.21-2.745-3.957-4.665-7.143-4.665a7.784 7.784 0 0 0-7.147 4.665zm14.948 7.364l-5.295 5.175 5.295 5.175zM5.709 23.838l11.323 11.07 10.021-9.796v-.677c0-.201-.007-.4-.022-.597zm-3.17 19.545l9.766-9.545-9.766-9.549zm3.17.453h21.344v-1.272l-7.111-6.95-2.023 1.977a1.267 1.267 0 0 1-1.775 0l-2.022-1.977zm5.743 6.666h15.602v-4.128H11.452zM41.24 53.04h-6.531v9.42h6.53zm21.22-28.606c0-4.302-3.498-7.801-7.8-7.801h-7.674v1.608a5.503 5.503 0 0 1 4.225 5.346 5.5 5.5 0 0 1-5.494 5.494 5.5 5.5 0 0 1-5.495-5.494 5.503 5.503 0 0 1 4.225-5.346v-1.608H26.033a10.32 10.32 0 0 1 3.56 7.8v19.401h23.164a1.27 1.27 0 0 1 0 2.54H29.593v4.127H62.46zM44.448 22.7v-1.782a2.96 2.96 0 0 0-1.686 2.669 2.958 2.958 0 0 0 2.956 2.955 2.959 2.959 0 0 0 2.955-2.955 2.96 2.96 0 0 0-1.686-2.669v1.782a1.27 1.27 0 1 1-2.54 0z"/></g></g></svg>