<?xml version="1.0" encoding="utf-8"?>
<!-- Generator: Adobe Illustrator 18.1.1, SVG Export Plug-In . SVG Version: 6.00 Build 0)  -->
<svg version="1.1" id="Слой_1" xmlns="http://www.w3.org/2000/svg" xmlns:xlink="http://www.w3.org/1999/xlink" x="0px" y="0px"
	 viewBox="0 0 65 65" enable-background="new 0 0 65 65" xml:space="preserve">
<g id="_x30_19---Languages">
	<linearGradient id="Shape_1_" gradientUnits="userSpaceOnUse" x1="0" y1="32.4989" x2="65" y2="32.4989">
		<stop  offset="0" style="stop-color:#821DC9"/>
		<stop  offset="1" style="stop-color:#4600CD"/>
	</linearGradient>
	<path id="Shape_5_" fill="url(#Shape_1_)" d="M0,7.6v45.5c0,4.2,3.4,7.6,7.6,7.6h2.2v2.2c0,0.8,0.4,1.5,1,1.8
		c0.6,0.4,1.4,0.4,2.1,0.1l2.3-1.1l2.3,1.1c0.7,0.3,1.5,0.3,2.1-0.1c0.6-0.4,1-1.1,1-1.8v-2.2h26c1.8,0,3.3-1.5,3.3-3.3v-3.3h13
		c1.2,0,2.2-1,2.2-2.2V41.2c0-1.2-1-2.2-2.2-2.2h-13v-2.2h13c1.2,0,2.2-1,2.2-2.2V23.8c0-1.2-1-2.2-2.2-2.2h-13v-2.2h13
		c1.2,0,2.2-1,2.2-2.2V6.5c0-1.2-1-2.2-2.2-2.2h-13V3.2c0-1.8-1.5-3.3-3.3-3.3h-39C3.4,0,0,3.4,0,7.6z M2.2,7.6c0-2.2,1.3-4.1,3.2-5
		v43.2c-1.2,0.4-2.4,1-3.2,2V7.6z M16.1,61.7c-0.6-0.3-1.3-0.3-1.9,0l-2.3,1.1v-8.7h6.5v8.7L16.1,61.7z M20.6,54.2h4.3
		c0.6,0,1.1-0.5,1.1-1.1S25.5,52,24.9,52H6.5c-0.6,0-1.1,0.5-1.1,1.1s0.5,1.1,1.1,1.1h3.3v4.3H7.6c-3,0-5.4-2.4-5.4-5.4
		s2.4-5.4,5.4-5.4h34.9c-1.8,3.4-1.8,7.4,0,10.8H20.6V54.2z M49.6,45.5h13.2v2.2H46.6C48,47.7,49.2,46.8,49.6,45.5z M47.7,57.4
		c0,0.6-0.5,1.1-1.1,1.1H45c-0.9-1.3-1.4-2.8-1.6-4.3h4.3L47.7,57.4z M43.4,52c0.1-0.7,0.3-1.5,0.5-2.2h18.9V52H43.4z M62.8,41.2
		v2.2h-13v-2.2H62.8z M62.8,23.8v10.8h-13V23.8H62.8z M54.2,17.3V6.5h3.3v10.8H54.2z M62.8,17.3h-3.3V6.5h3.3V17.3z M52,6.5v10.8
		h-2.2V6.5H52z M47.7,3.2v41.2c0,0.6-0.5,1.1-1.1,1.1h-39V2.2h39C47.2,2.2,47.7,2.6,47.7,3.2z"/>
	<linearGradient id="Shape_6_" gradientUnits="userSpaceOnUse" x1="53.0833" y1="29.2479" x2="59.5833" y2="29.2479">
		<stop  offset="0" style="stop-color:#821DC9"/>
		<stop  offset="1" style="stop-color:#4600CD"/>
	</linearGradient>
	<path id="Shape_4_" fill="url(#Shape_6_)" d="M56.3,32.5c1.8,0,3.3-1.5,3.3-3.3c0-1.8-1.5-3.3-3.3-3.3c-1.8,0-3.3,1.5-3.3,3.3
		C53.1,31,54.5,32.5,56.3,32.5z M56.3,28.2c0.6,0,1.1,0.5,1.1,1.1c0,0.6-0.5,1.1-1.1,1.1c-0.6,0-1.1-0.5-1.1-1.1
		C55.3,28.6,55.7,28.2,56.3,28.2z"/>
	<linearGradient id="Shape_7_" gradientUnits="userSpaceOnUse" x1="11.9181" y1="20.0432" x2="43.3212" y2="20.0432">
		<stop  offset="0" style="stop-color:#821DC9"/>
		<stop  offset="1" style="stop-color:#4600CD"/>
	</linearGradient>
	<path id="Shape_2_" fill="url(#Shape_7_)" d="M19.1,33.2C19.1,33.2,19.2,33.3,19.1,33.2c7.1,4.5,16.4,2.7,21.2-4
		c4.9-6.7,3.6-16.1-2.8-21.4S21.6,3.3,16,9.5c-0.1,0-0.1,0.1-0.1,0.2c-3,3.4-4.4,8-3.8,12.5C12.7,26.7,15.3,30.8,19.1,33.2
		L19.1,33.2z M14.4,17.3c0.6,0.8,1.3,1.4,2.3,1.8c1.8,0.7,3.9,0.5,3.8,1.7c-0.1,0.8-0.3,1.6-0.7,2.3c-1,2.5-0.9,3.3-0.6,5
		c0.2,0.8,0.2,1.6,0,2.5C15.2,27.4,13.3,22.3,14.4,17.3L14.4,17.3z M26.4,33.5c2-1.1,4.4-1.4,6.6-1.1C30.9,33.4,28.6,33.7,26.4,33.5
		L26.4,33.5z M35.8,30.8c-2.5-0.7-5.2-0.8-7.8-0.2c-1.7,0.4-3.2,1.2-4.5,2.4c-0.8-0.3-1.6-0.6-2.4-1c0.4-1.3,0.5-2.8,0.2-4.1
		C21,26.4,21,26,21.8,23.9c0.4-0.9,0.7-1.9,0.8-3c0.1-1.3-0.6-2.5-1.8-2.9c-2.2-1-4.5-0.1-5.5-3.7c0.5-1.1,1.1-2.1,1.9-3
		c2.2,0,4.3-0.3,6.4-0.8c2.3-0.5,4.4-1.9,5.6-4c1,0.1,2,0.4,3,0.7c-0.9,0.8-2,1.4-3.1,1.9c-1.7,0.7-2.9,2.1-3.4,3.8
		c-0.5,2.6,1.8,4.3,4,4.8c5.6,1.2,1.4,5.7,1.3,8.7c0,0.9,0.3,1.7,0.9,2.3c0.6,0.6,1.5,0.9,2.3,0.9c1.5-0.1,2.9-0.7,4.1-1.6
		C37.7,29.1,36.8,30,35.8,30.8L35.8,30.8z M19.7,9.1c2-1.5,4.4-2.3,6.8-2.5C24.9,8.3,22.3,8.8,19.7,9.1z M40.3,24.8
		c-2.8,0.8-3.8,2.4-5.6,2.7c-0.4,0.1-0.8,0-1.1-0.3c-1.1-0.9,1.3-3.8,1.3-6.7c0-2.4-1.7-4.2-4.6-4.8c-0.1,0-2.7-0.6-2.4-2.3
		c0.3-1,1.1-1.8,2.1-2.2c1.6-0.7,3.1-1.6,4.3-2.9C40.1,11.6,42.6,18.6,40.3,24.8L40.3,24.8z"/>
	<linearGradient id="Shape_8_" gradientUnits="userSpaceOnUse" x1="17.3333" y1="38.9979" x2="37.9167" y2="38.9979">
		<stop  offset="0" style="stop-color:#821DC9"/>
		<stop  offset="1" style="stop-color:#4600CD"/>
	</linearGradient>
	<path id="Shape_3_" fill="url(#Shape_8_)" d="M36.8,37.9H18.4c-0.6,0-1.1,0.5-1.1,1.1s0.5,1.1,1.1,1.1h18.4c0.6,0,1.1-0.5,1.1-1.1
		S37.4,37.9,36.8,37.9z"/>
</g>
</svg>
