<?xml version="1.0" encoding="utf-8"?>
<!-- Generator: Adobe Illustrator 18.1.1, SVG Export Plug-In . SVG Version: 6.00 Build 0)  -->
<svg version="1.1" id="Слой_1" xmlns="http://www.w3.org/2000/svg" xmlns:xlink="http://www.w3.org/1999/xlink" x="0px" y="0px"
	 viewBox="0 0 65 65" enable-background="new 0 0 65 65" xml:space="preserve">
<g>
	<g>
		<linearGradient id="SVGID_1_" gradientUnits="userSpaceOnUse" x1="4.4167" y1="32.516" x2="60.505" y2="32.516">
			<stop  offset="0" style="stop-color:#821DC9"/>
			<stop  offset="1" style="stop-color:#4600CD"/>
		</linearGradient>
		<path fill="url(#SVGID_1_)" d="M55.3,5.4c0-3-2.4-5.4-5.4-5.4H9.7c-3,0-5.4,2.4-5.4,5.4v8.7H13v45.5c0,3,2.4,5.4,5.4,5.4h36.9
			c3,0,5.4-2.4,5.4-5.4v-5.4h-5.4V5.4z M13,11.9H6.5V5.4c0-1.8,1.4-3.3,3.3-3.3S13,3.6,13,5.4V11.9z M15.2,59.6V5.4
			c0-1.2-0.4-2.3-1.1-3.3h35.8c1.8,0,3.3,1.4,3.3,3.3v48.8H21.7v5.4c0,1.8-1.4,3.3-3.3,3.3C16.6,62.9,15.2,61.5,15.2,59.6L15.2,59.6
			z M58.5,56.4v3.3c0,1.8-1.4,3.3-3.3,3.3H22.7c0.8-1,1.1-2.1,1.1-3.3v-3.3H58.5z M58.5,56.4"/>
		<linearGradient id="SVGID_2_" gradientUnits="userSpaceOnUse" x1="4.4167" y1="35.7676" x2="60.505" y2="35.7676">
			<stop  offset="0" style="stop-color:#821DC9"/>
			<stop  offset="1" style="stop-color:#4600CD"/>
		</linearGradient>
		<rect x="42.3" y="34.7" fill="url(#SVGID_2_)" width="8.7" height="2.2"/>
		<linearGradient id="SVGID_3_" gradientUnits="userSpaceOnUse" x1="4.4167" y1="35.7676" x2="60.505" y2="35.7676">
			<stop  offset="0" style="stop-color:#821DC9"/>
			<stop  offset="1" style="stop-color:#4600CD"/>
		</linearGradient>
		<rect x="17.3" y="34.7" fill="url(#SVGID_3_)" width="22.8" height="2.2"/>
		<linearGradient id="SVGID_4_" gradientUnits="userSpaceOnUse" x1="4.4167" y1="40.1031" x2="60.505" y2="40.1031">
			<stop  offset="0" style="stop-color:#821DC9"/>
			<stop  offset="1" style="stop-color:#4600CD"/>
		</linearGradient>
		<rect x="29.2" y="39" fill="url(#SVGID_4_)" width="21.7" height="2.2"/>
		<linearGradient id="SVGID_5_" gradientUnits="userSpaceOnUse" x1="4.4167" y1="40.1031" x2="60.505" y2="40.1031">
			<stop  offset="0" style="stop-color:#821DC9"/>
			<stop  offset="1" style="stop-color:#4600CD"/>
		</linearGradient>
		<rect x="17.3" y="39" fill="url(#SVGID_5_)" width="9.8" height="2.2"/>
		<linearGradient id="SVGID_6_" gradientUnits="userSpaceOnUse" x1="4.4167" y1="48.774" x2="60.505" y2="48.774">
			<stop  offset="0" style="stop-color:#821DC9"/>
			<stop  offset="1" style="stop-color:#4600CD"/>
		</linearGradient>
		<rect x="36.8" y="47.7" fill="url(#SVGID_6_)" width="14.1" height="2.2"/>
		<linearGradient id="SVGID_7_" gradientUnits="userSpaceOnUse" x1="4.4167" y1="48.774" x2="60.505" y2="48.774">
			<stop  offset="0" style="stop-color:#821DC9"/>
			<stop  offset="1" style="stop-color:#4600CD"/>
		</linearGradient>
		<rect x="17.3" y="47.7" fill="url(#SVGID_7_)" width="17.3" height="2.2"/>
		<linearGradient id="SVGID_8_" gradientUnits="userSpaceOnUse" x1="4.4167" y1="44.4386" x2="60.505" y2="44.4386">
			<stop  offset="0" style="stop-color:#821DC9"/>
			<stop  offset="1" style="stop-color:#4600CD"/>
		</linearGradient>
		<rect x="23.8" y="43.4" fill="url(#SVGID_8_)" width="27.1" height="2.2"/>
		<linearGradient id="SVGID_9_" gradientUnits="userSpaceOnUse" x1="4.4167" y1="44.4386" x2="60.505" y2="44.4386">
			<stop  offset="0" style="stop-color:#821DC9"/>
			<stop  offset="1" style="stop-color:#4600CD"/>
		</linearGradient>
		<rect x="17.3" y="43.4" fill="url(#SVGID_9_)" width="4.3" height="2.2"/>
		<linearGradient id="SVGID_10_" gradientUnits="userSpaceOnUse" x1="4.4167" y1="31.4322" x2="60.505" y2="31.4322">
			<stop  offset="0" style="stop-color:#821DC9"/>
			<stop  offset="1" style="stop-color:#4600CD"/>
		</linearGradient>
		<rect x="29.2" y="30.3" fill="url(#SVGID_10_)" width="21.7" height="2.2"/>
		<linearGradient id="SVGID_11_" gradientUnits="userSpaceOnUse" x1="4.4167" y1="31.4322" x2="60.505" y2="31.4322">
			<stop  offset="0" style="stop-color:#821DC9"/>
			<stop  offset="1" style="stop-color:#4600CD"/>
		</linearGradient>
		<rect x="17.3" y="30.3" fill="url(#SVGID_11_)" width="9.8" height="2.2"/>
	</g>
	<g>
		<linearGradient id="SVGID_12_" gradientUnits="userSpaceOnUse" x1="4.8026" y1="15.5867" x2="60.891" y2="15.5867">
			<stop  offset="0" style="stop-color:#821DC9"/>
			<stop  offset="1" style="stop-color:#4600CD"/>
		</linearGradient>
		<path fill="url(#SVGID_12_)" d="M24.8,11.6c-0.7-0.1-1-0.1-1.2-0.1c-0.4,0-0.7,0.1-0.9,0.3c-0.3,0.3-0.3,0.7-0.3,1V13h1.9v1.8
			h-1.9v6.8h-2.5v-6.8h-1.3V13h1.3v-0.2c0-0.7,0.1-1.8,0.8-2.4c0.7-0.6,1.7-0.6,2.1-0.6c0.2,0,1.2,0,2,0.2V11.6z"/>
		<linearGradient id="SVGID_13_" gradientUnits="userSpaceOnUse" x1="4.8026" y1="17.0799" x2="60.891" y2="17.0799">
			<stop  offset="0" style="stop-color:#821DC9"/>
			<stop  offset="1" style="stop-color:#4600CD"/>
		</linearGradient>
		<path fill="url(#SVGID_13_)" d="M25.6,21.5v-8.7h2.2v1.9h0c0.1-0.7,0.4-1.1,0.6-1.4c0.3-0.3,0.8-0.7,1.7-0.7c0.2,0,0.3,0,0.5,0V15
			c-0.1,0-0.3-0.1-0.4-0.1c-0.4,0-0.8,0.1-1.2,0.3c-0.8,0.5-1,1.3-1,2.3v4H25.6z"/>
		<linearGradient id="SVGID_14_" gradientUnits="userSpaceOnUse" x1="4.8026" y1="17.1648" x2="60.891" y2="17.1648">
			<stop  offset="0" style="stop-color:#821DC9"/>
			<stop  offset="1" style="stop-color:#4600CD"/>
		</linearGradient>
		<path fill="url(#SVGID_14_)" d="M40,18.8c-0.3,1.1-0.9,1.7-1.4,2c-0.7,0.5-1.6,0.8-2.8,0.8c-1.4,0-2.5-0.6-3.1-1.2
			c-0.6-0.6-1.2-1.6-1.2-3.3c0-1.9,0.8-3,1.5-3.5c1-0.8,2.1-1,2.9-1c1.6,0,2.7,0.7,3.3,1.4c0.5,0.6,1,1.7,1,3.1v0.4h-6
			c0,0.5,0.1,1,0.3,1.4c0.3,0.5,0.7,0.9,1.5,0.9c0.6,0,1-0.3,1.3-0.5c0.2-0.2,0.4-0.5,0.4-0.8L40,18.8z M37.5,16.2
			c0-0.4-0.1-0.9-0.3-1.2c-0.2-0.3-0.6-0.6-1.3-0.6c-0.5,0-1,0.2-1.3,0.5c-0.3,0.3-0.5,0.8-0.5,1.3H37.5z"/>
		<linearGradient id="SVGID_15_" gradientUnits="userSpaceOnUse" x1="4.8026" y1="17.1648" x2="60.891" y2="17.1648">
			<stop  offset="0" style="stop-color:#821DC9"/>
			<stop  offset="1" style="stop-color:#4600CD"/>
		</linearGradient>
		<path fill="url(#SVGID_15_)" d="M49.8,18.8c-0.3,1.1-0.9,1.7-1.4,2c-0.7,0.5-1.6,0.8-2.8,0.8c-1.4,0-2.5-0.6-3.1-1.2
			c-0.6-0.6-1.2-1.6-1.2-3.3c0-1.9,0.8-3,1.5-3.5c1-0.8,2.1-1,2.9-1c1.6,0,2.7,0.7,3.3,1.4c0.5,0.6,1,1.7,1,3.1v0.4h-6
			c0,0.5,0.1,1,0.3,1.4c0.3,0.5,0.7,0.9,1.5,0.9c0.6,0,1-0.3,1.3-0.5c0.2-0.2,0.4-0.5,0.4-0.8L49.8,18.8z M47.3,16.2
			c0-0.4-0.1-0.9-0.3-1.2c-0.2-0.3-0.6-0.6-1.3-0.6c-0.5,0-1,0.2-1.3,0.5c-0.3,0.3-0.5,0.8-0.5,1.3H47.3z"/>
	</g>
</g>
</svg>
