<?xml version="1.0" encoding="utf-8"?>
<!-- Generator: Adobe Illustrator 18.1.1, SVG Export Plug-In . SVG Version: 6.00 Build 0)  -->
<svg version="1.1" id="Слой_1" xmlns="http://www.w3.org/2000/svg" xmlns:xlink="http://www.w3.org/1999/xlink" x="0px" y="0px"
	 viewBox="0 0 65 65" enable-background="new 0 0 65 65" xml:space="preserve">
<g>
	<linearGradient id="SVGID_1_" gradientUnits="userSpaceOnUse" x1="3.7805" y1="32.5" x2="60.7795" y2="32.5">
		<stop  offset="0" style="stop-color:#821DC9"/>
		<stop  offset="1" style="stop-color:#4600CD"/>
	</linearGradient>
	<path fill-rule="evenodd" clip-rule="evenodd" fill="url(#SVGID_1_)" d="M60.6,57.1c-0.3,0.4-0.7,0.6-1.2,0.6l-8.1-1.1l-3.1,7.6
		C47.9,64.7,47.5,65,47,65c0,0-0.1,0-0.1,0c-0.4,0-0.9-0.2-1.1-0.6L35.3,46c0,0,0,0,0,0c-1,0.1-2,0.2-3,0.2s-2-0.1-3-0.2
		c0,0,0,0,0,0L18.7,64.4c-0.2,0.4-0.6,0.6-1.1,0.6c0,0-0.1,0-0.1,0c-0.5,0-0.9-0.3-1.1-0.8l-3.1-7.6l-8.1,1.1
		c-0.5,0.1-0.9-0.1-1.2-0.6c-0.3-0.4-0.3-0.9,0-1.3l10.4-18.3c-3.1-4-5-9-5-14.4C9.3,10.4,19.6,0,32.3,0s22.9,10.4,22.9,23.1
		c0,5.5-1.9,10.5-5,14.4l10.4,18.3C60.9,56.2,60.8,56.7,60.6,57.1z M7.4,54.8l6-0.8l2.1-3.4c0.4-0.6,1.1-0.8,1.7-0.4
		c0.6,0.4,0.8,1.1,0.4,1.7l-2,3.4l2.3,5.6l8.8-15.4c-4-1-7.6-3.1-10.5-6L7.4,54.8z M52.7,23.1c0-11.3-9.2-20.6-20.4-20.6
		s-20.4,9.2-20.4,20.6c0,11.3,9.2,20.6,20.4,20.6S52.7,34.4,52.7,23.1z M48.4,39.5c-2.9,2.9-6.5,5-10.5,6l8.8,15.4l2.3-5.6l-2-3.4
		c-0.4-0.6-0.2-1.4,0.4-1.7c0.6-0.4,1.4-0.2,1.7,0.4l2.1,3.4l6,0.8L48.4,39.5z M45.9,30.9c-0.2,0-0.4,0-0.5-0.1
		c-0.6-0.3-0.9-1.1-0.6-1.7c0.9-1.9,1.3-3.9,1.3-6c0-7.7-6.2-14-13.9-14c-2.4,0-4.7,0.6-6.8,1.8c-0.6,0.3-1.4,0.1-1.7-0.5
		c-0.3-0.6-0.1-1.4,0.5-1.7c2.4-1.4,5.2-2.1,8-2.1c9,0,16.4,7.4,16.4,16.5c0,2.5-0.5,4.9-1.6,7.1C46.9,30.7,46.4,30.9,45.9,30.9z
		 M31.1,13.7c0.2-0.4,0.7-0.7,1.1-0.7h0c0.5,0,0.9,0.3,1.1,0.7l2.5,5l5.5,0.8c0.5,0.1,0.9,0.4,1,0.9c0.1,0.5,0,1-0.3,1.3l-4,3.9
		l0.9,5.5c0.1,0.5-0.1,1-0.5,1.2c-0.4,0.3-0.9,0.3-1.3,0.1l-4.9-2.6l-4.9,2.6c-0.2,0.1-0.4,0.1-0.6,0.1c-0.3,0-0.5-0.1-0.7-0.2
		c-0.4-0.3-0.6-0.8-0.5-1.2l0.9-5.5l-4-3.9c-0.3-0.3-0.5-0.8-0.3-1.3c0.1-0.5,0.5-0.8,1-0.9l5.5-0.8L31.1,13.7z M28.7,24.3
		c0.3,0.3,0.4,0.7,0.4,1.1L28.5,29l3.2-1.7c0.4-0.2,0.8-0.2,1.2,0l3.2,1.7l-0.6-3.6c-0.1-0.4,0.1-0.8,0.4-1.1l2.6-2.6l-3.6-0.5
		c-0.4-0.1-0.8-0.3-0.9-0.7l-1.6-3.3l-1.6,3.3c-0.2,0.4-0.5,0.6-0.9,0.7l-3.6,0.5L28.7,24.3z M22.1,13.6c-0.2,0.3-0.6,0.4-0.9,0.4
		c-0.3,0-0.6-0.1-0.9-0.3c-0.5-0.5-0.5-1.3-0.1-1.8l0,0c0.5-0.5,1.3-0.5,1.8-0.1C22.6,12.3,22.6,13.1,22.1,13.6L22.1,13.6z
		 M18.4,23.1c0,7.7,6.2,14,13.9,14c2.3,0,4.6-0.6,6.7-1.7c0.6-0.3,1.4-0.1,1.7,0.5c0.3,0.6,0.1,1.4-0.5,1.7c-2.4,1.3-5.1,2-7.9,2
		c-9,0-16.4-7.4-16.4-16.5c0-2.4,0.5-4.7,1.5-6.8c0.3-0.6,1-0.9,1.7-0.6c0.6,0.3,0.9,1,0.6,1.7C18.8,19.1,18.4,21.1,18.4,23.1z
		 M42.2,32.8c0.5-0.5,1.3-0.5,1.8,0c0.5,0.5,0.5,1.3,0,1.8l0,0c-0.2,0.3-0.6,0.4-0.9,0.4c-0.3,0-0.6-0.1-0.9-0.4
		C41.7,34.2,41.7,33.4,42.2,32.8L42.2,32.8z"/>
</g>
</svg>
