<?xml version="1.0" encoding="utf-8"?>
<!-- Generator: Adobe Illustrator 18.1.1, SVG Export Plug-In . SVG Version: 6.00 Build 0)  -->
<svg version="1.1" id="Слой_1" xmlns="http://www.w3.org/2000/svg" xmlns:xlink="http://www.w3.org/1999/xlink" x="0px" y="0px"
	 viewBox="0 0 65 65" enable-background="new 0 0 65 65" xml:space="preserve">
<g>
	<path fill="#FFFFFF" d="M61.7,22h-2.1c-0.5-0.2-1-0.5-1.5-0.7c0.8-1.2,1.4-2.5,1.9-4c0.1-0.2,0.1-0.4,0-0.7l-0.2-1l1.1,0.4
		c0.5,0.2,1.1,0,1.4-0.4c2.4-3,2.9-10.2,0.1-13c-0.2-0.2-0.4-0.3-0.6-0.4c-4.2-0.9-8,0.7-9.9,1.8c-0.4,0.2-0.7,0.7-0.6,1.2l0.1,1.1
		l-1.1-0.5c-0.5-0.2-1-0.1-1.4,0.2c-2.6,2.4-4.6,5.7-5.5,9.4c-0.2,1-0.4,1.9-0.5,2.9c-3.4,0.4-6.9,1.5-10.4,3.3
		c-4.2-2.3-8.3-3.4-12.4-3.5c-4.5-0.1-9.3,1.1-14.6,3.6h-2c-1.8,0-3.3,1.5-3.3,3.3v33.8c0,2.1,1.7,3.7,3.7,3.7h57.3
		c2.1,0,3.7-1.7,3.7-3.7V25.3C65,23.5,63.5,22,61.7,22z M50.1,8.6l2.3,1c0.4,0.2,0.9,0.1,1.3-0.1c0.4-0.3,0.6-0.7,0.5-1.2l-0.3-2.5
		c2.3-1.1,4.8-1.5,6.9-1.2c1.3,1.8,1.2,6.2,0,8.6l-2.3-0.8c-0.4-0.1-0.9-0.1-1.3,0.2c-0.3,0.3-0.5,0.8-0.4,1.2l0.6,2.9
		c-1.6,4.7-4.6,6.5-10.3,8.2c1.4-4.1,3.6-7.8,6-9.7c0.5-0.4,0.6-1.2,0.2-1.8c-0.4-0.5-1.2-0.6-1.8-0.2c-2.2,1.8-4.3,5-5.9,8.6
		C45.1,17.1,46.7,12.1,50.1,8.6z M31.3,24.1v31.4H7.2V24.1C16.1,19.9,23.4,19.9,31.3,24.1z M2.7,59.2V25.3c0-0.4,0.3-0.8,0.8-0.8
		h1.1v32.2c0,0.7,0.6,1.3,1.3,1.3h25.4v2.3H3.9C3.3,60.3,2.7,59.8,2.7,59.2z M62.4,59.2c0,0.7-0.5,1.2-1.2,1.2H33.9v-2.3h7.7
		c0.7,0,1.3-0.6,1.3-1.3s-0.6-1.3-1.3-1.3h-7.7V24.1c3.1-1.7,6.1-2.6,9.1-3c0.1,1.9,0.4,3.8,1,5.6c-0.4,1.4-0.7,2.8-0.9,4.3h-3.2
		c-0.6,0-1.2,0.6-1.2,1.3c0,0.7,0.5,1.3,1.2,1.3h4.3l0,0l0,0c0,0,0.5,0,0.5-0.1c0.4-0.2,0.7-0.6,0.7-1c0.1-1.4,0.4-2.9,0.8-4.3
		c3.5-0.9,6.2-1.8,8.4-3.3c0.6-0.4,1.2-0.9,1.7-1.3c0.6,0.2,1.1,0.5,1.7,0.7v31.4h-5c-0.7,0-1.3,0.6-1.3,1.3s0.6,1.3,1.3,1.3h6.3
		c0.7,0,1.3-0.6,1.3-1.3V24.6h1.1c0.4,0,0.8,0.3,0.8,0.8L62.4,59.2L62.4,59.2z"/>
	<path fill="#FFFFFF" d="M11.8,33.8H15c0.5,0,1-0.3,1.2-0.7l0.4-0.8l0.4,0.8c0.2,0.5,0.7,0.7,1.2,0.7h9c0.7,0,1.3-0.6,1.3-1.3
		s-0.6-1.3-1.3-1.3H19l-1.2-2.6c-0.2-0.5-0.7-0.7-1.2-0.7l0,0c-0.5,0-1,0.3-1.2,0.7l-1.2,2.6h-2.3c-0.7,0-1.3,0.6-1.3,1.3
		C10.5,33.2,11.1,33.8,11.8,33.8z"/>
	<path fill="#FFFFFF" d="M11.6,42.1h3.2c0.3,0,0.7-0.1,0.9-0.4l0.6-0.7l0.6,0.6c0.2,0.3,0.6,0.4,0.9,0.4h9c0.7,0,1.3-0.6,1.3-1.3
		s-0.6-1.3-1.3-1.3h-8.5l-1.2-1.2c-0.2-0.3-0.6-0.4-0.9-0.4l0,0c-0.3,0-0.7,0.1-0.9,0.4l-1.2,1.2h-2.6c-0.7,0-1.3,0.6-1.3,1.3
		C10.3,41.5,10.9,42.1,11.6,42.1z"/>
	<path fill="#FFFFFF" d="M11.6,49.7h3.2c0.3,0,0.7-0.1,0.9-0.4l0.6-0.7l0.6,0.6c0.2,0.3,0.6,0.4,0.9,0.4h9c0.7,0,1.3-0.6,1.3-1.3
		S27.5,47,26.8,47h-8.5l-1.2-1.2c-0.2-0.3-0.6-0.4-0.9-0.4l0,0c-0.3,0-0.7,0.1-0.9,0.4L14.1,47h-2.6c-0.7,0-1.3,0.6-1.3,1.3
		S10.9,49.7,11.6,49.7z"/>
	<path fill="#FFFFFF" d="M55.1,42.4c0.7,0,1.3-0.6,1.3-1.3s-0.6-1.3-1.3-1.3h-2.6l-1.2-1.2c-0.2-0.3-0.6-0.4-0.9-0.4l0,0
		c-0.3,0-0.7,0.1-0.9,0.4l-1.2,1.2h-8.5c-0.7,0-1.3,0.6-1.3,1.3s0.6,1.3,1.3,1.3h9c0.4,0,0.7-0.1,0.9-0.4l0.6-0.6L51,42
		c0.2,0.2,0.6,0.4,0.9,0.4H55.1z"/>
	<path fill="#FFFFFF" d="M47.3,55.5L47.3,55.5c-0.7,0-1.3,0.6-1.3,1.3s0.6,1.3,1.3,1.3l0,0c0.7,0,1.3-0.6,1.3-1.3S48,55.5,47.3,55.5
		z"/>
</g>
</svg>
