<?xml version="1.0" encoding="utf-8"?>
<!-- Generator: Adobe Illustrator 18.1.1, SVG Export Plug-In . SVG Version: 6.00 Build 0)  -->
<svg version="1.1" id="Слой_1" xmlns="http://www.w3.org/2000/svg" xmlns:xlink="http://www.w3.org/1999/xlink" x="0px" y="0px"
	 viewBox="0 0 65 65" enable-background="new 0 0 65 65" xml:space="preserve">
<g>
	<g>
		<g>
			<path fill="#FFFFFF" d="M59.1,17.6L59.1,17.6c0.3,0,0.6-0.1,0.8-0.4l4.8-5.4c0.4-0.4,0.4-1.1,0-1.5L59.9,5
				c-0.2-0.2-0.5-0.4-0.8-0.4H37.5V1.1C37.5,0.5,37,0,36.4,0h-7c-0.6,0-1.1,0.5-1.1,1.1v14.2h-19c-0.3,0-0.6,0.1-0.8,0.4l-4.8,5.4
				c-0.4,0.4-0.4,1.1,0,1.5L8.5,28c0.2,0.2,0.5,0.4,0.8,0.4h19v20.1l-0.9-0.9c-0.2-0.2-0.5-0.3-0.8-0.3s-0.6,0.1-0.8,0.3l-5.3,5.3
				l-5.3-5.3c-0.2-0.2-0.5-0.3-0.8-0.3s-0.6,0.1-0.8,0.3l-5.3,5.3L3,47.6c-0.4-0.4-1.1-0.4-1.6,0C1,48,1,48.7,1.4,49.2l6.1,6.1
				c0.2,0.2,0.5,0.3,0.8,0.3s0.6-0.1,0.8-0.3l5.3-5.3l5.3,5.3c0.2,0.2,0.5,0.3,0.8,0.3s0.6-0.1,0.8-0.3l5.3-5.3l1.7,1.7v12.4
				c0,0.6,0.5,1.1,1.1,1.1s1.1-0.5,1.1-1.1V27.2V16.5V2.2h4.7v3.5v10.7v10.7v10.7v26c0,0.6,0.5,1.1,1.1,1.1s1.1-0.5,1.1-1.1V51.2
				l1.4-1.4l5.3,5.3c0.2,0.2,0.5,0.3,0.8,0.3s0.6-0.1,0.8-0.3l5.3-5.3l5.3,5.3c0.4,0.4,1.1,0.4,1.6,0L64,49c0.4-0.4,0.4-1.1,0-1.6
				c-0.4-0.4-1.1-0.4-1.6,0l-5.3,5.3L52,47.5c-0.4-0.4-1.1-0.4-1.6,0l-5.3,5.3l-5.3-5.3c-0.2-0.2-0.5-0.3-0.8-0.3s-0.6,0.1-0.8,0.3
				l-0.6,0.6v-9H52c0.3,0,0.6-0.1,0.8-0.4l4.8-5.4c0.4-0.4,0.4-1.1,0-1.5l-4.8-5.4C52.6,26.2,52.3,26,52,26H37.5v-8.5h21.6V17.6z
				 M37.5,6.8h21l3.8,4.3l-3.8,4.3h-21V6.8z M28.3,26.1H9.8l0,0L6,21.8l3.8-4.3h18.5V26.1z M51.5,28.3L51.5,28.3l3.8,4.3l-3.8,4.3
				h-14v-8.5L51.5,28.3L51.5,28.3z"/>
			<path fill="#FFFFFF" d="M53.7,10H42.3c-0.6,0-1.1,0.5-1.1,1.1s0.5,1.1,1.1,1.1h11.4c0.6,0,1.1-0.5,1.1-1.1S54.3,10,53.7,10z"/>
			<path fill="#FFFFFF" d="M13,22.9h11.4c0.6,0,1.1-0.5,1.1-1.1s-0.5-1.1-1.1-1.1H13c-0.6,0-1.1,0.5-1.1,1.1S12.4,22.9,13,22.9z"/>
			<path fill="#FFFFFF" d="M40.2,33.7h9.6c0.6,0,1.1-0.5,1.1-1.1s-0.5-1.1-1.1-1.1h-9.6c-0.6,0-1.1,0.5-1.1,1.1
				C39.1,33.2,39.6,33.7,40.2,33.7z"/>
		</g>
	</g>
</g>
</svg>
