<?xml version="1.0" encoding="utf-8"?>
<!-- Generator: Adobe Illustrator 18.1.1, SVG Export Plug-In . SVG Version: 6.00 Build 0)  -->
<svg version="1.1" id="Слой_1" xmlns="http://www.w3.org/2000/svg" xmlns:xlink="http://www.w3.org/1999/xlink" x="0px" y="0px"
	 viewBox="0 0 65 65" enable-background="new 0 0 65 65" xml:space="preserve">
<g>
	<linearGradient id="SVGID_1_" gradientUnits="userSpaceOnUse" x1="0.1064" y1="23.5855" x2="64.9287" y2="23.5855">
		<stop  offset="0" style="stop-color:#821DC9"/>
		<stop  offset="1" style="stop-color:#4600CD"/>
	</linearGradient>
	<path fill="url(#SVGID_1_)" d="M28.4,14.8L28.4,14.8c-0.7,0-1.3,0.6-1.3,1.3v6.8h-1.4c0,0,0-0.1,0-0.1c0,0,0,0,0,0
		c-0.5-4.6-4.9-8.4-9.5-8c-0.7,0.1-1.3,0.7-1.2,1.4c0.1,0.7,0.7,1.3,1.4,1.2c3.1-0.3,6.3,2.3,6.7,5.5H9.4c-0.4,0-0.7,0.2-1,0.4
		c-0.3,0.3-0.4,0.7-0.3,1c0.2,2.3,1.4,4.4,3.3,5.9c1.6,1.3,3.6,2,5.5,2c0.3,0,0.5,0,0.8,0c3.7-0.4,6.8-3.2,7.7-6.7h1.7V31
		c0,0.7,0.6,1.3,1.3,1.3c0.7,0,1.3-0.6,1.3-1.3V16.2C29.7,15.4,29.1,14.8,28.4,14.8z M17.4,29.7c-1.5,0.2-3-0.3-4.3-1.4
		c-0.9-0.7-1.6-1.6-2-2.7h11.5C21.8,27.7,19.8,29.4,17.4,29.7z"/>
	<linearGradient id="SVGID_2_" gradientUnits="userSpaceOnUse" x1="0.1064" y1="37.8454" x2="64.9248" y2="37.8454">
		<stop  offset="0" style="stop-color:#821DC9"/>
		<stop  offset="1" style="stop-color:#4600CD"/>
	</linearGradient>
	<path fill="url(#SVGID_2_)" d="M53.9,43.7l-6.7-13.2C47,30,46.5,29.8,46,29.8c-0.5,0-1,0.3-1.2,0.7L38.1,44
		c-0.3,0.7-0.1,1.4,0.6,1.8c0.2,0.1,0.4,0.1,0.6,0.1c0.5,0,1-0.3,1.2-0.7l2.3-4.6h6.6l2.2,4.4c0.3,0.7,1.1,0.9,1.8,0.6
		C54,45.1,54.2,44.3,53.9,43.7L53.9,43.7z M44.1,37.9L46,34l2,3.9H44.1z"/>
	<linearGradient id="SVGID_3_" gradientUnits="userSpaceOnUse" x1="0.1064" y1="31.748" x2="64.9418" y2="31.748">
		<stop  offset="0" style="stop-color:#821DC9"/>
		<stop  offset="1" style="stop-color:#4600CD"/>
	</linearGradient>
	<path fill="url(#SVGID_3_)" d="M64.6,36.2c-0.6-4.2-2.7-8-5.7-10.9c-5.8-5.4-14.2-6.6-21.2-3.2c-1-9.4-9-16.8-18.7-16.8
		c-5.1,0-9.8,2-13.4,5.5C2,14.4,0,19.2,0,24.3c0,5.1,2,9.8,5.6,13.4c3.6,3.6,8.3,5.5,13.4,5.5c2.9,0,5.7-0.7,8.2-1.9
		c0.9,7.7,6.4,14.3,14,16.3h0c1.5,0.4,3.1,0.6,4.6,0.6c6.8,0,13.3-3.7,16.7-9.8C64.5,44.6,65.3,40.3,64.6,36.2z M19,40.5
		c-9,0-16.3-7.3-16.3-16.2C2.7,15.3,10,8,19,8c8.9,0,16.2,7.3,16.2,16.2S27.9,40.5,19,40.5z M60.2,47c-3.6,6.5-11.1,9.8-18.3,8
		c-7-1.8-11.9-8.1-12.2-15.2c4.7-3.3,7.8-8.6,8.1-14.7c6.2-3.6,14-2.8,19.3,2.2C62.5,32.3,63.8,40.4,60.2,47z"/>
	<linearGradient id="SVGID_4_" gradientUnits="userSpaceOnUse" x1="0.1064" y1="56.0645" x2="64.9248" y2="56.0645">
		<stop  offset="0" style="stop-color:#821DC9"/>
		<stop  offset="1" style="stop-color:#4600CD"/>
	</linearGradient>
	<path fill="url(#SVGID_4_)" d="M25.7,56.6L25.7,56.6c0-0.1,0-0.1,0-0.2c0,0,0,0,0,0c0,0,0-0.1-0.1-0.1c0,0,0,0,0,0
		c0,0,0-0.1-0.1-0.1c0,0,0,0,0,0c0,0-0.1-0.1-0.1-0.1c0,0-0.1-0.1-0.1-0.1c0,0,0,0,0,0c0,0-0.1-0.1-0.1-0.1c0,0,0,0,0,0
		c0,0-0.1,0-0.1-0.1c0,0,0,0,0,0c0,0-0.1-0.1-0.1-0.1l-6.8-2.7c-0.7-0.3-1.4,0.1-1.7,0.7c-0.3,0.7,0.1,1.4,0.7,1.7l4.5,1.8
		c-2.5,1.3-5.5,1.4-8.1,0.2h0c-3.3-1.5-5.4-4.9-5.3-8.6c0-0.7-0.6-1.3-1.3-1.4c-0.7,0-1.3,0.6-1.4,1.3c-0.1,4.8,2.6,9.1,6.8,11.1
		c1.6,0.8,3.3,1.1,5,1.1c1.4,0,2.9-0.3,4.3-0.8L20.4,63c-0.3,0.7,0.1,1.5,0.7,1.7c0.2,0.1,0.3,0.1,0.5,0.1c0.5,0,1-0.3,1.2-0.8
		l2.7-6.7c0,0,0,0,0,0c0,0,0,0,0,0c0,0,0-0.1,0-0.1c0,0,0,0,0,0c0-0.1,0-0.1,0-0.2c0-0.1,0-0.1,0-0.1c0,0,0,0,0,0
		C25.7,56.7,25.7,56.6,25.7,56.6C25.7,56.6,25.7,56.6,25.7,56.6z"/>
	<linearGradient id="SVGID_5_" gradientUnits="userSpaceOnUse" x1="0.1064" y1="8.7505" x2="64.9248" y2="8.7505">
		<stop  offset="0" style="stop-color:#821DC9"/>
		<stop  offset="1" style="stop-color:#4600CD"/>
	</linearGradient>
	<path fill="url(#SVGID_5_)" d="M39.3,8.3L39.3,8.3c0,0.1,0,0.1,0,0.2c0,0,0,0,0,0c0,0,0,0.1,0.1,0.1c0,0,0,0,0,0c0,0,0,0.1,0.1,0.1
		c0,0,0,0,0,0c0,0,0.1,0.1,0.1,0.1c0,0,0.1,0.1,0.1,0.1c0,0,0,0,0,0c0,0,0.1,0.1,0.1,0.1c0,0,0,0,0,0c0,0,0.1,0,0.1,0.1c0,0,0,0,0,0
		c0,0,0.1,0.1,0.1,0.1l6.8,2.7c0.7,0.3,1.4-0.1,1.7-0.7c0.3-0.7-0.1-1.4-0.7-1.7l-4.5-1.8c2.5-1.3,5.5-1.4,8.1-0.2h0
		c3.3,1.5,5.4,4.9,5.3,8.6c0,0.7,0.6,1.3,1.3,1.4c0,0,0,0,0,0c0.7,0,1.3-0.6,1.3-1.3c0.1-4.8-2.6-9.1-6.9-11.1l0,0
		c-3-1.4-6.3-1.5-9.2-0.3l1.2-2.9c0.3-0.7-0.1-1.5-0.7-1.7c-0.7-0.3-1.5,0.1-1.7,0.7l-2.7,6.7c0,0,0,0,0,0c0,0,0,0,0,0.1
		c0,0,0,0.1,0,0.1c0,0,0,0,0,0c0,0.1,0,0.1,0,0.2c0,0.1,0,0.1,0,0.1c0,0,0,0,0,0C39.2,8.2,39.3,8.2,39.3,8.3
		C39.3,8.3,39.3,8.3,39.3,8.3z"/>
</g>
</svg>
