<?xml version="1.0" encoding="utf-8"?>
<!-- Generator: Adobe Illustrator 18.1.1, SVG Export Plug-In . SVG Version: 6.00 Build 0)  -->
<svg version="1.1" id="Слой_1" xmlns="http://www.w3.org/2000/svg" xmlns:xlink="http://www.w3.org/1999/xlink" x="0px" y="0px"
	 viewBox="0 0 65 65" enable-background="new 0 0 65 65" xml:space="preserve">
<g>
	<path fill="#FFFFFF" d="M64.1,53.5c-0.5,0-1,0.4-1,0.9v6.3c0,0.1-0.1,0.2-0.2,0.2h-3.6V47c0-0.5-0.4-0.9-1-0.9c-0.5,0-1,0.4-1,0.9
		v13.9h-7l1.9-2.1c0.3-0.3,0.4-0.8,0.4-1.2l0,0l-2.1-12.5l0.4-0.6l0.1,0.1c0.3,0.2,0.8,0.3,1.2,0.2s0.8-0.4,1-0.8l0,0l2.2-4.3
		l4.9,1.9c0.2,0.1,2.7,1.3,2.7,4.3V50c0,0.5,0.4,0.9,1,0.9s1-0.4,1-0.9v-4.1c0-4.4-3.8-6-3.9-6l0,0l-8.4-3.3v-1.7
		c1.3-1.1,2.2-2.6,2.5-4.3c0.7-0.1,1.3-0.3,1.8-0.8c0.7-0.6,1.1-1.5,1.1-2.5c0-0.8-0.3-1.5-0.7-2.1v-2.6c0-5-4.1-9.1-9.1-9.1
		c-2.3,0-4.3,0.8-5.9,2.2c0-0.7-0.3-1.4-0.7-2v-2.6c0-5-4.1-9.1-9.1-9.1s-9.1,4.1-9.1,9.1v2.6c-0.5,0.5-0.7,1.2-0.7,1.9
		c-1-0.9-2.2-1.5-3.6-1.9c-0.5-0.1-1,0.2-1.2,0.7c-0.1,0.5,0.2,1,0.7,1.2c3.2,0.8,5.4,3.7,5.4,7V24h-0.2c0-0.3-0.1-0.4-0.2-0.6
		c-0.2-0.3-0.7-0.8-2.1-2.3c-0.5-0.5-1.3-0.6-1.9-0.2c-2.4,1.6-5.3,2.4-8.1,2.2c-0.9-0.1-1.4,0.3-1.7,1l-0.3,0.1v-1.5
		c0-3.1,2.1-6,5.1-6.9c0.5-0.2,0.8-0.7,0.6-1.2s-0.7-0.8-1.2-0.6c-1.8,0.6-3.5,1.7-4.7,3.2c-1.2,1.6-1.8,3.5-1.8,5.5v2.6
		c-0.5,0.6-0.7,1.3-0.7,2c0,1.6,1.2,3,2.9,3.3c0.3,1.7,1.2,3.3,2.7,4.4v1.6l-8.4,3.2l0,0c-0.2,0.1-3.9,1.7-3.9,6v14.9
		c0,1.1,0.9,2.1,2.1,2.1h29.3c0.4,0,0.8-0.1,1.1-0.3c0.3,0.2,0.7,0.3,1.1,0.3H63c1.1,0,2.1-0.9,2.1-2.1v-6.3
		C65,53.9,64.6,53.5,64.1,53.5z M9.6,28.6c-0.6-0.2-0.9-0.7-0.9-1.3c0-0.6,0.4-1,0.9-1.2V28.6z M53.6,39l-1.9,3.7l-2.1-1.5
		c0.9-1.1,0.5-0.6,2.3-2.9L53.6,39z M48.3,39.9l-2.5-3V36c0.8,0.3,1.7,0.4,2.5,0.4l0,0l0,0c0.8,0,1.7-0.2,2.4-0.4v1L48.3,39.9z
		 M49.4,43.4L49,43.9h-1.5l-0.4-0.5l1.1-0.8L49.4,43.4z M32.5,28.5l-2.5-3v-0.9c0.8,0.3,1.7,0.4,2.5,0.4l0,0l0,0
		c0.8,0,1.7-0.2,2.4-0.4v1L32.5,28.5z M33.6,31.9l-0.4,0.5h-1.5l-0.4-0.5l1.1-0.8L33.6,31.9z M25,19c0.2,0,0.3,0.1,0.5,0.1
		c0.3,1.7,1.2,3.3,2.7,4.4v1.6l-1.9,0.8c-0.1-0.2-0.3-0.5-0.4-0.7v-2.6C25.8,21.4,25.5,20.1,25,19z M37.6,18c0,2.8-2.3,5-5,5
		c-3.1,0-5.2-2.4-5.2-5v-4.4c3,0.1,6.1-0.8,8.7-2.4c0.9,0.9,1.4,1.5,1.6,1.7C37.6,15.3,37.6,16.2,37.6,18z M39.4,19.1
		c0.2,0,0.3,0,0.5-0.1c-0.5,1.1-0.8,2.4-0.8,3.7v2.6c-0.1,0.2-0.3,0.4-0.4,0.6l-1.8-0.7v-1.7C38.2,22.3,39.1,20.8,39.4,19.1z
		 M28.8,26.9l2.3,2.9l-1.6,1.1l0,0L29,31.3l-1.9-3.7L28.8,26.9z M34.7,28.8l1.5-1.9l1.6,0.6L36,31.3l-0.5-0.4l0,0l-1.6-1.1
		L34.7,28.8z M35.2,33L35.2,33c0.5,0.4,0.9,0.4,1.3,0.3s0.8-0.4,1-0.8l0,0l1.6-3.2c0.6,0.7,1.4,1.1,2.2,1.2c0.3,1.8,1.3,3.4,2.7,4.4
		v1.6l-8.1,3.1l-1-6.1L35.2,33z M44.6,38.4l2.3,2.9c-1,0.7-2.1,1.5-2.1,1.5L42.9,39L44.6,38.4z M53.3,29.4c0,2.7-2.2,5-5,5
		c-3.2,0-5.2-2.5-5.2-5V25c3,0.1,6.1-0.8,8.7-2.4c0.9,0.9,1.4,1.5,1.6,1.7C53.3,26.7,53.3,27.6,53.3,29.4z M56.2,27.3
		c0,0.6-0.4,1.1-0.9,1.3V26C55.8,26.2,56.2,26.7,56.2,27.3z M41,22.7c0-4,3.2-7.2,7.2-7.2s7.2,3.2,7.2,7.2v1.4h-0.2
		c0-0.3-0.1-0.4-0.2-0.6c-0.3-0.4-0.7-0.8-2.1-2.3c-0.5-0.5-1.3-0.6-1.9-0.2c-2.3,1.5-5.3,2.4-8.1,2.2c-0.8-0.1-1.4,0.3-1.6,1
		L41,24.3L41,22.7L41,22.7z M41.2,26.1v2.5c-0.6-0.2-0.9-0.7-0.9-1.3C40.3,26.7,40.7,26.3,41.2,26.1z M40.4,15.8
		c0,0.4-0.2,0.8-0.5,1c-0.1,0.1-0.3,0.2-0.4,0.3v-2.6C40,14.8,40.4,15.3,40.4,15.8z M32.4,4c4,0,7.2,3.2,7.2,7.2v1.4h-0.2
		c0-0.3-0.1-0.5-0.3-0.7c-0.3-0.3-0.7-0.8-2-2.2c-0.5-0.5-1.3-0.6-1.9-0.2c-2.5,1.6-5.5,2.4-8.2,2.2c-0.7-0.1-1.3,0.4-1.5,1
		l-0.3,0.1v-1.5l0,0C25.2,7.3,28.5,4,32.4,4z M25.4,14.6v2.5c-0.6-0.2-0.9-0.7-0.9-1.3C24.5,15.3,24.9,14.8,25.4,14.6z M23.7,26
		c0.5,0.2,0.9,0.7,0.9,1.2c0,0.6-0.3,1.2-0.9,1.4V26z M23.6,30.5c0.9-0.1,1.7-0.6,2.3-1.3l1.7,3.3l0,0c0.2,0.4,0.5,0.7,1,0.8
		c0.4,0.1,0.9,0,1.2-0.2l0.1-0.1l0.4,0.6l-1,6.1l-8.1-3.1v-1.7l0,0C22.4,33.8,23.3,32.2,23.6,30.5z M16.7,39.9l-2.5-3V36
		c0.8,0.3,1.7,0.4,2.5,0.4l0,0c0.9,0,1.7-0.2,2.4-0.4v1L16.7,39.9z M17.8,43.4l-0.4,0.5H16l-0.4-0.5l1.1-0.8L17.8,43.4z M20.4,38.4
		L22,39l-1.9,3.7l-0.5-0.4l0,0L18,41.2L20.4,38.4z M11.5,29.4V25c3,0.1,6.2-0.8,8.7-2.4c0.9,0.9,1.4,1.5,1.6,1.7c0,2.4,0,3.3,0,5.1
		c0,2.8-2.3,5-5,5C13.6,34.5,11.5,32.1,11.5,29.4z M13,38.4l2.3,2.9l-1.6,1.1l0,0l-0.5,0.4L11.4,39L13,38.4z M7.6,60.9V47
		c0-0.5-0.4-0.9-1-0.9c-0.5,0-1,0.4-1,0.9v13.9H2.1c-0.1,0-0.2-0.1-0.2-0.2V45.9c0-3,2.6-4.2,2.7-4.3l4.9-1.9l2.2,4.3l0,0
		c0.2,0.4,0.5,0.7,1,0.8c0.4,0.1,0.9,0,1.2-0.2l0.1-0.1l0.4,0.6l-2.1,12.5l0,0c-0.1,0.4,0.1,0.9,0.4,1.2l1.9,2.1L7.6,60.9L7.6,60.9z
		 M14.2,57.7l2-11.9h0.9l2,11.9l-2.5,2.7L14.2,57.7z M31.6,60.8c0,0.1-0.1,0.2-0.2,0.2h-3.6V47c0-0.5-0.4-0.9-1-0.9
		c-0.5,0-1,0.4-1,0.9v13.9h-7l1.9-2.1c0.3-0.3,0.4-0.8,0.4-1.2l0,0L19,45.1l0.4-0.6l0.1,0.1c0.3,0.2,0.6,0.3,0.9,0.3
		c0.6,0,1.1-0.3,1.3-0.8l0,0l2.2-4.3l4.9,1.9c1.4,0.6,2.7,2.2,2.7,4.3L31.6,60.8L31.6,60.8z M32.5,42.4c-0.4-0.6-0.9-1.2-1.6-1.7
		l1.1-6.3h1l1.1,6.3C33.4,41.2,32.9,41.8,32.5,42.4z M39.1,60.9L39.1,60.9V47c0-0.5-0.4-0.9-1-0.9c-0.5,0-1,0.4-1,0.9v13.9h-3.6
		c-0.1,0-0.2-0.1-0.2-0.2V45.9c0-1.1,0.4-2.2,1.1-3c0.5-0.6,1.2-1,1.6-1.2l4.9-1.9l2.2,4.3l0,0c0.2,0.4,0.5,0.7,1,0.8
		c0.4,0.1,0.9,0,1.2-0.2l0.1-0.1l0.4,0.6l-2.1,12.5l0,0c-0.1,0.4,0.1,0.9,0.4,1.2L46,61L39.1,60.9L39.1,60.9z M45.8,57.7l2-11.9h0.9
		l2,11.9l-2.5,2.7L45.8,57.7z"/>
</g>
</svg>
