<svg height="496pt" viewBox="0 0 496 496" width="496pt" xmlns="http://www.w3.org/2000/svg">
    <linearGradient id="gradient" gradientUnits="userSpaceOnUse">
        <stop offset="0%" stop-color="#821DC9"/>
        <stop offset="100%" stop-color="#4600CD"/>
    </linearGradient>
    <g fill="url(#gradient)">
        <path d="m496 68.6875-68.6875-68.6875h-203.3125v160h-200c-13.230469 0-24 10.769531-24 24v240c0 22.054688 17.945312 40 40 40h148.175781c12.9375 19.28125 34.921875 32 59.824219 32s46.894531-12.71875 59.824219-32h84.175781c22.054688 0 40-17.945312 40-40v-104h64zm-64-41.375 36.6875 36.6875h-36.6875zm-368 212.6875v176h-16v-208h176v32zm-48 184v-240c0-4.40625 3.59375-8 8-8h200v16h-192v240h30.527344c-3.3125 9.289062-12.113282 16-22.527344 16-13.230469 0-24-10.769531-24-24zm232 56c-30.878906 0-56-25.128906-56-56v-48c0-4.414062 3.59375-8 8-8h96c4.40625 0 8 3.585938 8 8v48c0 30.871094-25.121094 56-56 56zm40-128h-80v-24c0-22.054688 17.945312-40 40-40s40 17.945312 40 40zm128 72c0 13.230469-10.769531 24-24 24h-76.199219c2.671875-7.519531 4.199219-15.574219 4.199219-24v-48c0-10.414062-6.710938-19.214844-16-22.527344v-25.472656c0-30.871094-25.121094-56-56-56s-56 25.128906-56 56v25.472656c-9.289062 3.3125-16 12.113282-16 22.527344v48c0 8.425781 1.527344 16.480469 4.199219 24h-108.40625c5.078125-6.703125 8.207031-14.960938 8.207031-24v-168h173.191406l37.808594-30.238281c1.414062-1.136719 3.191406-1.761719 5-1.761719h112c4.40625 0 8 3.59375 8 8zm-112-224c0-39.695312 32.304688-72 72-72s72 32.304688 72 72c0 16.808594-5.71875 32.585938-16 45.238281v-13.238281c0-13.230469-10.769531-24-24-24h-103.527344c-.296875-2.648438-.472656-5.320312-.472656-8zm128 104v-36.296875c20.320312-16.78125 32-41.167969 32-67.703125 0-48.519531-39.480469-88-88-88s-88 39.480469-88 88c0 3.089844.175781 6.175781.496094 9.246094-2.695313.890625-5.25 2.226562-7.488282 4.019531l-33.421874 26.734375h-7.585938v-224h176v64h64v224zm0 0"/>
        <path d="m248 384c-13.230469 0-24 10.769531-24 24 0 10.414062 6.710938 19.214844 16 22.527344v33.472656h16v-33.472656c9.289062-3.3125 16-12.113282 16-22.527344 0-13.230469-10.769531-24-24-24zm0 32c-4.40625 0-8-3.585938-8-8s3.59375-8 8-8 8 3.585938 8 8-3.59375 8-8 8zm0 0"/>
        <path d="m304 240h96v16h-96zm0 0"/>
        <path d="m256 32h16v16h-16zm0 0"/>
        <path d="m288 32h112v16h-112zm0 0"/>
        <path d="m256 64h144v16h-144zm0 0"/>
        <path d="m256 96h48v16h-48zm0 0"/>
    </g>
</svg>
