<svg xmlns="http://www.w3.org/2000/svg" width="225" height="78" viewBox="0 0 225 78"><defs><linearGradient id="m9t2b" x1="170" x2="225" y1="55" y2="56" gradientUnits="userSpaceOnUse"><stop offset="0" stop-color="#821dc9"/><stop offset="1" stop-color="#4600cd"/></linearGradient><clipPath id="m9t2a"><path d="M.011 47.27v-3.842h9.396l.31 2.751c.71-1.019 1.56-1.804 2.55-2.358.989-.553 2.141-.83 3.456-.83 2.97 0 5.275 1.143 6.914 3.428 1.64 2.286 2.46 5.291 2.46 9.017v.459c0 3.493-.82 6.303-2.46 8.428-1.64 2.125-3.93 3.187-6.87 3.187-1.255 0-2.37-.229-3.346-.687a6.852 6.852 0 0 1-2.504-2.02v9.629l3.125.655v2.91H.344v-2.91l3.124-.655V47.926zm18.615 8.166c0-2.227-.376-4.031-1.13-5.414-.753-1.383-1.906-2.074-3.457-2.074-.975 0-1.806.196-2.493.59a4.236 4.236 0 0 0-1.629 1.68v10.35a3.94 3.94 0 0 0 1.63 1.528c.686.349 1.532.524 2.536.524 1.566 0 2.715-.604 3.446-1.812.732-1.209 1.097-2.846 1.097-4.913zM39.017 67.51c-3.457 0-6.22-1.091-8.288-3.275-2.068-2.183-3.102-4.956-3.102-8.318v-.874c0-3.507.978-6.397 2.936-8.667 1.957-2.271 4.583-3.399 7.878-3.385 3.236 0 5.747.961 7.535 2.883 1.787 1.92 2.681 4.519 2.681 7.794v3.471H34.341l-.044.131c.118 1.558.646 2.839 1.584 3.843.939 1.005 2.213 1.507 3.823 1.507 1.433 0 2.622-.142 3.568-.426.945-.284 1.98-.732 3.103-1.343l1.75 3.93c-.99.772-2.271 1.42-3.844 1.944-1.574.523-3.329.785-5.264.785zm-.576-19.606c-1.197 0-2.142.451-2.836 1.354-.695.902-1.123 2.088-1.286 3.559l.067.109h7.933v-.568c0-1.354-.321-2.435-.964-3.242-.642-.808-1.614-1.212-2.914-1.212zm12.632 15.327l3.102-.655v-14.65l-3.435-.655v-3.843h9.463l.288 3.45c.561-1.223 1.285-2.176 2.172-2.86.886-.684 1.913-1.027 3.08-1.027.34 0 .698.026 1.075.077.377.051.69.113.942.186l-.687 5.807-2.66-.065c-.945 0-1.728.182-2.348.546-.621.364-1.094.88-1.419 1.55v11.484l3.103.655v3.82H51.073zm29.177 4.28c-3.457 0-6.22-1.092-8.288-3.276-2.068-2.183-3.102-4.956-3.102-8.318v-.874c0-3.507.978-6.397 2.936-8.667 1.957-2.271 4.583-3.399 7.878-3.385 3.236 0 5.747.961 7.535 2.883 1.787 1.92 2.681 4.519 2.681 7.794v3.471H75.574l-.044.131c.118 1.558.646 2.839 1.585 3.843.938 1.005 2.212 1.507 3.822 1.507 1.433 0 2.623-.142 3.568-.426.945-.284 1.98-.732 3.103-1.343l1.75 3.93c-.99.772-2.271 1.42-3.845 1.944-1.573.523-3.327.785-5.263.785zm-.576-19.607c-1.197 0-2.142.451-2.837 1.354-.694.902-1.122 2.088-1.285 3.559l.067.109h7.933v-.568c0-1.354-.321-2.435-.964-3.242-.642-.808-1.614-1.212-2.914-1.212zm22.53-.633l-2.261.415 3.169 10.567.421 2.227h.133l.465-2.227 3.125-10.546-2.305-.436v-3.843h10.881v3.843l-2.083.327-7.07 19.454h-6.182l-7.091-19.454-2.084-.327v-3.843h10.881zm14.627 7.75c0-3.522 1-6.407 3.003-8.656 2.002-2.25 4.768-3.374 8.3-3.374 3.545 0 6.318 1.122 8.32 3.363 2.002 2.242 3.003 5.13 3.003 8.668v.458c0 3.552-1 6.445-3.003 8.679-2.002 2.234-4.76 3.351-8.277 3.351-3.56 0-6.341-1.117-8.343-3.351s-3.003-5.127-3.003-8.679zm6.471.46c0 2.153.384 3.882 1.152 5.185.768 1.302 2.01 1.954 3.724 1.954 1.669 0 2.891-.655 3.667-1.965.776-1.31 1.164-3.035 1.164-5.175v-.458c0-2.096-.392-3.807-1.175-5.131-.783-1.325-2.017-1.987-3.7-1.987-1.685 0-2.912.662-3.68 1.987-.768 1.324-1.152 3.035-1.152 5.13zm34.176 8.689c-.754 1.092-1.644 1.921-2.67 2.489-1.027.568-2.198.851-3.513.851-2.955 0-5.249-1.062-6.88-3.187-1.633-2.125-2.45-4.935-2.45-8.428v-.459c0-3.726.82-6.731 2.46-9.017 1.64-2.285 3.945-3.428 6.915-3.428 1.196 0 2.274.26 3.235.776.96.516 1.802 1.248 2.526 2.194v-9.313l-3.457-.655v-3.001h9.928v29.584l3.103.655v3.82h-8.71zm-9.042-8.275c0 2.067.351 3.694 1.053 4.88s1.85 1.78 3.446 1.78c.945 0 1.765-.19 2.46-.569a4.564 4.564 0 0 0 1.706-1.637V50.328c-.443-.757-1.008-1.343-1.695-1.758-.687-.415-1.496-.622-2.427-.622-1.58 0-2.733.691-3.457 2.074-.724 1.383-1.086 3.187-1.086 5.414zm28.247 11.157h-6.448v-5.59h6.448zm3.604-3.821l3.103-.655v-14.65l-3.435-.655v-3.843h9.463l.288 3.45c.56-1.223 1.285-2.176 2.171-2.86.887-.684 1.913-1.027 3.08-1.027.34 0 .699.026 1.075.077.377.051.69.113.942.186l-.687 5.807-2.659-.065c-.946 0-1.729.182-2.349.546-.62.364-1.093.88-1.418 1.55v11.484l3.102.655v3.82h-12.676zm35.727.83c-.768 1.106-1.718 1.958-2.848 2.554-1.13.597-2.42.895-3.867.895-2.526 0-4.506-.796-5.939-2.39-1.433-1.594-2.15-4.072-2.15-7.435v-9.759l-2.637-.655v-3.843h9.108V57.73c0 1.718.292 2.951.876 3.7.583.75 1.451 1.125 2.604 1.125 1.019 0 1.902-.163 2.648-.491a4.607 4.607 0 0 0 1.828-1.408v-12.73l-2.837-.654v-3.843h9.308v19.148l2.903.655v3.82h-8.576z"/></clipPath></defs><g><g><g><path fill="#1d1b1f" d="M.011 47.27v-3.842h9.396l.31 2.751c.71-1.019 1.56-1.804 2.55-2.358.989-.553 2.141-.83 3.456-.83 2.97 0 5.275 1.143 6.914 3.428 1.64 2.286 2.46 5.291 2.46 9.017v.459c0 3.493-.82 6.303-2.46 8.428-1.64 2.125-3.93 3.187-6.87 3.187-1.255 0-2.37-.229-3.346-.687a6.852 6.852 0 0 1-2.504-2.02v9.629l3.125.655v2.91H.344v-2.91l3.124-.655V47.926zm18.615 8.166c0-2.227-.376-4.031-1.13-5.414-.753-1.383-1.906-2.074-3.457-2.074-.975 0-1.806.196-2.493.59a4.236 4.236 0 0 0-1.629 1.68v10.35a3.94 3.94 0 0 0 1.63 1.528c.686.349 1.532.524 2.536.524 1.566 0 2.715-.604 3.446-1.812.732-1.209 1.097-2.846 1.097-4.913zM39.017 67.51c-3.457 0-6.22-1.091-8.288-3.275-2.068-2.183-3.102-4.956-3.102-8.318v-.874c0-3.507.978-6.397 2.936-8.667 1.957-2.271 4.583-3.399 7.878-3.385 3.236 0 5.747.961 7.535 2.883 1.787 1.92 2.681 4.519 2.681 7.794v3.471H34.341l-.044.131c.118 1.558.646 2.839 1.584 3.843.939 1.005 2.213 1.507 3.823 1.507 1.433 0 2.622-.142 3.568-.426.945-.284 1.98-.732 3.103-1.343l1.75 3.93c-.99.772-2.271 1.42-3.844 1.944-1.574.523-3.329.785-5.264.785zm-.576-19.606c-1.197 0-2.142.451-2.836 1.354-.695.902-1.123 2.088-1.286 3.559l.067.109h7.933v-.568c0-1.354-.321-2.435-.964-3.242-.642-.808-1.614-1.212-2.914-1.212zm12.632 15.327l3.102-.655v-14.65l-3.435-.655v-3.843h9.463l.288 3.45c.561-1.223 1.285-2.176 2.172-2.86.886-.684 1.913-1.027 3.08-1.027.34 0 .698.026 1.075.077.377.051.69.113.942.186l-.687 5.807-2.66-.065c-.945 0-1.728.182-2.348.546-.621.364-1.094.88-1.419 1.55v11.484l3.103.655v3.82H51.073zm29.177 4.28c-3.457 0-6.22-1.092-8.288-3.276-2.068-2.183-3.102-4.956-3.102-8.318v-.874c0-3.507.978-6.397 2.936-8.667 1.957-2.271 4.583-3.399 7.878-3.385 3.236 0 5.747.961 7.535 2.883 1.787 1.92 2.681 4.519 2.681 7.794v3.471H75.574l-.044.131c.118 1.558.646 2.839 1.585 3.843.938 1.005 2.212 1.507 3.822 1.507 1.433 0 2.623-.142 3.568-.426.945-.284 1.98-.732 3.103-1.343l1.75 3.93c-.99.772-2.271 1.42-3.845 1.944-1.573.523-3.327.785-5.263.785zm-.576-19.607c-1.197 0-2.142.451-2.837 1.354-.694.902-1.122 2.088-1.285 3.559l.067.109h7.933v-.568c0-1.354-.321-2.435-.964-3.242-.642-.808-1.614-1.212-2.914-1.212zm22.53-.633l-2.261.415 3.169 10.567.421 2.227h.133l.465-2.227 3.125-10.546-2.305-.436v-3.843h10.881v3.843l-2.083.327-7.07 19.454h-6.182l-7.091-19.454-2.084-.327v-3.843h10.881zm14.627 7.75c0-3.522 1-6.407 3.003-8.656 2.002-2.25 4.768-3.374 8.3-3.374 3.545 0 6.318 1.122 8.32 3.363 2.002 2.242 3.003 5.13 3.003 8.668v.458c0 3.552-1 6.445-3.003 8.679-2.002 2.234-4.76 3.351-8.277 3.351-3.56 0-6.341-1.117-8.343-3.351s-3.003-5.127-3.003-8.679zm6.471.46c0 2.153.384 3.882 1.152 5.185.768 1.302 2.01 1.954 3.724 1.954 1.669 0 2.891-.655 3.667-1.965.776-1.31 1.164-3.035 1.164-5.175v-.458c0-2.096-.392-3.807-1.175-5.131-.783-1.325-2.017-1.987-3.7-1.987-1.685 0-2.912.662-3.68 1.987-.768 1.324-1.152 3.035-1.152 5.13zm34.176 8.689c-.754 1.092-1.644 1.921-2.67 2.489-1.027.568-2.198.851-3.513.851-2.955 0-5.249-1.062-6.88-3.187-1.633-2.125-2.45-4.935-2.45-8.428v-.459c0-3.726.82-6.731 2.46-9.017 1.64-2.285 3.945-3.428 6.915-3.428 1.196 0 2.274.26 3.235.776.96.516 1.802 1.248 2.526 2.194v-9.313l-3.457-.655v-3.001h9.928v29.584l3.103.655v3.82h-8.71zm-9.042-8.275c0 2.067.351 3.694 1.053 4.88s1.85 1.78 3.446 1.78c.945 0 1.765-.19 2.46-.569a4.564 4.564 0 0 0 1.706-1.637V50.328c-.443-.757-1.008-1.343-1.695-1.758-.687-.415-1.496-.622-2.427-.622-1.58 0-2.733.691-3.457 2.074-.724 1.383-1.086 3.187-1.086 5.414zm28.247 11.157h-6.448v-5.59h6.448zm3.604-3.821l3.103-.655v-14.65l-3.435-.655v-3.843h9.463l.288 3.45c.56-1.223 1.285-2.176 2.171-2.86.887-.684 1.913-1.027 3.08-1.027.34 0 .699.026 1.075.077.377.051.69.113.942.186l-.687 5.807-2.659-.065c-.946 0-1.729.182-2.349.546-.62.364-1.093.88-1.418 1.55v11.484l3.102.655v3.82h-12.676zm35.727.83c-.768 1.106-1.718 1.958-2.848 2.554-1.13.597-2.42.895-3.867.895-2.526 0-4.506-.796-5.939-2.39-1.433-1.594-2.15-4.072-2.15-7.435v-9.759l-2.637-.655v-3.843h9.108V57.73c0 1.718.292 2.951.876 3.7.583.75 1.451 1.125 2.604 1.125 1.019 0 1.902-.163 2.648-.491a4.607 4.607 0 0 0 1.828-1.408v-12.73l-2.837-.654v-3.843h9.308v19.148l2.903.655v3.82h-8.576z"/></g><g clip-path="url(#m9t2a)"><path fill="#27a10b" d="M170 41h55v29h-55z"/><path fill="url(#m9t2b)" d="M170 41h55v29h-55z"/></g><g><path fill="#1d1b1f" d="M143.329 21.349l-6.972-.011c-.425.969-1.333 1.673-2.515 1.671l-2.999-.005a2.75 2.75 0 0 1-1.987-.813c-.269-.27-.483-.486-.587-.811l-33.786-.053c-.213-.006-.377-.061-.59-.166l-12.827-6.556-1.77-.923c-.054.055-.108 0-.163-.055l-.214-.216a93.54 93.54 0 0 1-.159-.16c-.537-.541-.806-1.241-.753-1.946.005-.105.054-.265.109-.43.108-.43.425-.97 1.07-1.399.055.055.11 0 .164-.054l1.285-.644 1.285-.642 12.111-6.147c.104.005.159-.05.268-.05l.055-.054c.05-.05.159-.05.268-.05l33.686.053c.435-1.08 1.447-1.888 2.629-1.886l2.999.005c1.018.056 1.982.708 2.465 1.624l6.972.01c1.226-.052 2.414.495 3.27 1.356.854.862 1.343 1.993 1.345 3.293l.016 10.48c.004 2.59-2.088 4.698-4.675 4.579zm-15.164-2.77l-.009-5.51-32.121.004.003 5.506zm-.027-13.826l-32.067-.05-.04 5.56 32.121-.004zM93.301 17.66l-.01-6.051-.01-6.05-9.267 4.685.004 2.7zm40.651 2.554c-.05-.05-.05-.16-.05-.27l-.026-16.962v-.22l-2.414.046c.055.165.055.265.056.485l-.029 16.797c.055.055 0 .11 0 .22zm11.262-3.448l-.022-10.476c-.001-.97-.862-1.836-1.825-1.838l-6.753-.01-.028 14.2 6.754.012a1.979 1.979 0 0 0 1.874-1.888z"/></g><g><path fill="#1d1b1f" d="M0 32h225v4H0z"/></g><g><path fill="#1d1b1f" d="M0 74h225v4H0z"/></g></g></g></svg>