<svg xmlns="http://www.w3.org/2000/svg" width="132" height="48" viewBox="0 0 132 48"><defs><linearGradient id="21aqb" x1="99.72" x2="131.72" y1="34.31" y2="35.26" gradientUnits="userSpaceOnUse"><stop offset="0" stop-color="#821dc9"/><stop offset="1" stop-color="#4600cd"/></linearGradient><clipPath id="21aqa"><path d="M.007 30.25v-2.22h5.512l.182 1.589a4.462 4.462 0 0 1 1.495-1.362c.58-.32 1.257-.479 2.028-.479 1.742 0 3.095.66 4.057 1.98.962 1.32 1.443 3.056 1.443 5.208v.265c0 2.018-.481 3.64-1.443 4.868-.962 1.228-2.306 1.842-4.03 1.842-.737 0-1.392-.133-1.964-.398a4.01 4.01 0 0 1-1.469-1.166v5.561l1.833.379v1.681H.201v-1.681l1.834-.379v-15.31zm10.92 4.716c0-1.286-.22-2.328-.663-3.127-.442-.799-1.118-1.199-2.028-1.199-.572 0-1.06.114-1.462.341-.403.227-.722.551-.956.971v5.978c.234.387.553.681.956.883.403.202.899.303 1.488.303.919 0 1.593-.35 2.022-1.047.429-.698.643-1.644.643-2.838zm11.963 6.975c-2.028 0-3.649-.63-4.862-1.892-1.214-1.261-1.82-2.863-1.82-4.805v-.505c0-2.026.574-3.695 1.722-5.006 1.149-1.312 2.69-1.963 4.622-1.955 1.898 0 3.372.555 4.42 1.665 1.049 1.11 1.574 2.61 1.574 4.502v2.005h-8.399l-.026.076c.07.9.379 1.64.93 2.22.55.58 1.297.87 2.242.87.84 0 1.538-.082 2.093-.246a9.805 9.805 0 0 0 1.82-.776l1.027 2.27c-.58.446-1.332.82-2.255 1.123-.923.302-1.953.454-3.088.454zm-.338-11.325c-.702 0-1.257.26-1.664.781-.408.522-.659 1.207-.754 2.056l.039.063h4.654v-.328c0-.782-.188-1.406-.565-1.872-.377-.467-.947-.7-1.71-.7zm7.41 8.853l1.82-.379v-8.462l-2.014-.378v-2.22h5.551l.17 1.993c.328-.706.753-1.257 1.273-1.652a2.903 2.903 0 0 1 1.807-.593c.2 0 .41.014.63.044.222.03.406.065.553.107l-.403 3.355-1.56-.038c-.555 0-1.014.105-1.378.315-.364.21-.641.509-.832.896v6.633l1.82.379v2.207h-7.436zM47.08 41.94c-2.028 0-3.649-.63-4.862-1.892-1.214-1.261-1.82-2.863-1.82-4.805v-.505c0-2.026.574-3.695 1.722-5.006 1.149-1.312 2.69-1.963 4.622-1.955 1.898 0 3.372.555 4.42 1.665 1.05 1.11 1.574 2.61 1.574 4.502v2.005h-8.399l-.026.076c.07.9.379 1.64.93 2.22.55.58 1.297.87 2.242.87.84 0 1.539-.082 2.093-.246a9.802 9.802 0 0 0 1.82-.776l1.028 2.27c-.581.446-1.333.82-2.256 1.123-.923.302-1.953.454-3.088.454zm-.338-11.325c-.702 0-1.257.26-1.664.781-.408.522-.659 1.207-.754 2.056l.039.063h4.654v-.328c0-.782-.188-1.406-.565-1.872-.377-.467-.947-.7-1.71-.7zm13.217-.366l-1.326.24 1.86 6.103.246 1.287h.078l.273-1.287 1.833-6.091-1.352-.252v-2.22h6.384v2.22l-1.222.189-4.147 11.237h-3.628l-4.16-11.237-1.222-.19V28.03h6.383zm8.582 4.477c0-2.035.587-3.702 1.762-5 1.174-1.3 2.797-1.949 4.868-1.949 2.08 0 3.708.647 4.882 1.942 1.175 1.295 1.762 2.964 1.762 5.007v.265c0 2.051-.587 3.722-1.762 5.013-1.174 1.29-2.793 1.936-4.856 1.936-2.088 0-3.72-.646-4.894-1.936-1.175-1.29-1.762-2.962-1.762-5.013zm3.796.265c0 1.244.225 2.242.676 2.995.45.753 1.179 1.129 2.184 1.129.98 0 1.697-.379 2.152-1.135.455-.757.683-1.753.683-2.99v-.264c0-1.211-.23-2.199-.69-2.964-.459-.765-1.183-1.147-2.17-1.147-.989 0-1.708.382-2.159 1.147-.45.765-.676 1.753-.676 2.964zm20.05 5.02c-.442.63-.964 1.109-1.567 1.437-.602.328-1.289.492-2.06.492-1.734 0-3.08-.614-4.037-1.842-.958-1.227-1.437-2.85-1.437-4.868v-.265c0-2.152.481-3.888 1.443-5.208.963-1.32 2.315-1.98 4.057-1.98.702 0 1.334.15 1.898.448.563.298 1.057.72 1.482 1.267v-5.38l-2.028-.377v-.75h5.824V39.09l1.82.379v2.207h-5.109zm-5.304-4.78c0 1.193.205 2.133.617 2.818.412.685 1.086 1.028 2.022 1.028.554 0 1.035-.11 1.443-.328a2.659 2.659 0 0 0 1.001-.946v-5.789A2.847 2.847 0 0 0 91.171 31c-.403-.24-.877-.36-1.423-.36-.928 0-1.604.4-2.028 1.199-.425.799-.637 1.84-.637 3.127zm16.571 6.444h-3.783v-3.229h3.783zm2.114-2.207l1.82-.379v-8.462l-2.015-.378v-2.22h5.552l.169 1.993c.33-.706.754-1.257 1.274-1.652a2.903 2.903 0 0 1 1.807-.593c.2 0 .41.014.63.044.222.03.406.065.553.107l-.403 3.355-1.56-.038c-.555 0-1.014.105-1.378.315-.364.21-.641.509-.832.896v6.633l1.82.379v2.207h-7.436zm20.96.479a4.652 4.652 0 0 1-1.67 1.476c-.664.344-1.42.517-2.27.517-1.481 0-2.643-.46-3.483-1.381-.841-.921-1.262-2.352-1.262-4.295v-5.637l-1.547-.378v-2.22h5.344v8.26c0 .993.17 1.705.513 2.138.343.433.852.65 1.528.65.598 0 1.116-.095 1.553-.284.438-.19.796-.46 1.073-.813v-7.353l-1.664-.378v-2.22h5.46v11.06l1.704.379v2.207h-5.032z"/></clipPath></defs><g><g><g><path fill="#fff" d="M.007 30.25v-2.22h5.512l.182 1.589a4.462 4.462 0 0 1 1.495-1.362c.58-.32 1.257-.479 2.028-.479 1.742 0 3.095.66 4.057 1.98.962 1.32 1.443 3.056 1.443 5.208v.265c0 2.018-.481 3.64-1.443 4.868-.962 1.228-2.306 1.842-4.03 1.842-.737 0-1.392-.133-1.964-.398a4.01 4.01 0 0 1-1.469-1.166v5.561l1.833.379v1.681H.201v-1.681l1.834-.379v-15.31zm10.92 4.716c0-1.286-.22-2.328-.663-3.127-.442-.799-1.118-1.199-2.028-1.199-.572 0-1.06.114-1.462.341-.403.227-.722.551-.956.971v5.978c.234.387.553.681.956.883.403.202.899.303 1.488.303.919 0 1.593-.35 2.022-1.047.429-.698.643-1.644.643-2.838zm11.963 6.975c-2.028 0-3.649-.63-4.862-1.892-1.214-1.261-1.82-2.863-1.82-4.805v-.505c0-2.026.574-3.695 1.722-5.006 1.149-1.312 2.69-1.963 4.622-1.955 1.898 0 3.372.555 4.42 1.665 1.049 1.11 1.574 2.61 1.574 4.502v2.005h-8.399l-.026.076c.07.9.379 1.64.93 2.22.55.58 1.297.87 2.242.87.84 0 1.538-.082 2.093-.246a9.805 9.805 0 0 0 1.82-.776l1.027 2.27c-.58.446-1.332.82-2.255 1.123-.923.302-1.953.454-3.088.454zm-.338-11.325c-.702 0-1.257.26-1.664.781-.408.522-.659 1.207-.754 2.056l.039.063h4.654v-.328c0-.782-.188-1.406-.565-1.872-.377-.467-.947-.7-1.71-.7zm7.41 8.853l1.82-.379v-8.462l-2.014-.378v-2.22h5.551l.17 1.993c.328-.706.753-1.257 1.273-1.652a2.903 2.903 0 0 1 1.807-.593c.2 0 .41.014.63.044.222.03.406.065.553.107l-.403 3.355-1.56-.038c-.555 0-1.014.105-1.378.315-.364.21-.641.509-.832.896v6.633l1.82.379v2.207h-7.436zM47.08 41.94c-2.028 0-3.649-.63-4.862-1.892-1.214-1.261-1.82-2.863-1.82-4.805v-.505c0-2.026.574-3.695 1.722-5.006 1.149-1.312 2.69-1.963 4.622-1.955 1.898 0 3.372.555 4.42 1.665 1.05 1.11 1.574 2.61 1.574 4.502v2.005h-8.399l-.026.076c.07.9.379 1.64.93 2.22.55.58 1.297.87 2.242.87.84 0 1.539-.082 2.093-.246a9.802 9.802 0 0 0 1.82-.776l1.028 2.27c-.581.446-1.333.82-2.256 1.123-.923.302-1.953.454-3.088.454zm-.338-11.325c-.702 0-1.257.26-1.664.781-.408.522-.659 1.207-.754 2.056l.039.063h4.654v-.328c0-.782-.188-1.406-.565-1.872-.377-.467-.947-.7-1.71-.7zm13.217-.366l-1.326.24 1.86 6.103.246 1.287h.078l.273-1.287 1.833-6.091-1.352-.252v-2.22h6.384v2.22l-1.222.189-4.147 11.237h-3.628l-4.16-11.237-1.222-.19V28.03h6.383zm8.582 4.477c0-2.035.587-3.702 1.762-5 1.174-1.3 2.797-1.949 4.868-1.949 2.08 0 3.708.647 4.882 1.942 1.175 1.295 1.762 2.964 1.762 5.007v.265c0 2.051-.587 3.722-1.762 5.013-1.174 1.29-2.793 1.936-4.856 1.936-2.088 0-3.72-.646-4.894-1.936-1.175-1.29-1.762-2.962-1.762-5.013zm3.796.265c0 1.244.225 2.242.676 2.995.45.753 1.179 1.129 2.184 1.129.98 0 1.697-.379 2.152-1.135.455-.757.683-1.753.683-2.99v-.264c0-1.211-.23-2.199-.69-2.964-.459-.765-1.183-1.147-2.17-1.147-.989 0-1.708.382-2.159 1.147-.45.765-.676 1.753-.676 2.964zm20.05 5.02c-.442.63-.964 1.109-1.567 1.437-.602.328-1.289.492-2.06.492-1.734 0-3.08-.614-4.037-1.842-.958-1.227-1.437-2.85-1.437-4.868v-.265c0-2.152.481-3.888 1.443-5.208.963-1.32 2.315-1.98 4.057-1.98.702 0 1.334.15 1.898.448.563.298 1.057.72 1.482 1.267v-5.38l-2.028-.377v-.75h5.824V39.09l1.82.379v2.207h-5.109zm-5.304-4.78c0 1.193.205 2.133.617 2.818.412.685 1.086 1.028 2.022 1.028.554 0 1.035-.11 1.443-.328a2.659 2.659 0 0 0 1.001-.946v-5.789A2.847 2.847 0 0 0 91.171 31c-.403-.24-.877-.36-1.423-.36-.928 0-1.604.4-2.028 1.199-.425.799-.637 1.84-.637 3.127zm16.571 6.444h-3.783v-3.229h3.783zm2.114-2.207l1.82-.379v-8.462l-2.015-.378v-2.22h5.552l.169 1.993c.33-.706.754-1.257 1.274-1.652a2.903 2.903 0 0 1 1.807-.593c.2 0 .41.014.63.044.222.03.406.065.553.107l-.403 3.355-1.56-.038c-.555 0-1.014.105-1.378.315-.364.21-.641.509-.832.896v6.633l1.82.379v2.207h-7.436zm20.96.479a4.652 4.652 0 0 1-1.67 1.476c-.664.344-1.42.517-2.27.517-1.481 0-2.643-.46-3.483-1.381-.841-.921-1.262-2.352-1.262-4.295v-5.637l-1.547-.378v-2.22h5.344v8.26c0 .993.17 1.705.513 2.138.343.433.852.65 1.528.65.598 0 1.116-.095 1.553-.284.438-.19.796-.46 1.073-.813v-7.353l-1.664-.378v-2.22h5.46v11.06l1.704.379v2.207h-5.032z"/></g><g clip-path="url(#21aqa)"><path fill="#27a10b" d="M99.725 26.261H132v17.045H99.725z"/><path fill="url(#21aqb)" d="M99.725 26.261H132v17.045H99.725z"/></g><g><path fill="#fff" d="M86.857 14.849l-4.683-.008c-.285.674-.895 1.163-1.689 1.162L78.471 16c-.507-.001-.974-.19-1.335-.566-.18-.188-.324-.337-.394-.563l-22.691-.038a.867.867 0 0 1-.397-.115L45.04 10.16l-1.189-.642c-.036.039-.073 0-.11-.038l-.143-.15-.107-.111a1.767 1.767 0 0 1-.506-1.354c.003-.073.037-.184.073-.298.073-.3.286-.674.719-.973.037.039.073 0 .11-.038l.863-.447.863-.447 8.134-4.273c.07.003.107-.035.18-.035l.037-.038c.033-.035.107-.035.18-.034l22.624.037c.293-.75.972-1.313 1.766-1.312l2.014.003c.684.04 1.331.493 1.656 1.13l4.682.007c.824-.037 1.621.344 2.196.943.574.599.902 1.385.904 2.289l.01 7.287c.003 1.8-1.402 3.265-3.14 3.183zm-10.185-1.926l-.006-3.83-21.573.002.002 3.828zm-.018-9.613l-21.537-.035-.027 3.866 21.574-.003zm-23.397 8.974l-.007-4.207-.006-4.207-6.225 3.258.003 1.878zm27.302 1.776c-.033-.035-.033-.111-.034-.188l-.017-11.793v-.153l-1.621.032a.947.947 0 0 1 .037.337l-.02 11.679c.038.038.001.076.001.152zm7.564-2.397l-.015-7.284c0-.674-.579-1.276-1.226-1.278l-4.535-.007-.019 9.874 4.536.007c.683-.037 1.223-.6 1.259-1.312z"/></g><g><path fill="#fff" d="M0 46h132v2H0z"/></g><g><path fill="#fff" d="M0 22h132v2H0z"/></g></g></g></svg>