<svg xmlns="http://www.w3.org/2000/svg" width="20" height="15" viewBox="0 0 20 15"><defs><linearGradient id="t5yoa" x1="0" x2="20" y1="8" y2="7" gradientUnits="userSpaceOnUse"><stop offset="0" stop-color="#821dc9"/><stop offset="1" stop-color="#4600cd"/></linearGradient></defs><g><g><path fill="#ddd4cf" d="M20 2.25v10.498C20 13.99 18.935 15 17.626 15H2.374C1.064 15 0 13.99 0 12.748V2.251C0 1.009 1.065 0 2.374 0h15.252C18.935 0 20 1.01 20 2.25zm-1.634 10.762V3.444l-7.24 6.04a.832.832 0 0 1-.531.193H9.372a.831.831 0 0 1-.531-.192L1.6 3.445v9.567c0 .148.177.277.379.277h16.007c.202 0 .38-.13.38-.277zM17.712 1.71H2.32l7.696 6.418z"/><path fill="url(#t5yoa)" d="M20 2.25v10.498C20 13.99 18.935 15 17.626 15H2.374C1.064 15 0 13.99 0 12.748V2.251C0 1.009 1.065 0 2.374 0h15.252C18.935 0 20 1.01 20 2.25zm-1.634 10.762V3.444l-7.24 6.04a.832.832 0 0 1-.531.193H9.372a.831.831 0 0 1-.531-.192L1.6 3.445v9.567c0 .148.177.277.379.277h16.007c.202 0 .38-.13.38-.277zM17.712 1.71H2.32l7.696 6.418z"/></g></g></svg>