<?xml version="1.0" encoding="utf-8"?><svg xmlns="http://www.w3.org/2000/svg" xmlns:xlink="http://www.w3.org/1999/xlink"><symbol viewBox="0 0 15 11" id="arrow-right" xmlns="http://www.w3.org/2000/svg"><path d="M14.768 4.974L9.71.217a.826.826 0 00-1.117 0 .712.712 0 000 1.051L12.3 4.756H.791C.353 4.756 0 5.09 0 5.5s.354.743.79.743h11.511L8.591 9.73a.712.712 0 000 1.051.815.815 0 00.56.218.814.814 0 00.558-.218l5.06-4.757a.712.712 0 000-1.05z"/></symbol><symbol viewBox="0 0 10 15" id="call" xmlns="http://www.w3.org/2000/svg"><path d="M9.894 13.087l-1.247-2.525a1.014 1.014 0 00-1.377-.435l-1.248.641a31.271 31.271 0 01-.151-.168c-.484-.533-1.146-1.265-1.718-2.422-.573-1.16-.755-2.14-.888-2.854l-.042-.219.837-.43.412-.21c.512-.263.725-.886.477-1.388L3.702.552A1.012 1.012 0 002.325.118l-.7.361.01.02c-.25.17-.482.384-.684.631a3.41 3.41 0 00-.448.724C-.415 3.85-.099 6.062 1.594 9.49c2.34 4.737 5.243 5.416 5.37 5.444a3.246 3.246 0 001.742-.12l.008.014.703-.352c.51-.263.724-.885.477-1.388z"/></symbol><symbol viewBox="0 0 15 11" id="check" xmlns="http://www.w3.org/2000/svg"><path d="M14.786.937L14.09.221a.724.724 0 00-1.042 0L5.766 7.734 1.95 3.799a.724.724 0 00-1.042 0l-.695.717a.78.78 0 000 1.074l5.029 5.185A.72.72 0 005.76 11a.715.715 0 00.519-.225l8.498-8.764a.772.772 0 00.008-1.074z"/></symbol><symbol viewBox="0 0 37 33" id="cloud_icon" xmlns="http://www.w3.org/2000/svg"><path d="M34.52 23.58a9.23 9.23 0 01-6.102 2.908h-5.722c-.57 0-1.027-.44-1.027-.991 0-.551.456-.991 1.027-.991h5.607c3.668-.272 6.643-3.444 6.643-7.092 0-3.444-2.557-6.46-5.943-7.019a1.005 1.005 0 01-.852-.88c-.426-4.303-4.131-7.548-8.62-7.548-3.34 0-6.414 1.88-7.837 4.794a1.047 1.047 0 01-1.286.507 3.87 3.87 0 00-1.3-.22c-2.1 0-3.813 1.651-3.813 3.678 0 .447.076.866.229 1.262a.983.983 0 01-.45 1.204c-1.863 1.05-3.02 2.988-3.02 5.066 0 3.216 2.618 6.071 5.73 6.255h6.512c.57 0 1.027.44 1.027.991 0 .55-.456.991-1.027.991H7.692c-2.07-.11-4.01-1.057-5.478-2.657C.784 22.274 0 20.298 0 18.265c0-2.518 1.27-4.882 3.363-6.35a5.979 5.979 0 01-.122-1.175c0-3.12 2.633-5.66 5.866-5.66.38 0 .761.037 1.126.103a10.463 10.463 0 013.477-3.531 10.968 10.968 0 015.813-1.653c2.678 0 5.25.962 7.228 2.71 1.78 1.57 2.945 3.641 3.34 5.91 3.987 1.013 6.901 4.676 6.909 8.795 0 2.275-.875 4.463-2.48 6.167zM13.064 19.5c-.26 0-.525-.103-.723-.294a.964.964 0 010-1.402l5.44-5.25c.19-.19.456-.293.723-.293.266 0 .532.11.723.294l5.44 5.249a.964.964 0 010 1.402 1.04 1.04 0 01-1.446 0l-3.69-3.56V32.01c0 .55-.457.99-1.027.99-.571 0-1.027-.44-1.027-.99V15.644l-3.69 3.561a1.02 1.02 0 01-.723.294z"/></symbol><symbol viewBox="0 0 15 9" id="contact-car" xmlns="http://www.w3.org/2000/svg"><path d="M10.694.171c1.084.132 1.352.43 1.687.962.334.533.763 1.477.763 1.477l.16-.206a.489.489 0 01.442-.206c.174.006.916.04 1.084.206a.423.423 0 01-.04.653c-.174.108-.803.31-.803.31s.935.44 1.004 1.545c.086 1.378-.442 2.267-.442 2.267v1.065c0 .635-.682.756-.682.756H12.26c-.656 0-.803-.722-.803-.722v-.343s-1.647.068-4.177.068c-2.53 0-3.694-.068-3.694-.068v.275c0 .692-.764.79-.764.79H1.216C.56 9 .493 8.21.493 8.21V7.179S-.19 5.753.051 4.74c.241-1.013.964-1.34.964-1.34s-.174-.097-.482-.206c-.308-.109-.508-.269-.441-.55.066-.28.36-.406.883-.412.522-.005.643.075.763.206.12.132.16.207.16.207s.242-.739.643-1.374c.402-.636.697-.796 1.165-.962.469-.166 1.548-.3 3.976-.31.322 0 2.06.057 3.012.172zM7.602.515c-2.15 0-3.689.12-4.137.446-.448.327-.755 1.08-.964 1.477a3.458 3.458 0 00-.281.688s2.595-.138 5.382-.138c2.786 0 5.26.138 5.26.138s-.086-.254-.401-.86c-.315-.604-.514-1.506-2.008-1.614C9.786.604 9.751.515 7.602.515zm-4.498 4.26c-.647-.152-1.237-.293-1.486-.138-.25.154-.415.487-.201.962.213.474.581.446 1.084.446.503 0 1.211.021 1.326-.034.114-.055.278-.201.32-.481.044-.28-.082-.531-1.043-.756zm7.79.755c.044.28.208.426.322.481.115.055.822.034 1.325.034s.871.028 1.085-.446c.213-.475.048-.808-.201-.962-.25-.155-.84-.014-1.486.137-.962.225-1.087.477-1.044.756z"/></symbol><symbol viewBox="0 0 12 12" id="contact-clock" xmlns="http://www.w3.org/2000/svg"><path d="M12 6A6 6 0 110 6a6 6 0 0112 0zm-2.991.726a.415.415 0 00-.415-.415h-2.18V2.49a.415.415 0 00-.83 0v4.236c0 .229.187.415.416.415l.025-.003c.008 0 .016.003.025.003h2.544a.415.415 0 00.415-.415z"/></symbol><symbol viewBox="0 0 14 11" id="contact-home" xmlns="http://www.w3.org/2000/svg"><path d="M11.938 5.94v4.36a.708.708 0 01-.71.703H2.772a.707.707 0 01-.71-.704V5.941a.7.7 0 01.334-.597l4.227-2.616a.715.715 0 01.753 0l4.227 2.616a.7.7 0 01.335.597zm1.954-.975a.71.71 0 01-.98.224L7 1.531 1.087 5.19a.714.714 0 01-.98-.225.7.7 0 01.227-.97l6.29-3.89a.716.716 0 01.753 0l6.29 3.892a.7.7 0 01.225.97z"/></symbol><symbol viewBox="0 0 11 14" id="contact-place" xmlns="http://www.w3.org/2000/svg"><path d="M11 5.25C11 8.149 6.417 14 5.5 14 4.583 14 0 8.149 0 5.25 0 2.35 2.463 0 5.5 0S11 2.35 11 5.25zm-1.833 0c0-1.93-1.645-3.5-3.667-3.5s-3.667 1.57-3.667 3.5c0 1.929 1.645 3.5 3.667 3.5s3.667-1.571 3.667-3.5z"/></symbol><symbol viewBox="0 0 65 65" id="delivery-i-1" xmlns="http://www.w3.org/2000/svg"><path d="M21.931 49.993a1.257 1.257 0 01-.098.485 1.251 1.251 0 01-.467.57 1.246 1.246 0 01-.457.19 1.239 1.239 0 01-.952-.19 1.23 1.23 0 01-.35-.35 1.18 1.18 0 01-.117-.22 1.257 1.257 0 01.467-1.541 1.268 1.268 0 011.974 1.056zm33.228 7.059c-.033.015-.067.03-.102.042l-19.55 7.005a10.113 10.113 0 01-4.206.9 11.387 11.387 0 01-4.14-.793c-3.967-1.785-6.17-3.056-7.627-3.897-1.895-1.094-2.574-1.485-4.637-1.665v.365a1.27 1.27 0 01-1.27 1.27h-3.54v1.097a1.27 1.27 0 01-1.27 1.27H1.27A1.27 1.27 0 010 61.377V45.36c0-.702.57-1.27 1.27-1.27h11.75c1.679-2.483 4.613-4.76 7.93-4.76 4.745 0 7.28 2.679 8.09 3.726l9.722 3.302.033.012c1.804.67 3.08 1.988 3.59 3.538l8.845-2.448c3.243-1.108 5.984-.097 7.152 2.64l.016.037c1.414 3.631-1.37 6.056-3.239 6.916zM7.55 46.629H2.54v13.477h5.01zm4.809 0h-2.27v11.11h2.27zm43.681 4.449c-.804-1.854-2.611-1.685-3.988-1.214l-9.532 2.642a4.983 4.983 0 01-2.46 3.319 4.983 4.983 0 01-3.846.432L24.82 52.644a1.27 1.27 0 01.767-2.422l11.374 3.607a2.46 2.46 0 001.864-.224A2.457 2.457 0 0040 52.12c.391-1.377-.46-2.758-2.072-3.363l-10.09-3.427a1.268 1.268 0 01-.673-.538c-.071-.113-1.9-2.921-6.214-2.921-2.516 0-4.85 2.02-6.053 3.994v10.232c2.827.234 3.828.812 5.905 2.01 1.495.863 3.54 2.043 7.371 3.768 1.014.395 3.601 1.144 6.323-.108a1.072 1.072 0 01.108-.044l19.541-7.001c.563-.269 2.727-1.467 1.894-3.644zM45.608 16.915a1.25 1.25 0 01-.215.705 1.207 1.207 0 01-.35.35 1.305 1.305 0 01-.456.19 1.28 1.28 0 01-.496 0 1.264 1.264 0 01-.65-.347 1.244 1.244 0 01-.347-.65 1.252 1.252 0 01.19-.953 1.22 1.22 0 01.35-.35 1.234 1.234 0 01.457-.19 1.265 1.265 0 011.42.758 1.244 1.244 0 01.097.487zM65 5.53v16.02a1.27 1.27 0 01-1.27 1.27H51.98c-1.68 2.483-4.613 4.76-7.93 4.76-.36 0-.709-.016-1.044-.045L30.099 40.45c-.504.504-1.409.387-1.796 0L4.146 16.274c-.545-.545-.457-1.339 0-1.796L18.283.33a1.269 1.269 0 011.795 0l4.306 4.31 5.11-1.831c3.614-1.64 6.998-.64 8.29-.13l.055.023c3.967 1.785 6.17 3.056 7.627 3.897 1.895 1.094 2.574 1.485 4.637 1.666v-.366c0-.702.569-1.27 1.27-1.27h3.54V5.53c0-.701.568-1.27 1.27-1.27h7.547c.701 0 1.27.569 1.27 1.27zm-48.713.39c.86.532 1.855.817 2.894.817a5.475 5.475 0 002.893-.817l-2.893-2.896zm-5.738 9.455c0-1.04-.285-2.035-.816-2.896l-2.894 2.896 2.894 2.896c.532-.86.816-1.856.816-2.896zM32.094 34.86a5.524 5.524 0 00-5.786 0l2.893 2.895zm4.728-4.731a8.116 8.116 0 01-1.344-6.439l-4.287-1.456a7.213 7.213 0 01-1.883 3.278 7.211 7.211 0 01-5.117 2.118 7.212 7.212 0 01-5.117-2.118c-2.822-2.824-2.822-7.418 0-10.242a7.234 7.234 0 013.798-2 4.98 4.98 0 012.068-2.186 5.003 5.003 0 011.71-.584l-2.747-2.748a7.989 7.989 0 01-4.722 1.528 7.988 7.988 0 01-4.723-1.528l-2.896 2.9a8 8 0 011.526 4.725 8.001 8.001 0 01-1.526 4.726L24.479 33.03a8.062 8.062 0 019.444 0zM22.401 16.044a4.69 4.69 0 00-1.532 1.022 4.709 4.709 0 000 6.648 4.7 4.7 0 007.908-2.3l-2.539-.863-.033-.012c-2.166-.804-3.57-2.544-3.804-4.495zM40.08 26.868a9.87 9.87 0 01-2.24-1.213c.044.931.322 1.843.812 2.642zM50.103 10.81c-2.827-.233-3.828-.811-5.905-2.01-1.495-.862-3.54-2.043-7.372-3.768-1.014-.394-3.6-1.144-6.322.108a1.022 1.022 0 01-.051.022l-.013.005-.044.017-4.026 1.443 4.684 4.686.002.003.079.079 9.046 2.868a1.27 1.27 0 01-.767 2.423L28.04 13.079a2.454 2.454 0 00-1.864.223 2.458 2.458 0 00-1.175 1.484v.003c-.39 1.376.46 2.757 2.071 3.362l10.094 3.428c.31.105.552.318.7.582.016.024.126.169.152.207.486.617 1.961 2.177 4.703 2.575l.005.001c.412.06.854.093 1.324.093 2.516 0 4.85-2.02 6.053-3.994zm4.81-1.64h-2.27v11.108h2.27zm7.548-2.368h-5.01v13.476h5.01z"/><path d="M21.931 49.993a1.257 1.257 0 01-.098.485 1.251 1.251 0 01-.467.57 1.246 1.246 0 01-.457.19 1.239 1.239 0 01-.952-.19 1.23 1.23 0 01-.35-.35 1.18 1.18 0 01-.117-.22 1.257 1.257 0 01.467-1.541 1.268 1.268 0 011.974 1.056zm33.228 7.059c-.033.015-.067.03-.102.042l-19.55 7.005a10.113 10.113 0 01-4.206.9 11.387 11.387 0 01-4.14-.793c-3.967-1.785-6.17-3.056-7.627-3.897-1.895-1.094-2.574-1.485-4.637-1.665v.365a1.27 1.27 0 01-1.27 1.27h-3.54v1.097a1.27 1.27 0 01-1.27 1.27H1.27A1.27 1.27 0 010 61.377V45.36c0-.702.57-1.27 1.27-1.27h11.75c1.679-2.483 4.613-4.76 7.93-4.76 4.745 0 7.28 2.679 8.09 3.726l9.722 3.302.033.012c1.804.67 3.08 1.988 3.59 3.538l8.845-2.448c3.243-1.108 5.984-.097 7.152 2.64l.016.037c1.414 3.631-1.37 6.056-3.239 6.916zM7.55 46.629H2.54v13.477h5.01zm4.809 0h-2.27v11.11h2.27zm43.681 4.449c-.804-1.854-2.611-1.685-3.988-1.214l-9.532 2.642a4.983 4.983 0 01-2.46 3.319 4.983 4.983 0 01-3.846.432L24.82 52.644a1.27 1.27 0 01.767-2.422l11.374 3.607a2.46 2.46 0 001.864-.224A2.457 2.457 0 0040 52.12c.391-1.377-.46-2.758-2.072-3.363l-10.09-3.427a1.268 1.268 0 01-.673-.538c-.071-.113-1.9-2.921-6.214-2.921-2.516 0-4.85 2.02-6.053 3.994v10.232c2.827.234 3.828.812 5.905 2.01 1.495.863 3.54 2.043 7.371 3.768 1.014.395 3.601 1.144 6.323-.108a1.072 1.072 0 01.108-.044l19.541-7.001c.563-.269 2.727-1.467 1.894-3.644zM45.608 16.915a1.25 1.25 0 01-.215.705 1.207 1.207 0 01-.35.35 1.305 1.305 0 01-.456.19 1.28 1.28 0 01-.496 0 1.264 1.264 0 01-.65-.347 1.244 1.244 0 01-.347-.65 1.252 1.252 0 01.19-.953 1.22 1.22 0 01.35-.35 1.234 1.234 0 01.457-.19 1.265 1.265 0 011.42.758 1.244 1.244 0 01.097.487zM65 5.53v16.02a1.27 1.27 0 01-1.27 1.27H51.98c-1.68 2.483-4.613 4.76-7.93 4.76-.36 0-.709-.016-1.044-.045L30.099 40.45c-.504.504-1.409.387-1.796 0L4.146 16.274c-.545-.545-.457-1.339 0-1.796L18.283.33a1.269 1.269 0 011.795 0l4.306 4.31 5.11-1.831c3.614-1.64 6.998-.64 8.29-.13l.055.023c3.967 1.785 6.17 3.056 7.627 3.897 1.895 1.094 2.574 1.485 4.637 1.666v-.366c0-.702.569-1.27 1.27-1.27h3.54V5.53c0-.701.568-1.27 1.27-1.27h7.547c.701 0 1.27.569 1.27 1.27zm-48.713.39c.86.532 1.855.817 2.894.817a5.475 5.475 0 002.893-.817l-2.893-2.896zm-5.738 9.455c0-1.04-.285-2.035-.816-2.896l-2.894 2.896 2.894 2.896c.532-.86.816-1.856.816-2.896zM32.094 34.86a5.524 5.524 0 00-5.786 0l2.893 2.895zm4.728-4.731a8.116 8.116 0 01-1.344-6.439l-4.287-1.456a7.213 7.213 0 01-1.883 3.278 7.211 7.211 0 01-5.117 2.118 7.212 7.212 0 01-5.117-2.118c-2.822-2.824-2.822-7.418 0-10.242a7.234 7.234 0 013.798-2 4.98 4.98 0 012.068-2.186 5.003 5.003 0 011.71-.584l-2.747-2.748a7.989 7.989 0 01-4.722 1.528 7.988 7.988 0 01-4.723-1.528l-2.896 2.9a8 8 0 011.526 4.725 8.001 8.001 0 01-1.526 4.726L24.479 33.03a8.062 8.062 0 019.444 0zM22.401 16.044a4.69 4.69 0 00-1.532 1.022 4.709 4.709 0 000 6.648 4.7 4.7 0 007.908-2.3l-2.539-.863-.033-.012c-2.166-.804-3.57-2.544-3.804-4.495zM40.08 26.868a9.87 9.87 0 01-2.24-1.213c.044.931.322 1.843.812 2.642zM50.103 10.81c-2.827-.233-3.828-.811-5.905-2.01-1.495-.862-3.54-2.043-7.372-3.768-1.014-.394-3.6-1.144-6.322.108a1.022 1.022 0 01-.051.022l-.013.005-.044.017-4.026 1.443 4.684 4.686.002.003.079.079 9.046 2.868a1.27 1.27 0 01-.767 2.423L28.04 13.079a2.454 2.454 0 00-1.864.223 2.458 2.458 0 00-1.175 1.484v.003c-.39 1.376.46 2.757 2.071 3.362l10.094 3.428c.31.105.552.318.7.582.016.024.126.169.152.207.486.617 1.961 2.177 4.703 2.575l.005.001c.412.06.854.093 1.324.093 2.516 0 4.85-2.02 6.053-3.994zm4.81-1.64h-2.27v11.108h2.27zm7.548-2.368h-5.01v13.476h5.01z"/></symbol><symbol viewBox="0 0 58 65" id="delivery-i-2" xmlns="http://www.w3.org/2000/svg"><path d="M57.996 32.56v25.85c0 3.634-2.953 6.59-6.584 6.59H6.585C2.954 65 0 62.043 0 58.41V1.42A1.265 1.265 0 012.16.49l3.587 3.59L9.335.49a1.266 1.266 0 011.79 0l3.587 3.59L18.3.49a1.266 1.266 0 011.79 0l3.588 3.59L27.265.49a1.266 1.266 0 011.791 0l3.587 3.59L36.23.49a1.266 1.266 0 011.791 0l3.587 3.59L45.196.49a1.266 1.266 0 012.162.897v29.905h9.372c.7 0 1.266.567 1.266 1.267zM46.228 62.464a6.558 6.558 0 01-1.4-4.055V32.594l-.002-.035V4.446l-2.321 2.322a1.265 1.265 0 01-1.791 0l-3.587-3.59-3.588 3.59a1.266 1.266 0 01-1.79 0l-3.588-3.59-3.587 3.59a1.265 1.265 0 01-1.791 0l-3.588-3.59-3.587 3.59a1.265 1.265 0 01-1.79 0l-3.588-3.59-3.587 3.59a1.266 1.266 0 01-1.791 0l-2.32-2.32V58.41a4.058 4.058 0 004.053 4.055zm9.236-28.638h-8.105V58.41a4.058 4.058 0 004.053 4.055 4.058 4.058 0 004.052-4.055zm-26.973-9.09c0 2.065-1.505 3.808-3.546 4.328v1.034a1.267 1.267 0 11-2.532 0v-1.034c-2.041-.52-3.546-2.263-3.546-4.328a1.267 1.267 0 112.533 0c0 1.076 1.022 1.953 2.279 1.953s2.28-.877 2.28-1.953c0-1.077-1.023-1.953-2.28-1.953-2.653 0-4.812-2.014-4.812-4.488 0-2.065 1.505-3.808 3.546-4.328v-.859a1.267 1.267 0 112.532 0v.86c2.04.519 3.546 2.262 3.546 4.327a1.267 1.267 0 11-2.533 0c0-1.076-1.022-1.953-2.28-1.953-1.256 0-2.278.877-2.278 1.953 0 1.077 1.022 1.953 2.279 1.953 2.653 0 4.812 2.013 4.812 4.488zm9.177-3.22c0 .7-.567 1.267-1.267 1.267h-2.468a1.266 1.266 0 010-2.534h2.468c.7 0 1.267.567 1.267 1.267zm-22.977 0c0 .7-.567 1.267-1.266 1.267h-2.468a1.267 1.267 0 010-2.534h2.468c.7 0 1.266.567 1.266 1.267zm23.617 14.085c0 .7-.567 1.267-1.266 1.267H16.98a1.267 1.267 0 010-2.535h20.062c.7 0 1.266.568 1.266 1.268zm-26.726 0c0 .333-.136.66-.371.895a1.275 1.275 0 01-.895.372c-.333 0-.66-.136-.896-.372a1.277 1.277 0 01-.37-.895c0-.334.135-.66.37-.896.236-.236.563-.372.896-.372.333 0 .66.136.895.372.235.235.371.562.371.896zm26.726 8.363c0 .7-.567 1.267-1.266 1.267H16.98a1.267 1.267 0 010-2.534h20.062c.7 0 1.266.567 1.266 1.267zm-26.726 0c0 .333-.136.66-.371.896a1.275 1.275 0 01-.895.37 1.28 1.28 0 01-.896-.37 1.277 1.277 0 01-.37-.896c0-.333.135-.66.37-.896.236-.236.563-.371.896-.371.333 0 .66.135.895.37.235.237.371.564.371.897zm26.726 8.363c0 .7-.567 1.267-1.266 1.267H16.98a1.267 1.267 0 010-2.534h20.062c.7 0 1.266.567 1.266 1.267zm-26.726 0c0 .333-.136.66-.371.896a1.275 1.275 0 01-.895.371 1.28 1.28 0 01-.896-.371 1.277 1.277 0 01-.37-.896c0-.333.135-.66.37-.896.236-.236.563-.371.896-.371.333 0 .66.135.895.371s.371.563.371.896z"/><path d="M57.996 32.56v25.85c0 3.634-2.953 6.59-6.584 6.59H6.585C2.954 65 0 62.043 0 58.41V1.42A1.265 1.265 0 012.16.49l3.587 3.59L9.335.49a1.266 1.266 0 011.79 0l3.587 3.59L18.3.49a1.266 1.266 0 011.79 0l3.588 3.59L27.265.49a1.266 1.266 0 011.791 0l3.587 3.59L36.23.49a1.266 1.266 0 011.791 0l3.587 3.59L45.196.49a1.266 1.266 0 012.162.897v29.905h9.372c.7 0 1.266.567 1.266 1.267zM46.228 62.464a6.558 6.558 0 01-1.4-4.055V32.594l-.002-.035V4.446l-2.321 2.322a1.265 1.265 0 01-1.791 0l-3.587-3.59-3.588 3.59a1.266 1.266 0 01-1.79 0l-3.588-3.59-3.587 3.59a1.265 1.265 0 01-1.791 0l-3.588-3.59-3.587 3.59a1.265 1.265 0 01-1.79 0l-3.588-3.59-3.587 3.59a1.266 1.266 0 01-1.791 0l-2.32-2.32V58.41a4.058 4.058 0 004.053 4.055zm9.236-28.638h-8.105V58.41a4.058 4.058 0 004.053 4.055 4.058 4.058 0 004.052-4.055zm-26.973-9.09c0 2.065-1.505 3.808-3.546 4.328v1.034a1.267 1.267 0 11-2.532 0v-1.034c-2.041-.52-3.546-2.263-3.546-4.328a1.267 1.267 0 112.533 0c0 1.076 1.022 1.953 2.279 1.953s2.28-.877 2.28-1.953c0-1.077-1.023-1.953-2.28-1.953-2.653 0-4.812-2.014-4.812-4.488 0-2.065 1.505-3.808 3.546-4.328v-.859a1.267 1.267 0 112.532 0v.86c2.04.519 3.546 2.262 3.546 4.327a1.267 1.267 0 11-2.533 0c0-1.076-1.022-1.953-2.28-1.953-1.256 0-2.278.877-2.278 1.953 0 1.077 1.022 1.953 2.279 1.953 2.653 0 4.812 2.013 4.812 4.488zm9.177-3.22c0 .7-.567 1.267-1.267 1.267h-2.468a1.266 1.266 0 010-2.534h2.468c.7 0 1.267.567 1.267 1.267zm-22.977 0c0 .7-.567 1.267-1.266 1.267h-2.468a1.267 1.267 0 010-2.534h2.468c.7 0 1.266.567 1.266 1.267zm23.617 14.085c0 .7-.567 1.267-1.266 1.267H16.98a1.267 1.267 0 010-2.535h20.062c.7 0 1.266.568 1.266 1.268zm-26.726 0c0 .333-.136.66-.371.895a1.275 1.275 0 01-.895.372c-.333 0-.66-.136-.896-.372a1.277 1.277 0 01-.37-.895c0-.334.135-.66.37-.896.236-.236.563-.372.896-.372.333 0 .66.136.895.372.235.235.371.562.371.896zm26.726 8.363c0 .7-.567 1.267-1.266 1.267H16.98a1.267 1.267 0 010-2.534h20.062c.7 0 1.266.567 1.266 1.267zm-26.726 0c0 .333-.136.66-.371.896a1.275 1.275 0 01-.895.37 1.28 1.28 0 01-.896-.37 1.277 1.277 0 01-.37-.896c0-.333.135-.66.37-.896.236-.236.563-.371.896-.371.333 0 .66.135.895.37.235.237.371.564.371.897zm26.726 8.363c0 .7-.567 1.267-1.266 1.267H16.98a1.267 1.267 0 010-2.534h20.062c.7 0 1.266.567 1.266 1.267zm-26.726 0c0 .333-.136.66-.371.896a1.275 1.275 0 01-.895.371 1.28 1.28 0 01-.896-.371 1.277 1.277 0 01-.37-.896c0-.333.135-.66.37-.896.236-.236.563-.371.896-.371.333 0 .66.135.895.371s.371.563.371.896z"/></symbol><symbol viewBox="0 0 58 65" id="delivery-i-3" xmlns="http://www.w3.org/2000/svg"><path d="M57.996 32.56v25.85c0 3.634-2.954 6.59-6.584 6.59H6.585C2.954 65 0 62.043 0 58.41V1.42A1.265 1.265 0 012.16.49l3.587 3.59L9.334.49a1.266 1.266 0 011.791 0l3.587 3.59L18.3.49a1.266 1.266 0 011.79 0l3.588 3.59L27.265.49a1.266 1.266 0 011.791 0l3.587 3.59L36.23.49a1.266 1.266 0 011.791 0l3.587 3.59L45.196.49a1.266 1.266 0 012.162.897v29.905h9.372c.7 0 1.266.567 1.266 1.267zM46.228 62.464a6.558 6.558 0 01-1.4-4.055V32.594l-.002-.035V4.446l-2.321 2.322a1.265 1.265 0 01-1.791 0l-3.588-3.59-3.587 3.59a1.266 1.266 0 01-1.79 0l-3.588-3.59-3.587 3.59a1.265 1.265 0 01-1.791 0l-3.588-3.59-3.587 3.59a1.265 1.265 0 01-1.79 0l-3.588-3.59-3.587 3.59a1.266 1.266 0 01-1.791 0l-2.32-2.32V58.41a4.058 4.058 0 004.053 4.055zm9.236-28.638h-8.105V58.41a4.058 4.058 0 004.052 4.055 4.058 4.058 0 004.053-4.055zm-17.797-12.31c0 .7-.567 1.267-1.266 1.267h-2.468a1.266 1.266 0 010-2.534h2.468c.7 0 1.266.567 1.266 1.267zm-22.976 0c0 .7-.567 1.267-1.266 1.267h-2.468a1.267 1.267 0 010-2.534h2.468c.7 0 1.266.567 1.266 1.267zm23.617 14.085c0 .7-.567 1.267-1.266 1.267H16.98a1.267 1.267 0 010-2.535h20.062c.7 0 1.266.568 1.266 1.268zm-26.726 0c0 .333-.136.66-.371.895a1.275 1.275 0 01-.895.372c-.334 0-.66-.136-.896-.372a1.277 1.277 0 01-.37-.895c0-.334.135-.66.37-.896.236-.236.562-.372.896-.372.333 0 .66.136.895.372.235.235.37.562.37.896zm26.726 8.363c0 .7-.567 1.267-1.266 1.267H16.98a1.267 1.267 0 010-2.534h20.062c.7 0 1.266.567 1.266 1.267zm-26.726 0c0 .333-.136.66-.371.896a1.275 1.275 0 01-.895.37c-.334 0-.66-.135-.896-.37a1.277 1.277 0 01-.37-.896c0-.333.135-.66.37-.896.236-.236.562-.371.896-.371.333 0 .66.135.895.37.235.237.37.564.37.897zm26.726 8.363c0 .7-.567 1.267-1.266 1.267H16.98a1.267 1.267 0 010-2.534h20.062c.7 0 1.266.567 1.266 1.267zm-26.726 0c0 .333-.136.66-.371.896a1.275 1.275 0 01-.895.371c-.334 0-.66-.136-.896-.371a1.277 1.277 0 01-.37-.896c0-.333.135-.66.37-.896.236-.236.562-.371.896-.371.333 0 .66.135.895.371s.37.563.37.896zm5.51-26.645a.306.306 0 01-.092-.229V24.18c0-.092.03-.168.091-.228a.32.32 0 01.234-.09H19.6V21.69h-2.275a.32.32 0 01-.234-.09.306.306 0 01-.091-.228V19.89c0-.086.03-.16.091-.223a.31.31 0 01.234-.095H19.6v-6.254a.307.307 0 01.325-.318h5.474c1.354 0 2.46.405 3.316 1.213.857.809 1.285 1.853 1.285 3.132 0 1.28-.428 2.324-1.285 3.132-.857.809-1.962 1.213-3.316 1.213h-3.453v2.173h5.129a.32.32 0 01.234.09.31.31 0 01.091.228v1.273c0 .093-.03.17-.091.23a.32.32 0 01-.234.088h-5.129v2.91a.296.296 0 01-.096.228.324.324 0 01-.229.09h-1.696a.32.32 0 01-.233-.09.304.304 0 01-.092-.228v-2.91h-2.275a.32.32 0 01-.234-.089zm4.854-6.11h3.25c.718 0 1.296-.206 1.737-.617.44-.41.66-.948.66-1.611s-.22-1.2-.66-1.61c-.44-.411-1.02-.617-1.737-.617h-3.25z"/><path d="M57.996 32.56v25.85c0 3.634-2.954 6.59-6.584 6.59H6.585C2.954 65 0 62.043 0 58.41V1.42A1.265 1.265 0 012.16.49l3.587 3.59L9.334.49a1.266 1.266 0 011.791 0l3.587 3.59L18.3.49a1.266 1.266 0 011.79 0l3.588 3.59L27.265.49a1.266 1.266 0 011.791 0l3.587 3.59L36.23.49a1.266 1.266 0 011.791 0l3.587 3.59L45.196.49a1.266 1.266 0 012.162.897v29.905h9.372c.7 0 1.266.567 1.266 1.267zM46.228 62.464a6.558 6.558 0 01-1.4-4.055V32.594l-.002-.035V4.446l-2.321 2.322a1.265 1.265 0 01-1.791 0l-3.588-3.59-3.587 3.59a1.266 1.266 0 01-1.79 0l-3.588-3.59-3.587 3.59a1.265 1.265 0 01-1.791 0l-3.588-3.59-3.587 3.59a1.265 1.265 0 01-1.79 0l-3.588-3.59-3.587 3.59a1.266 1.266 0 01-1.791 0l-2.32-2.32V58.41a4.058 4.058 0 004.053 4.055zm9.236-28.638h-8.105V58.41a4.058 4.058 0 004.052 4.055 4.058 4.058 0 004.053-4.055zm-17.797-12.31c0 .7-.567 1.267-1.266 1.267h-2.468a1.266 1.266 0 010-2.534h2.468c.7 0 1.266.567 1.266 1.267zm-22.976 0c0 .7-.567 1.267-1.266 1.267h-2.468a1.267 1.267 0 010-2.534h2.468c.7 0 1.266.567 1.266 1.267zm23.617 14.085c0 .7-.567 1.267-1.266 1.267H16.98a1.267 1.267 0 010-2.535h20.062c.7 0 1.266.568 1.266 1.268zm-26.726 0c0 .333-.136.66-.371.895a1.275 1.275 0 01-.895.372c-.334 0-.66-.136-.896-.372a1.277 1.277 0 01-.37-.895c0-.334.135-.66.37-.896.236-.236.562-.372.896-.372.333 0 .66.136.895.372.235.235.37.562.37.896zm26.726 8.363c0 .7-.567 1.267-1.266 1.267H16.98a1.267 1.267 0 010-2.534h20.062c.7 0 1.266.567 1.266 1.267zm-26.726 0c0 .333-.136.66-.371.896a1.275 1.275 0 01-.895.37c-.334 0-.66-.135-.896-.37a1.277 1.277 0 01-.37-.896c0-.333.135-.66.37-.896.236-.236.562-.371.896-.371.333 0 .66.135.895.37.235.237.37.564.37.897zm26.726 8.363c0 .7-.567 1.267-1.266 1.267H16.98a1.267 1.267 0 010-2.534h20.062c.7 0 1.266.567 1.266 1.267zm-26.726 0c0 .333-.136.66-.371.896a1.275 1.275 0 01-.895.371c-.334 0-.66-.136-.896-.371a1.277 1.277 0 01-.37-.896c0-.333.135-.66.37-.896.236-.236.562-.371.896-.371.333 0 .66.135.895.371s.37.563.37.896zm5.51-26.645a.306.306 0 01-.092-.229V24.18c0-.092.03-.168.091-.228a.32.32 0 01.234-.09H19.6V21.69h-2.275a.32.32 0 01-.234-.09.306.306 0 01-.091-.228V19.89c0-.086.03-.16.091-.223a.31.31 0 01.234-.095H19.6v-6.254a.307.307 0 01.325-.318h5.474c1.354 0 2.46.405 3.316 1.213.857.809 1.285 1.853 1.285 3.132 0 1.28-.428 2.324-1.285 3.132-.857.809-1.962 1.213-3.316 1.213h-3.453v2.173h5.129a.32.32 0 01.234.09.31.31 0 01.091.228v1.273c0 .093-.03.17-.091.23a.32.32 0 01-.234.088h-5.129v2.91a.296.296 0 01-.096.228.324.324 0 01-.229.09h-1.696a.32.32 0 01-.233-.09.304.304 0 01-.092-.228v-2.91h-2.275a.32.32 0 01-.234-.089zm4.854-6.11h3.25c.718 0 1.296-.206 1.737-.617.44-.41.66-.948.66-1.611s-.22-1.2-.66-1.61c-.44-.411-1.02-.617-1.737-.617h-3.25z"/></symbol><symbol viewBox="0 0 64 60" id="delivery-i-4" xmlns="http://www.w3.org/2000/svg"><path d="M62.712 59.506l-61.39.085v.372l-.001-.372a1.28 1.28 0 01-1.285-1.28l-.047-35.86c.007-.414.213-.801.553-1.035l9.476-6.53v-7c0-.706.576-1.28 1.285-1.28h10.734L31.264.248a1.306 1.306 0 011.464.002l9.17 6.356H52.68c.709 0 1.286.574 1.286 1.28v7.08l9.429 6.535c.247.172.426.424.524.764a.634.634 0 01.028.178l.05 35.78c0 .707-.576 1.282-1.284 1.283zm-8.747-32.65l6.326-4.385-6.326-4.384zM26.558 6.605h10.84L31.992 2.86zm-13.97 22.106l13.176 9.079 5.465-4.226a1.304 1.304 0 011.575 0l5.427 4.197 13.164-9.125V9.167H12.587zM3.53 22.47l6.488 4.469V18zM2.601 55.7l21.033-16.264-21.075-14.52zm56.254 1.25L32.016 36.195 5.081 57.024zm2.567-1.256l-.042-30.857-21.021 14.568z"/><path d="M62.712 59.506l-61.39.085v.372l-.001-.372a1.28 1.28 0 01-1.285-1.28l-.047-35.86c.007-.414.213-.801.553-1.035l9.476-6.53v-7c0-.706.576-1.28 1.285-1.28h10.734L31.264.248a1.306 1.306 0 011.464.002l9.17 6.356H52.68c.709 0 1.286.574 1.286 1.28v7.08l9.429 6.535c.247.172.426.424.524.764a.634.634 0 01.028.178l.05 35.78c0 .707-.576 1.282-1.284 1.283zm-8.747-32.65l6.326-4.385-6.326-4.384zM26.558 6.605h10.84L31.992 2.86zm-13.97 22.106l13.176 9.079 5.465-4.226a1.304 1.304 0 011.575 0l5.427 4.197 13.164-9.125V9.167H12.587zM3.53 22.47l6.488 4.469V18zM2.601 55.7l21.033-16.264-21.075-14.52zm56.254 1.25L32.016 36.195 5.081 57.024zm2.567-1.256l-.042-30.857-21.021 14.568z"/></symbol><symbol viewBox="0 0 65 65" id="delivery-i-5" xmlns="http://www.w3.org/2000/svg"><path d="M65 32.197c0 8.601-3.37 16.687-9.487 22.768-6.117 6.081-14.25 9.43-22.902 9.43a32.589 32.589 0 01-15.105-3.71l-15.895 4.27a1.288 1.288 0 01-1.24-.331 1.265 1.265 0 01-.323-1.236l4.338-15.39a32.034 32.034 0 01-4.164-15.8 31.844 31.844 0 016.037-18.722 1.282 1.282 0 011.782-.293c.573.408.705 1.2.294 1.77a29.334 29.334 0 00-5.559 17.245 29.5 29.5 0 004.086 14.987c.176.297.222.653.129.985L3.114 61.922l14.217-3.82c.318-.085.658-.045.948.113a29.996 29.996 0 0014.332 3.641c16.45 0 29.835-13.305 29.835-29.658 0-16.354-13.384-29.659-29.835-29.659-6.268 0-12.266 1.911-17.347 5.526a1.282 1.282 0 01-1.781-.293 1.265 1.265 0 01.295-1.771C19.294 2.075 25.807 0 32.61 0c8.651 0 16.785 3.35 22.903 9.43C61.63 15.512 65 23.597 65 32.197zm-11.81 13.63a24.363 24.363 0 004.146-13.63c0-13.553-11.092-24.58-24.726-24.58-13.634 0-24.727 11.027-24.727 24.58a24.44 24.44 0 003.384 12.418l1.1 1.862c.175.297.22.652.127.985l-2.037 7.226 7.527-2.022c.318-.085.658-.045.948.113l1.803.985a24.853 24.853 0 0011.875 3.014c4.906 0 9.646-1.425 13.71-4.121a1.281 1.281 0 011.77.35 1.264 1.264 0 01-.353 1.761 27.267 27.267 0 01-15.127 4.55 27.42 27.42 0 01-13.104-3.329l-1.353-.738-9.199 2.471a1.284 1.284 0 01-1.24-.332 1.264 1.264 0 01-.322-1.236l2.496-8.858-.824-1.396A26.967 26.967 0 015.33 32.198c0-7.245 2.838-14.056 7.99-19.178 5.152-5.12 12.003-7.942 19.29-7.942s14.139 2.82 19.29 7.942c5.153 5.122 7.99 11.933 7.99 19.177a26.89 26.89 0 01-4.575 15.039 1.282 1.282 0 01-1.771.351 1.265 1.265 0 01-.354-1.76zm-26.9-15.672a.246.246 0 00.014.097c1.06 1.821 2.976 3.972 4.77 5.354 2.848 2.191 4.856 3.07 5.457 3.028.284-.297.953-1.186 1.288-1.632.544-.724.724-.959.905-1.116l.02-.022c1.339-1.444 2.827-1.165 3.84-.677 1.498.723 5.155 2.525 5.51 2.7.627.282 1.6 1.17 1.555 2.86-.033 1.207-.085 1.67-.106 1.817-.033.231-.258 1.563-1.334 2.916-1.014 1.274-3.007 2.815-6.738 2.923a9.635 9.635 0 01-.322.005c-3.322 0-6.89-1.45-9.333-2.688-4.906-2.486-8.223-5.29-11.832-9.997-3.26-4.253-4.727-8.006-4.362-11.156.794-6.853 5.394-7.593 5.59-7.621a.91.91 0 01.03-.004c.102-.013.538-.05 1.864-.023 1.7.035 2.546 1.044 2.8 1.68.162.37 1.878 4.267 2.534 5.792.444 1.033.733 2.532-.41 3.808l-.085.098c-.5.583-1.215 1.408-1.655 1.858zm-2.203 1.357c-.483-.83-.572-2.164.37-3.127.287-.292.806-.876 1.544-1.736l.074-.086.047-.052c.099-.11.305-.34-.03-1.122-.673-1.563-2.473-5.651-2.537-5.795-.045-.05-.195-.13-.502-.137-.963-.02-1.368-.003-1.488.005-.34.076-2.873.798-3.406 5.395-.283 2.441 1.05 5.667 3.856 9.326 3.399 4.434 6.37 6.948 10.96 9.275 2.258 1.145 5.549 2.492 8.422 2.407 2.149-.062 3.742-.691 4.735-1.87.703-.836.864-1.687.879-1.773.003-.029 0-.013.006-.04.008-.07.05-.451.078-1.504.009-.305-.065-.458-.112-.505-.138-.067-3.976-1.96-5.515-2.702-.512-.247-.617-.134-.847.114a2.66 2.66 0 01-.172.175c-.103.122-.369.475-.585.762-.749.997-1.31 1.729-1.705 2.077-1.431 1.259-3.753.088-4.515-.297-1.614-.813-3.282-2.034-4.133-2.689-2.067-1.59-4.196-3.985-5.424-6.1zM9.666 11.182a1.264 1.264 0 01.086-1.793 1.283 1.283 0 011.805.085 1.264 1.264 0 01-.086 1.793 1.28 1.28 0 01-1.804-.085zm42.191 38.355c.522.471.561 1.274.086 1.793a1.278 1.278 0 01-1.804.086 1.264 1.264 0 01-.086-1.793 1.282 1.282 0 011.804-.086z"/><path d="M65 32.197c0 8.601-3.37 16.687-9.487 22.768-6.117 6.081-14.25 9.43-22.902 9.43a32.589 32.589 0 01-15.105-3.71l-15.895 4.27a1.288 1.288 0 01-1.24-.331 1.265 1.265 0 01-.323-1.236l4.338-15.39a32.034 32.034 0 01-4.164-15.8 31.844 31.844 0 016.037-18.722 1.282 1.282 0 011.782-.293c.573.408.705 1.2.294 1.77a29.334 29.334 0 00-5.559 17.245 29.5 29.5 0 004.086 14.987c.176.297.222.653.129.985L3.114 61.922l14.217-3.82c.318-.085.658-.045.948.113a29.996 29.996 0 0014.332 3.641c16.45 0 29.835-13.305 29.835-29.658 0-16.354-13.384-29.659-29.835-29.659-6.268 0-12.266 1.911-17.347 5.526a1.282 1.282 0 01-1.781-.293 1.265 1.265 0 01.295-1.771C19.294 2.075 25.807 0 32.61 0c8.651 0 16.785 3.35 22.903 9.43C61.63 15.512 65 23.597 65 32.197zm-11.81 13.63a24.363 24.363 0 004.146-13.63c0-13.553-11.092-24.58-24.726-24.58-13.634 0-24.727 11.027-24.727 24.58a24.44 24.44 0 003.384 12.418l1.1 1.862c.175.297.22.652.127.985l-2.037 7.226 7.527-2.022c.318-.085.658-.045.948.113l1.803.985a24.853 24.853 0 0011.875 3.014c4.906 0 9.646-1.425 13.71-4.121a1.281 1.281 0 011.77.35 1.264 1.264 0 01-.353 1.761 27.267 27.267 0 01-15.127 4.55 27.42 27.42 0 01-13.104-3.329l-1.353-.738-9.199 2.471a1.284 1.284 0 01-1.24-.332 1.264 1.264 0 01-.322-1.236l2.496-8.858-.824-1.396A26.967 26.967 0 015.33 32.198c0-7.245 2.838-14.056 7.99-19.178 5.152-5.12 12.003-7.942 19.29-7.942s14.139 2.82 19.29 7.942c5.153 5.122 7.99 11.933 7.99 19.177a26.89 26.89 0 01-4.575 15.039 1.282 1.282 0 01-1.771.351 1.265 1.265 0 01-.354-1.76zm-26.9-15.672a.246.246 0 00.014.097c1.06 1.821 2.976 3.972 4.77 5.354 2.848 2.191 4.856 3.07 5.457 3.028.284-.297.953-1.186 1.288-1.632.544-.724.724-.959.905-1.116l.02-.022c1.339-1.444 2.827-1.165 3.84-.677 1.498.723 5.155 2.525 5.51 2.7.627.282 1.6 1.17 1.555 2.86-.033 1.207-.085 1.67-.106 1.817-.033.231-.258 1.563-1.334 2.916-1.014 1.274-3.007 2.815-6.738 2.923a9.635 9.635 0 01-.322.005c-3.322 0-6.89-1.45-9.333-2.688-4.906-2.486-8.223-5.29-11.832-9.997-3.26-4.253-4.727-8.006-4.362-11.156.794-6.853 5.394-7.593 5.59-7.621a.91.91 0 01.03-.004c.102-.013.538-.05 1.864-.023 1.7.035 2.546 1.044 2.8 1.68.162.37 1.878 4.267 2.534 5.792.444 1.033.733 2.532-.41 3.808l-.085.098c-.5.583-1.215 1.408-1.655 1.858zm-2.203 1.357c-.483-.83-.572-2.164.37-3.127.287-.292.806-.876 1.544-1.736l.074-.086.047-.052c.099-.11.305-.34-.03-1.122-.673-1.563-2.473-5.651-2.537-5.795-.045-.05-.195-.13-.502-.137-.963-.02-1.368-.003-1.488.005-.34.076-2.873.798-3.406 5.395-.283 2.441 1.05 5.667 3.856 9.326 3.399 4.434 6.37 6.948 10.96 9.275 2.258 1.145 5.549 2.492 8.422 2.407 2.149-.062 3.742-.691 4.735-1.87.703-.836.864-1.687.879-1.773.003-.029 0-.013.006-.04.008-.07.05-.451.078-1.504.009-.305-.065-.458-.112-.505-.138-.067-3.976-1.96-5.515-2.702-.512-.247-.617-.134-.847.114a2.66 2.66 0 01-.172.175c-.103.122-.369.475-.585.762-.749.997-1.31 1.729-1.705 2.077-1.431 1.259-3.753.088-4.515-.297-1.614-.813-3.282-2.034-4.133-2.689-2.067-1.59-4.196-3.985-5.424-6.1zM9.666 11.182a1.264 1.264 0 01.086-1.793 1.283 1.283 0 011.805.085 1.264 1.264 0 01-.086 1.793 1.28 1.28 0 01-1.804-.085zm42.191 38.355c.522.471.561 1.274.086 1.793a1.278 1.278 0 01-1.804.086 1.264 1.264 0 01-.086-1.793 1.282 1.282 0 011.804-.086z"/></symbol><symbol viewBox="0 0 511.996 511.996" id="email" xmlns="http://www.w3.org/2000/svg"><path d="M230.9 253.371c13.369 8.913 36.827 8.914 50.199-.001l.007-.004 227.865-151.911c-7.474-21.616-28.018-37.188-52.142-37.188H55.166c-24.125 0-44.668 15.572-52.143 37.188l227.87 151.912.007.004z"/><path d="M297.746 278.328l-.007.005c-11.702 7.801-26.724 11.702-41.741 11.702-15.02 0-30.036-3.9-41.739-11.703l-.005-.003L0 135.494v257.072c0 30.417 24.747 55.163 55.166 55.163h401.666c30.418 0 55.164-24.746 55.164-55.163V135.494z"/></symbol><symbol viewBox="0 0 14 11" id="home" xmlns="http://www.w3.org/2000/svg"><path d="M11.938 5.94v4.36a.708.708 0 01-.71.703H2.772a.707.707 0 01-.71-.704V5.941a.7.7 0 01.334-.597l4.227-2.616a.715.715 0 01.753 0l4.227 2.616a.7.7 0 01.335.597zm1.954-.975a.71.71 0 01-.98.224L7 1.531 1.087 5.19a.714.714 0 01-.98-.225.7.7 0 01.227-.97l6.29-3.89a.716.716 0 01.753 0l6.29 3.892a.7.7 0 01.225.97z"/></symbol><symbol viewBox="0 0 15 15" id="office-increase" xmlns="http://www.w3.org/2000/svg"><path d="M14.607 14.607a1.251 1.251 0 01-1.77 0l-3.253-3.253c-.017-.018-.029-.038-.045-.056a6.156 6.156 0 111.76-1.76c.017.017.038.03.055.046l3.253 3.253a1.251 1.251 0 010 1.77zm-4.43-8.451a4.022 4.022 0 10-8.043 0 4.022 4.022 0 008.044 0z"/></symbol><symbol viewBox="0 0 10 15" id="phone_icon" xmlns="http://www.w3.org/2000/svg"><path d="M9.894 13.088l-1.247-2.525a1.013 1.013 0 00-1.377-.434l-1.248.64a44.94 44.94 0 01-.151-.167c-.484-.534-1.146-1.265-1.718-2.423-.573-1.16-.755-2.14-.888-2.854l-.042-.219.837-.429.412-.211c.512-.263.725-.885.477-1.387L3.702.553A1.012 1.012 0 002.325.12l-.7.361.01.02c-.25.17-.482.384-.684.632a3.414 3.414 0 00-.448.724C-.415 3.85-.099 6.063 1.594 9.49c2.34 4.738 5.244 5.417 5.37 5.444a3.25 3.25 0 001.742-.12l.008.014.703-.352c.51-.263.724-.885.477-1.388z"/></symbol><symbol viewBox="0 0 13 13" id="skype_icon" xmlns="http://www.w3.org/2000/svg"><path d="M13 9.382c0 1.996-1.594 3.614-3.561 3.614-.691 0-1.336-.2-1.883-.544a6.01 6.01 0 01-1.086.101C3.173 12.553.502 9.856.502 6.53c0-.323.025-.64.074-.95a3.634 3.634 0 01-.574-1.967c0-1.996 1.594-3.614 3.562-3.614a3.51 3.51 0 011.945.586c.312-.052.633-.079.96-.079 3.297 0 5.97 2.697 5.97 6.024 0 .277-.021.55-.057.817.39.58.618 1.282.618 2.036zM9.96 7.568c-.665-1.6-2.513-1.775-4.238-2.2-1.725-.426-.78-1.923.616-1.9 1.356.021 2.046 1.474 2.66 1.4.618-.076 1.142-1.013.173-1.85-.837-.726-1.896-1.125-3.523-.976-1.276.118-2.489.951-2.636 2.575-.148 1.626 1.75 2.451 3.252 2.677 1.053.157 2.49.674 1.627 1.674-.792.919-2.292.35-2.686.1-.395-.25-.838-1.15-1.578-1.1-.74.05-1.104 1.036-.196 1.9.813.775 1.7 1.2 3.597 1.1 1.898-.1 3.598-1.8 2.932-3.4z"/></symbol></svg>