<?xml version="1.0" encoding="utf-8"?><svg xmlns="http://www.w3.org/2000/svg" xmlns:xlink="http://www.w3.org/1999/xlink"><symbol viewBox="0 0 15 11" id="arrow-right" xmlns="http://www.w3.org/2000/svg"><path d="M14.768 4.974L9.71.217a.826.826 0 00-1.117 0 .712.712 0 000 1.051L12.3 4.756H.791C.353 4.756 0 5.09 0 5.5s.354.743.79.743h11.511L8.591 9.73a.712.712 0 000 1.051.815.815 0 00.56.218.814.814 0 00.558-.218l5.06-4.757a.712.712 0 000-1.05z"/></symbol><symbol viewBox="0 0 15 11" id="check" xmlns="http://www.w3.org/2000/svg"><path d="M14.786.937L14.09.221a.724.724 0 00-1.042 0L5.766 7.734 1.95 3.799a.724.724 0 00-1.042 0l-.695.717a.78.78 0 000 1.074l5.029 5.185A.72.72 0 005.76 11a.715.715 0 00.519-.225l8.498-8.764a.772.772 0 00.008-1.074z"/></symbol><symbol viewBox="0 0 37 33" id="cloud_icon" xmlns="http://www.w3.org/2000/svg"><path d="M34.52 23.58a9.23 9.23 0 01-6.102 2.908h-5.722c-.57 0-1.027-.44-1.027-.991 0-.551.456-.991 1.027-.991h5.607c3.668-.272 6.643-3.444 6.643-7.092 0-3.444-2.557-6.46-5.943-7.019a1.005 1.005 0 01-.852-.88c-.426-4.303-4.131-7.548-8.62-7.548-3.34 0-6.414 1.88-7.837 4.794a1.047 1.047 0 01-1.286.507 3.87 3.87 0 00-1.3-.22c-2.1 0-3.813 1.651-3.813 3.678 0 .447.076.866.229 1.262a.983.983 0 01-.45 1.204c-1.863 1.05-3.02 2.988-3.02 5.066 0 3.216 2.618 6.071 5.73 6.255h6.512c.57 0 1.027.44 1.027.991 0 .55-.456.991-1.027.991H7.692c-2.07-.11-4.01-1.057-5.478-2.657C.784 22.274 0 20.298 0 18.265c0-2.518 1.27-4.882 3.363-6.35a5.979 5.979 0 01-.122-1.175c0-3.12 2.633-5.66 5.866-5.66.38 0 .761.037 1.126.103a10.463 10.463 0 013.477-3.531 10.968 10.968 0 015.813-1.653c2.678 0 5.25.962 7.228 2.71 1.78 1.57 2.945 3.641 3.34 5.91 3.987 1.013 6.901 4.676 6.909 8.795 0 2.275-.875 4.463-2.48 6.167zM13.064 19.5c-.26 0-.525-.103-.723-.294a.964.964 0 010-1.402l5.44-5.25c.19-.19.456-.293.723-.293.266 0 .532.11.723.294l5.44 5.249a.964.964 0 010 1.402 1.04 1.04 0 01-1.446 0l-3.69-3.56V32.01c0 .55-.457.99-1.027.99-.571 0-1.027-.44-1.027-.99V15.644l-3.69 3.561a1.02 1.02 0 01-.723.294z"/></symbol><symbol viewBox="0 0 511.996 511.996" id="email" xmlns="http://www.w3.org/2000/svg"><path d="M230.9 253.371c13.369 8.913 36.827 8.914 50.199-.001l.007-.004 227.865-151.911c-7.474-21.616-28.018-37.188-52.142-37.188H55.166c-24.125 0-44.668 15.572-52.143 37.188l227.87 151.912.007.004z"/><path d="M297.746 278.328l-.007.005c-11.702 7.801-26.724 11.702-41.741 11.702-15.02 0-30.036-3.9-41.739-11.703l-.005-.003L0 135.494v257.072c0 30.417 24.747 55.163 55.166 55.163h401.666c30.418 0 55.164-24.746 55.164-55.163V135.494z"/></symbol><symbol viewBox="0 0 14 11" id="home" xmlns="http://www.w3.org/2000/svg"><path d="M11.938 5.94v4.36a.708.708 0 01-.71.703H2.772a.707.707 0 01-.71-.704V5.941a.7.7 0 01.334-.597l4.227-2.616a.715.715 0 01.753 0l4.227 2.616a.7.7 0 01.335.597zm1.954-.975a.71.71 0 01-.98.224L7 1.531 1.087 5.19a.714.714 0 01-.98-.225.7.7 0 01.227-.97l6.29-3.89a.716.716 0 01.753 0l6.29 3.892a.7.7 0 01.225.97z"/></symbol><symbol viewBox="0 0 10 15" id="phone_icon" xmlns="http://www.w3.org/2000/svg"><path d="M9.894 13.088l-1.247-2.525a1.013 1.013 0 00-1.377-.434l-1.248.64a44.94 44.94 0 01-.151-.167c-.484-.534-1.146-1.265-1.718-2.423-.573-1.16-.755-2.14-.888-2.854l-.042-.219.837-.429.412-.211c.512-.263.725-.885.477-1.387L3.702.553A1.012 1.012 0 002.325.12l-.7.361.01.02c-.25.17-.482.384-.684.632a3.414 3.414 0 00-.448.724C-.415 3.85-.099 6.063 1.594 9.49c2.34 4.738 5.244 5.417 5.37 5.444a3.25 3.25 0 001.742-.12l.008.014.703-.352c.51-.263.724-.885.477-1.388z"/></symbol><symbol viewBox="0 0 13 13" id="skype_icon" xmlns="http://www.w3.org/2000/svg"><path d="M13 9.382c0 1.996-1.594 3.614-3.561 3.614-.691 0-1.336-.2-1.883-.544a6.01 6.01 0 01-1.086.101C3.173 12.553.502 9.856.502 6.53c0-.323.025-.64.074-.95a3.634 3.634 0 01-.574-1.967c0-1.996 1.594-3.614 3.562-3.614a3.51 3.51 0 011.945.586c.312-.052.633-.079.96-.079 3.297 0 5.97 2.697 5.97 6.024 0 .277-.021.55-.057.817.39.58.618 1.282.618 2.036zM9.96 7.568c-.665-1.6-2.513-1.775-4.238-2.2-1.725-.426-.78-1.923.616-1.9 1.356.021 2.046 1.474 2.66 1.4.618-.076 1.142-1.013.173-1.85-.837-.726-1.896-1.125-3.523-.976-1.276.118-2.489.951-2.636 2.575-.148 1.626 1.75 2.451 3.252 2.677 1.053.157 2.49.674 1.627 1.674-.792.919-2.292.35-2.686.1-.395-.25-.838-1.15-1.578-1.1-.74.05-1.104 1.036-.196 1.9.813.775 1.7 1.2 3.597 1.1 1.898-.1 3.598-1.8 2.932-3.4z"/></symbol></svg>