<svg xmlns="http://www.w3.org/2000/svg" width="55" height="67" viewBox="0 0 55 67"><defs><linearGradient id="lgm7a" x1="0" x2="55" y1="34" y2="33" gradientUnits="userSpaceOnUse"><stop offset="0" stop-color="#821dc9"/><stop offset="1" stop-color="#4600cd"/></linearGradient></defs><g><g><path fill="#004043" d="M27.876 66.944a1.313 1.313 0 0 1-.752 0C10.855 62.07 0 47.158 0 30.515V9.16A1.31 1.31 0 0 1 1.31 7.85c3.61 0 6.547-2.935 6.547-6.543A1.31 1.31 0 0 1 9.167 0h36.666c.723 0 1.31.586 1.31 1.308 0 3.608 2.937 6.543 6.547 6.543.724 0 1.31.586 1.31 1.309v21.355c0 17.006-11.208 31.658-27.124 36.43zm24.505-56.569a9.185 9.185 0 0 1-7.764-7.758H10.383a9.185 9.185 0 0 1-7.764 7.758v20.14A35.386 35.386 0 0 0 27.5 64.323c14.9-4.64 24.88-18.177 24.88-33.808zM27.937 61.42a1.302 1.302 0 0 1-.874 0C13.922 56.772 5.238 44.545 5.238 30.515V13.3c0-.519.308-.99.784-1.198a11.791 11.791 0 0 0 6.09-6.085 1.31 1.31 0 0 1 1.2-.784h8.952a1.31 1.31 0 1 1 0 2.617H14.14a14.392 14.392 0 0 1-6.282 6.278v16.386c0 12.806 7.693 23.856 19.643 28.28 11.95-4.424 19.643-15.474 19.643-28.28V14.129a14.391 14.391 0 0 1-6.282-6.278h-8.126a1.31 1.31 0 1 1 0-2.617h8.954c.52 0 .99.308 1.2.784a11.792 11.792 0 0 0 6.089 6.085c.476.208.784.679.784 1.198v17.214c0 14.041-8.695 26.261-21.825 30.904zm11.349-30.537c0 6.495-5.287 11.778-11.786 11.778s-11.786-5.283-11.786-11.778c0-6.494 5.287-11.777 11.786-11.777s11.786 5.283 11.786 11.777zm-20.953 0c0 5.051 4.112 9.16 9.167 9.16 5.054 0 9.167-4.109 9.167-9.16 0-5.05-4.113-9.16-9.167-9.16-5.055 0-9.167 4.11-9.167 9.16zm15.331-3.542c.511.511.511 1.34 0 1.85l-6.548 6.544a1.307 1.307 0 0 1-1.852 0l-2.619-2.618a1.308 1.308 0 1 1 1.852-1.85l1.693 1.692 5.622-5.618a1.31 1.31 0 0 1 1.852 0zM27.369 7.843a1.304 1.304 0 0 1-1.177-1.3c0-.724.583-1.307 1.308-1.307.724 0 1.308.582 1.308 1.307 0 .773-.663 1.377-1.44 1.3z"/><path fill="url(#lgm7a)" d="M27.876 66.944a1.313 1.313 0 0 1-.752 0C10.855 62.07 0 47.158 0 30.515V9.16A1.31 1.31 0 0 1 1.31 7.85c3.61 0 6.547-2.935 6.547-6.543A1.31 1.31 0 0 1 9.167 0h36.666c.723 0 1.31.586 1.31 1.308 0 3.608 2.937 6.543 6.547 6.543.724 0 1.31.586 1.31 1.309v21.355c0 17.006-11.208 31.658-27.124 36.43zm24.505-56.569a9.185 9.185 0 0 1-7.764-7.758H10.383a9.185 9.185 0 0 1-7.764 7.758v20.14A35.386 35.386 0 0 0 27.5 64.323c14.9-4.64 24.88-18.177 24.88-33.808zM27.937 61.42a1.302 1.302 0 0 1-.874 0C13.922 56.772 5.238 44.545 5.238 30.515V13.3c0-.519.308-.99.784-1.198a11.791 11.791 0 0 0 6.09-6.085 1.31 1.31 0 0 1 1.2-.784h8.952a1.31 1.31 0 1 1 0 2.617H14.14a14.392 14.392 0 0 1-6.282 6.278v16.386c0 12.806 7.693 23.856 19.643 28.28 11.95-4.424 19.643-15.474 19.643-28.28V14.129a14.391 14.391 0 0 1-6.282-6.278h-8.126a1.31 1.31 0 1 1 0-2.617h8.954c.52 0 .99.308 1.2.784a11.792 11.792 0 0 0 6.089 6.085c.476.208.784.679.784 1.198v17.214c0 14.041-8.695 26.261-21.825 30.904zm11.349-30.537c0 6.495-5.287 11.778-11.786 11.778s-11.786-5.283-11.786-11.778c0-6.494 5.287-11.777 11.786-11.777s11.786 5.283 11.786 11.777zm-20.953 0c0 5.051 4.112 9.16 9.167 9.16 5.054 0 9.167-4.109 9.167-9.16 0-5.05-4.113-9.16-9.167-9.16-5.055 0-9.167 4.11-9.167 9.16zm15.331-3.542c.511.511.511 1.34 0 1.85l-6.548 6.544a1.307 1.307 0 0 1-1.852 0l-2.619-2.618a1.308 1.308 0 1 1 1.852-1.85l1.693 1.692 5.622-5.618a1.31 1.31 0 0 1 1.852 0zM27.369 7.843a1.304 1.304 0 0 1-1.177-1.3c0-.724.583-1.307 1.308-1.307.724 0 1.308.582 1.308 1.307 0 .773-.663 1.377-1.44 1.3z"/></g></g></svg>