<svg xmlns="http://www.w3.org/2000/svg" width="65" height="65" viewBox="0 0 65 65"><defs><linearGradient id="kzlia" x1="0" x2="65" y1="33" y2="32" gradientUnits="userSpaceOnUse"><stop offset="0" stop-color="#821dc9"/><stop offset="1" stop-color="#4600cd"/></linearGradient></defs><g><g><path fill="#004043" d="M61.191 65H3.81A3.813 3.813 0 0 1 0 61.19v-33.77a3.815 3.815 0 0 1 2.539-3.59V11.425c0-.7.569-1.27 1.27-1.27h3.808V6.348c0-.7.569-1.27 1.27-1.27h3.808V1.27c0-.7.569-1.27 1.27-1.27H61.19c.701 0 1.27.57 1.27 1.27v22.562A3.815 3.815 0 0 1 65 27.421v33.77C65 63.291 63.29 65 61.19 65zM5.078 12.694v10.918h2.54v-1.27c0-2.1 1.708-3.808 3.808-3.808h15.996c2.1 0 3.808 1.708 3.808 3.808v1.27h18.536V12.695zm5.078-5.078v2.539h40.88c.7 0 1.269.568 1.269 1.27v12.187h2.539V7.617zM59.922 2.54H15.234v2.539h40.88c.7 0 1.269.568 1.269 1.27v17.265h2.539zm2.539 24.883c0-.7-.57-1.27-1.27-1.27h-31.23a1.27 1.27 0 0 1-1.27-1.27v-2.539c0-.7-.57-1.27-1.27-1.27H11.427c-.7 0-1.27.57-1.27 1.27v2.54a1.27 1.27 0 0 1-1.27 1.269H3.81c-.7 0-1.27.57-1.27 1.27v33.77c0 .7.57 1.269 1.27 1.269H61.19c.7 0 1.27-.57 1.27-1.27zM56.113 56.62H27.422a1.27 1.27 0 0 1-1.27-1.27V45.195c0-.7.569-1.27 1.27-1.27h28.691c.701 0 1.27.57 1.27 1.27v10.156a1.27 1.27 0 0 1-1.27 1.27zm-1.27-10.156H28.692v7.617h26.153zM32.5 49.003h13.457a1.27 1.27 0 0 1 0 2.54H32.5a1.27 1.27 0 0 1 0-2.54zm18.535.002c.703 0 1.268.566 1.268 1.268 0 .809-.737 1.401-1.522 1.243a1.264 1.264 0 0 1-1.014-1.243c0-.703.566-1.268 1.268-1.268z"/><path fill="url(#kzlia)" d="M61.191 65H3.81A3.813 3.813 0 0 1 0 61.19v-33.77a3.815 3.815 0 0 1 2.539-3.59V11.425c0-.7.569-1.27 1.27-1.27h3.808V6.348c0-.7.569-1.27 1.27-1.27h3.808V1.27c0-.7.569-1.27 1.27-1.27H61.19c.701 0 1.27.57 1.27 1.27v22.562A3.815 3.815 0 0 1 65 27.421v33.77C65 63.291 63.29 65 61.19 65zM5.078 12.694v10.918h2.54v-1.27c0-2.1 1.708-3.808 3.808-3.808h15.996c2.1 0 3.808 1.708 3.808 3.808v1.27h18.536V12.695zm5.078-5.078v2.539h40.88c.7 0 1.269.568 1.269 1.27v12.187h2.539V7.617zM59.922 2.54H15.234v2.539h40.88c.7 0 1.269.568 1.269 1.27v17.265h2.539zm2.539 24.883c0-.7-.57-1.27-1.27-1.27h-31.23a1.27 1.27 0 0 1-1.27-1.27v-2.539c0-.7-.57-1.27-1.27-1.27H11.427c-.7 0-1.27.57-1.27 1.27v2.54a1.27 1.27 0 0 1-1.27 1.269H3.81c-.7 0-1.27.57-1.27 1.27v33.77c0 .7.57 1.269 1.27 1.269H61.19c.7 0 1.27-.57 1.27-1.27zM56.113 56.62H27.422a1.27 1.27 0 0 1-1.27-1.27V45.195c0-.7.569-1.27 1.27-1.27h28.691c.701 0 1.27.57 1.27 1.27v10.156a1.27 1.27 0 0 1-1.27 1.27zm-1.27-10.156H28.692v7.617h26.153zM32.5 49.003h13.457a1.27 1.27 0 0 1 0 2.54H32.5a1.27 1.27 0 0 1 0-2.54zm18.535.002c.703 0 1.268.566 1.268 1.268 0 .809-.737 1.401-1.522 1.243a1.264 1.264 0 0 1-1.014-1.243c0-.703.566-1.268 1.268-1.268z"/></g></g></svg>