<svg xmlns="http://www.w3.org/2000/svg" width="55" height="70" viewBox="0 0 55 70"><defs><linearGradient id="jwkda" x1="0" x2="55" y1="35" y2="35" gradientUnits="userSpaceOnUse"><stop offset="0" stop-color="#821dc9"/><stop offset="1" stop-color="#4600cd"/></linearGradient></defs><g><g><path fill="#004043" d="M0 70V0H37.93L55 17.016V70zM38.617 3.983v12.35h12.388zm14.042 14.683H36.277V2.333H2.34v65.333h50.32zM10.19 52.16l1.453 1.213c.315-2.637 1.178-5.182 3.74-6.512 1.336-.693 2.518 1.322 1.181 2.016-2.543 1.32-2.662 4.325-2.748 6.852-.035 1.062-1.227 1.468-1.997.825L8.534 53.81c-1.156-.967.508-2.609 1.655-1.651zm8.37-.522c1.14 2.307 2.985.251 4.605-.123 1.245-.288 2.517.155 3.146 1.277.736 1.313-1.286 2.489-2.021 1.178-.386-.69-2.174.65-2.653.836-.652.253-1.28.351-1.975.264-1.368-.173-2.519-1.03-3.124-2.254-.664-1.343 1.355-2.524 2.021-1.178zM17.552 38.5a1.167 1.167 0 1 1 0-2.334h8.192a1.167 1.167 0 1 1 0 2.334zm11.702-11.667h8.192a1.167 1.167 0 1 1 0 2.334h-8.192a1.167 1.167 0 1 1 0-2.334zm.884 13.432a.745.745 0 0 0 .425-1.024 3.041 3.041 0 0 1 .606-3.5 3.07 3.07 0 0 1 3.51-.604.744.744 0 0 0 1.026-.423 3.053 3.053 0 0 1 2.911-2.048c1.325 0 2.467.803 2.91 2.048a.748.748 0 0 0 1.027.423 3.066 3.066 0 0 1 3.51.605 3.043 3.043 0 0 1 .606 3.5.742.742 0 0 0 .425 1.023 3.045 3.045 0 0 1 2.054 2.901c0 1.32-.805 2.46-2.054 2.902a.74.74 0 0 0-.425 1.024 3.041 3.041 0 0 1-.606 3.499 3.071 3.071 0 0 1-1.596.848v14.377l-5.851-5.833-5.851 5.833V51.44a3.095 3.095 0 0 1-1.596-.849 3.042 3.042 0 0 1-.606-3.5.74.74 0 0 0-.425-1.023 3.046 3.046 0 0 1-2.054-2.902c0-1.32.805-2.459 2.054-2.901zm4.967 19.918l3.511-3.5 3.51 3.499v-9.05l-.031.005a.751.751 0 0 0-.366.177.727.727 0 0 0-.203.305 3.053 3.053 0 0 1-2.91 2.047 3.053 3.053 0 0 1-2.91-2.047.726.726 0 0 0-.6-.487zm-4.184-16.316a3.078 3.078 0 0 1 1.755 4.225.712.712 0 0 0 .147.848c.096.097.34.27.677.194l.265-.083a2.805 2.805 0 0 1 1.226-.26L35 48.79c.053 0 .105.013.158.015.143.008.284.014.427.042.177.034.35.088.52.154.025.009.051.011.076.022l.001.001c.057.024.106.06.161.088.14.067.281.132.408.22.162.112.31.242.448.382.013.012.028.02.04.034.295.309.525.679.671 1.09.16.447.547.495.706.495.16 0 .546-.048.703-.493.147-.41.377-.781.672-1.09.015-.016.035-.028.05-.043.135-.136.279-.264.437-.372.132-.092.278-.16.423-.23.05-.024.094-.057.146-.079h.002c.198-.082.401-.142.608-.18.097-.019.196-.016.293-.026.112-.01.225-.028.338-.026.095.003.187.023.282.033.117.013.235.02.35.045.083.02.163.055.245.081.11.034.222.06.328.107l.258.08a.734.734 0 0 0 .656-.198.712.712 0 0 0 .148-.847 3.076 3.076 0 0 1 1.755-4.225.715.715 0 0 0 .497-.704c0-.159-.047-.544-.494-.7a3.078 3.078 0 0 1-1.755-4.224.712.712 0 0 0-.148-.85.713.713 0 0 0-.85-.147 3.093 3.093 0 0 1-4.238-1.75c-.16-.448-.547-.495-.706-.495-.16 0-.547.047-.703.493a3.094 3.094 0 0 1-4.237 1.75.72.72 0 0 0-.851.147.712.712 0 0 0-.148.847 3.076 3.076 0 0 1-1.755 4.226.715.715 0 0 0-.498.703c0 .159.049.545.497.701zm12.376-14.7a1.23 1.23 0 0 1-.831-.34 1.219 1.219 0 0 1-.34-.827c0-.305.128-.608.34-.829.445-.431 1.217-.431 1.662 0 .21.22.339.524.339.829 0 .303-.129.606-.34.828-.222.21-.526.339-.83.339zm-19.894 0a1.23 1.23 0 0 1-.83-.34 1.172 1.172 0 0 1-.34-.827c0-.305.117-.607.34-.817.432-.443 1.216-.443 1.661-.012.21.22.34.524.34.829a1.177 1.177 0 0 1-1.17 1.167zm-10.871 7.338a1.179 1.179 0 0 1 0 1.657c-.222.21-.527.338-.83.338a1.23 1.23 0 0 1-.832-.339 1.22 1.22 0 0 1-.34-.828c0-.316.118-.608.34-.828.445-.432 1.217-.432 1.662 0zm-.83-9.672h5.85a1.167 1.167 0 1 1 0 2.334h-5.85a1.167 1.167 0 1 1 0-2.334zm10.531-7H11.702a1.167 1.167 0 1 1 0-2.333h10.532a1.167 1.167 0 1 1 0 2.333z"/><path fill="url(#jwkda)" d="M0 70V0H37.93L55 17.016V70zM38.617 3.983v12.35h12.388zm14.042 14.683H36.277V2.333H2.34v65.333h50.32zM10.19 52.16l1.453 1.213c.315-2.637 1.178-5.182 3.74-6.512 1.336-.693 2.518 1.322 1.181 2.016-2.543 1.32-2.662 4.325-2.748 6.852-.035 1.062-1.227 1.468-1.997.825L8.534 53.81c-1.156-.967.508-2.609 1.655-1.651zm8.37-.522c1.14 2.307 2.985.251 4.605-.123 1.245-.288 2.517.155 3.146 1.277.736 1.313-1.286 2.489-2.021 1.178-.386-.69-2.174.65-2.653.836-.652.253-1.28.351-1.975.264-1.368-.173-2.519-1.03-3.124-2.254-.664-1.343 1.355-2.524 2.021-1.178zM17.552 38.5a1.167 1.167 0 1 1 0-2.334h8.192a1.167 1.167 0 1 1 0 2.334zm11.702-11.667h8.192a1.167 1.167 0 1 1 0 2.334h-8.192a1.167 1.167 0 1 1 0-2.334zm.884 13.432a.745.745 0 0 0 .425-1.024 3.041 3.041 0 0 1 .606-3.5 3.07 3.07 0 0 1 3.51-.604.744.744 0 0 0 1.026-.423 3.053 3.053 0 0 1 2.911-2.048c1.325 0 2.467.803 2.91 2.048a.748.748 0 0 0 1.027.423 3.066 3.066 0 0 1 3.51.605 3.043 3.043 0 0 1 .606 3.5.742.742 0 0 0 .425 1.023 3.045 3.045 0 0 1 2.054 2.901c0 1.32-.805 2.46-2.054 2.902a.74.74 0 0 0-.425 1.024 3.041 3.041 0 0 1-.606 3.499 3.071 3.071 0 0 1-1.596.848v14.377l-5.851-5.833-5.851 5.833V51.44a3.095 3.095 0 0 1-1.596-.849 3.042 3.042 0 0 1-.606-3.5.74.74 0 0 0-.425-1.023 3.046 3.046 0 0 1-2.054-2.902c0-1.32.805-2.459 2.054-2.901zm4.967 19.918l3.511-3.5 3.51 3.499v-9.05l-.031.005a.751.751 0 0 0-.366.177.727.727 0 0 0-.203.305 3.053 3.053 0 0 1-2.91 2.047 3.053 3.053 0 0 1-2.91-2.047.726.726 0 0 0-.6-.487zm-4.184-16.316a3.078 3.078 0 0 1 1.755 4.225.712.712 0 0 0 .147.848c.096.097.34.27.677.194l.265-.083a2.805 2.805 0 0 1 1.226-.26L35 48.79c.053 0 .105.013.158.015.143.008.284.014.427.042.177.034.35.088.52.154.025.009.051.011.076.022l.001.001c.057.024.106.06.161.088.14.067.281.132.408.22.162.112.31.242.448.382.013.012.028.02.04.034.295.309.525.679.671 1.09.16.447.547.495.706.495.16 0 .546-.048.703-.493.147-.41.377-.781.672-1.09.015-.016.035-.028.05-.043.135-.136.279-.264.437-.372.132-.092.278-.16.423-.23.05-.024.094-.057.146-.079h.002c.198-.082.401-.142.608-.18.097-.019.196-.016.293-.026.112-.01.225-.028.338-.026.095.003.187.023.282.033.117.013.235.02.35.045.083.02.163.055.245.081.11.034.222.06.328.107l.258.08a.734.734 0 0 0 .656-.198.712.712 0 0 0 .148-.847 3.076 3.076 0 0 1 1.755-4.225.715.715 0 0 0 .497-.704c0-.159-.047-.544-.494-.7a3.078 3.078 0 0 1-1.755-4.224.712.712 0 0 0-.148-.85.713.713 0 0 0-.85-.147 3.093 3.093 0 0 1-4.238-1.75c-.16-.448-.547-.495-.706-.495-.16 0-.547.047-.703.493a3.094 3.094 0 0 1-4.237 1.75.72.72 0 0 0-.851.147.712.712 0 0 0-.148.847 3.076 3.076 0 0 1-1.755 4.226.715.715 0 0 0-.498.703c0 .159.049.545.497.701zm12.376-14.7a1.23 1.23 0 0 1-.831-.34 1.219 1.219 0 0 1-.34-.827c0-.305.128-.608.34-.829.445-.431 1.217-.431 1.662 0 .21.22.339.524.339.829 0 .303-.129.606-.34.828-.222.21-.526.339-.83.339zm-19.894 0a1.23 1.23 0 0 1-.83-.34 1.172 1.172 0 0 1-.34-.827c0-.305.117-.607.34-.817.432-.443 1.216-.443 1.661-.012.21.22.34.524.34.829a1.177 1.177 0 0 1-1.17 1.167zm-10.871 7.338a1.179 1.179 0 0 1 0 1.657c-.222.21-.527.338-.83.338a1.23 1.23 0 0 1-.832-.339 1.22 1.22 0 0 1-.34-.828c0-.316.118-.608.34-.828.445-.432 1.217-.432 1.662 0zm-.83-9.672h5.85a1.167 1.167 0 1 1 0 2.334h-5.85a1.167 1.167 0 1 1 0-2.334zm10.531-7H11.702a1.167 1.167 0 1 1 0-2.333h10.532a1.167 1.167 0 1 1 0 2.333z"/></g></g></svg>