<svg xmlns="http://www.w3.org/2000/svg" width="10" height="15" viewBox="0 0 10 15"><g><g><path fill="#fff" d="M9.894 13.087l-1.247-2.525a1.014 1.014 0 0 0-1.377-.435l-1.248.641a31.271 31.271 0 0 1-.151-.168c-.484-.533-1.146-1.265-1.718-2.422-.573-1.16-.755-2.14-.888-2.854l-.042-.219.837-.43.412-.21c.512-.263.725-.886.477-1.388L3.702.552A1.012 1.012 0 0 0 2.325.118l-.7.361.01.02c-.25.17-.482.384-.684.631a3.41 3.41 0 0 0-.448.724C-.415 3.85-.099 6.062 1.594 9.49c2.34 4.737 5.243 5.416 5.37 5.444a3.246 3.246 0 0 0 1.742-.12l.008.014.703-.352c.51-.263.724-.885.477-1.388z"/></g></g></svg>