<svg xmlns="http://www.w3.org/2000/svg" width="37" height="33" viewBox="0 0 37 33"><g><g><path fill="#ddd8cf" d="M34.52 23.58a9.23 9.23 0 0 1-6.102 2.908H22.696c-.57 0-1.027-.44-1.027-.991 0-.551.456-.991 1.027-.991h5.607c3.668-.272 6.643-3.444 6.643-7.092 0-3.444-2.557-6.46-5.943-7.019a1.005 1.005 0 0 1-.852-.88c-.426-4.303-4.131-7.548-8.62-7.548-3.34 0-6.414 1.88-7.837 4.794a1.047 1.047 0 0 1-1.286.507 3.87 3.87 0 0 0-1.3-.22c-2.1 0-3.813 1.651-3.813 3.678 0 .447.076.866.229 1.262a.983.983 0 0 1-.45 1.204c-1.863 1.05-3.02 2.988-3.02 5.066 0 3.216 2.618 6.071 5.73 6.255h6.512c.57 0 1.027.44 1.027.991 0 .55-.456.991-1.027.991H7.692c-2.07-.11-4.01-1.057-5.478-2.657C.784 22.274 0 20.298 0 18.265c0-2.518 1.27-4.882 3.363-6.35a5.979 5.979 0 0 1-.122-1.175c0-3.12 2.633-5.66 5.866-5.66.38 0 .761.037 1.126.103a10.463 10.463 0 0 1 3.477-3.531 10.968 10.968 0 0 1 5.813-1.653c2.678 0 5.25.962 7.228 2.71 1.78 1.57 2.945 3.641 3.34 5.91 3.987 1.013 6.901 4.676 6.909 8.795 0 2.275-.875 4.463-2.48 6.167zM13.064 19.5c-.26 0-.525-.103-.723-.294a.964.964 0 0 1 0-1.402l5.44-5.25c.19-.19.456-.293.723-.293.266 0 .532.11.723.294l5.44 5.249a.964.964 0 0 1 0 1.402 1.04 1.04 0 0 1-1.446 0l-3.69-3.56v16.364c0 .55-.457.99-1.027.99-.571 0-1.027-.44-1.027-.99V15.644l-3.69 3.561a1.02 1.02 0 0 1-.723.294z"/></g></g></svg>