<svg xmlns="http://www.w3.org/2000/svg" width="15" height="9" viewBox="0 0 15 9"><g><g><path fill="#fff" d="M10.694.171c1.084.132 1.352.43 1.687.962.334.533.763 1.477.763 1.477l.16-.206a.489.489 0 0 1 .442-.206c.174.006.916.04 1.084.206a.423.423 0 0 1-.04.653c-.174.108-.803.31-.803.31s.935.44 1.004 1.545c.086 1.378-.442 2.267-.442 2.267v1.065c0 .635-.682.756-.682.756H12.26c-.656 0-.803-.722-.803-.722v-.343s-1.647.068-4.177.068c-2.53 0-3.694-.068-3.694-.068v.275c0 .692-.764.79-.764.79H1.216C.56 9 .493 8.21.493 8.21V7.179S-.19 5.753.051 4.74c.241-1.013.964-1.34.964-1.34s-.174-.097-.482-.206c-.308-.109-.508-.269-.441-.55.066-.28.36-.406.883-.412.522-.005.643.075.763.206.12.132.16.207.16.207s.242-.739.643-1.374c.402-.636.697-.796 1.165-.962.469-.166 1.548-.3 3.976-.31.322 0 2.06.057 3.012.172zM7.602.515c-2.15 0-3.689.12-4.137.446-.448.327-.755 1.08-.964 1.477a3.458 3.458 0 0 0-.281.688s2.595-.138 5.382-.138c2.786 0 5.26.138 5.26.138s-.086-.254-.401-.86c-.315-.604-.514-1.506-2.008-1.614C9.786.604 9.751.515 7.602.515zm-4.498 4.26c-.647-.152-1.237-.293-1.486-.138-.25.154-.415.487-.201.962.213.474.581.446 1.084.446.503 0 1.211.021 1.326-.034.114-.055.278-.201.32-.481.044-.28-.082-.531-1.043-.756zm7.79.755c.044.28.208.426.322.481.115.055.822.034 1.325.034s.871.028 1.085-.446c.213-.475.048-.808-.201-.962-.25-.155-.84-.014-1.486.137-.962.225-1.087.477-1.044.756z"/></g></g></svg>