<svg xmlns="http://www.w3.org/2000/svg" width="64" height="60" viewBox="0 0 64 60"><defs><linearGradient id="crlra" x1="-.01" x2="63.99" y1="29.96" y2="30.02" gradientUnits="userSpaceOnUse"><stop offset="0" stop-color="#821dc9"/><stop offset="1" stop-color="#4600cd"/></linearGradient></defs><g><g><path fill="#004043" d="M62.712 59.506l-61.39.085v.372l-.001-.372a1.28 1.28 0 0 1-1.285-1.28l-.047-35.86c.007-.414.213-.801.553-1.035l9.476-6.53v-7c0-.706.576-1.28 1.285-1.28h10.734L31.264.248a1.306 1.306 0 0 1 1.464.002l9.17 6.356H52.68c.709 0 1.286.574 1.286 1.28v7.08l9.429 6.535c.247.172.426.424.524.764.011.026.028.114.028.178l.05 35.78c0 .707-.576 1.282-1.284 1.283zm-8.747-32.65l6.326-4.385-6.326-4.384zM26.558 6.605h10.84L31.992 2.86zm-13.97 22.106l13.176 9.079 5.465-4.226a1.304 1.304 0 0 1 1.575 0l5.427 4.197 13.164-9.125V9.167H12.587zM3.53 22.47l6.488 4.469V18zM2.601 55.7l21.033-16.264-21.075-14.52zm56.254 1.25L32.016 36.195 5.081 57.024zm2.567-1.256l-.042-30.857-21.021 14.568z"/><path fill="url(#crlra)" d="M62.712 59.506l-61.39.085v.372l-.001-.372a1.28 1.28 0 0 1-1.285-1.28l-.047-35.86c.007-.414.213-.801.553-1.035l9.476-6.53v-7c0-.706.576-1.28 1.285-1.28h10.734L31.264.248a1.306 1.306 0 0 1 1.464.002l9.17 6.356H52.68c.709 0 1.286.574 1.286 1.28v7.08l9.429 6.535c.247.172.426.424.524.764.011.026.028.114.028.178l.05 35.78c0 .707-.576 1.282-1.284 1.283zm-8.747-32.65l6.326-4.385-6.326-4.384zM26.558 6.605h10.84L31.992 2.86zm-13.97 22.106l13.176 9.079 5.465-4.226a1.304 1.304 0 0 1 1.575 0l5.427 4.197 13.164-9.125V9.167H12.587zM3.53 22.47l6.488 4.469V18zM2.601 55.7l21.033-16.264-21.075-14.52zm56.254 1.25L32.016 36.195 5.081 57.024zm2.567-1.256l-.042-30.857-21.021 14.568z"/></g></g></svg>