<svg xmlns="http://www.w3.org/2000/svg" width="65" height="65" viewBox="0 0 65 65"><defs><linearGradient id="1inoa" x1="0" x2="65" y1="32" y2="33" gradientUnits="userSpaceOnUse"><stop offset="0" stop-color="#821dc9"/><stop offset="1" stop-color="#4600cd"/></linearGradient></defs><g><g><path fill="#821dc9" d="M65 32.197c0 8.601-3.37 16.687-9.487 22.768-6.117 6.081-14.25 9.43-22.902 9.43a32.589 32.589 0 0 1-15.105-3.71l-15.895 4.27a1.288 1.288 0 0 1-1.24-.331 1.265 1.265 0 0 1-.323-1.236l4.338-15.39a32.034 32.034 0 0 1-4.164-15.8 31.844 31.844 0 0 1 6.037-18.722 1.282 1.282 0 0 1 1.782-.293c.573.408.705 1.2.294 1.77a29.334 29.334 0 0 0-5.559 17.245 29.5 29.5 0 0 0 4.086 14.987c.176.297.222.653.129.985L3.114 61.922l14.217-3.82c.318-.085.658-.045.948.113a29.996 29.996 0 0 0 14.332 3.641c16.45 0 29.835-13.305 29.835-29.658 0-16.354-13.384-29.659-29.835-29.659-6.268 0-12.266 1.911-17.347 5.526a1.282 1.282 0 0 1-1.781-.293 1.265 1.265 0 0 1 .295-1.771C19.294 2.075 25.807 0 32.61 0c8.651 0 16.785 3.35 22.903 9.43C61.63 15.512 65 23.597 65 32.197zM53.19 45.827a24.363 24.363 0 0 0 4.146-13.63c0-13.553-11.092-24.58-24.726-24.58-13.634 0-24.727 11.027-24.727 24.58a24.44 24.44 0 0 0 3.384 12.418l1.1 1.862c.175.297.22.652.127.985l-2.037 7.226 7.527-2.022c.318-.085.658-.045.948.113l1.803.985a24.853 24.853 0 0 0 11.875 3.014c4.906 0 9.646-1.425 13.71-4.121a1.281 1.281 0 0 1 1.77.35 1.264 1.264 0 0 1-.353 1.761 27.267 27.267 0 0 1-15.127 4.55c-4.583 0-9.114-1.151-13.104-3.329l-1.353-.738-9.199 2.471a1.284 1.284 0 0 1-1.24-.332 1.264 1.264 0 0 1-.322-1.236l2.496-8.858-.824-1.396A26.967 26.967 0 0 1 5.33 32.198c0-7.245 2.838-14.056 7.99-19.178C18.472 7.9 25.323 5.078 32.61 5.078s14.139 2.82 19.29 7.942c5.153 5.122 7.99 11.933 7.99 19.177 0 5.38-1.582 10.58-4.575 15.039a1.282 1.282 0 0 1-1.771.351 1.265 1.265 0 0 1-.354-1.76zM26.29 30.155a.246.246 0 0 0 .014.097c1.06 1.821 2.976 3.972 4.77 5.354 2.848 2.191 4.856 3.07 5.457 3.028.284-.297.953-1.186 1.288-1.632.544-.724.724-.959.905-1.116l.02-.022c1.339-1.444 2.827-1.165 3.84-.677 1.498.723 5.155 2.525 5.51 2.7.627.282 1.6 1.17 1.555 2.86-.033 1.207-.085 1.67-.106 1.817-.033.231-.258 1.563-1.334 2.916-1.014 1.274-3.007 2.815-6.738 2.923a9.635 9.635 0 0 1-.322.005c-3.322 0-6.89-1.45-9.333-2.688-4.906-2.486-8.223-5.29-11.832-9.997-3.26-4.253-4.727-8.006-4.362-11.156.794-6.853 5.394-7.593 5.59-7.621a.91.91 0 0 1 .03-.004c.102-.013.538-.05 1.864-.023 1.7.035 2.546 1.044 2.8 1.68.162.37 1.878 4.267 2.534 5.792.444 1.033.733 2.532-.41 3.808l-.085.098c-.5.583-1.215 1.408-1.655 1.858zm-2.203 1.357c-.483-.83-.572-2.164.37-3.127.287-.292.806-.876 1.544-1.736l.074-.086.047-.052c.099-.11.305-.34-.03-1.122-.673-1.563-2.473-5.651-2.537-5.795-.045-.05-.195-.13-.502-.137-.963-.02-1.368-.003-1.488.005-.34.076-2.873.798-3.406 5.395-.283 2.441 1.05 5.667 3.856 9.326 3.399 4.434 6.37 6.948 10.96 9.275 2.258 1.145 5.549 2.492 8.422 2.407 2.149-.062 3.742-.691 4.735-1.87.703-.836.864-1.687.879-1.773.003-.029 0-.013.006-.04.008-.07.05-.451.078-1.504.009-.305-.065-.458-.112-.505-.138-.067-3.976-1.96-5.515-2.702-.512-.247-.617-.134-.847.114a2.66 2.66 0 0 1-.172.175c-.103.122-.369.475-.585.762-.749.997-1.31 1.729-1.705 2.077-1.431 1.259-3.753.088-4.515-.297-1.614-.813-3.282-2.034-4.133-2.689-2.067-1.59-4.196-3.985-5.424-6.1zM9.666 11.182a1.264 1.264 0 0 1 .086-1.793 1.283 1.283 0 0 1 1.805.085 1.264 1.264 0 0 1-.086 1.793c-.245.221-.553.33-.86.33-.347 0-.692-.14-.944-.415zm42.191 38.355c.522.471.561 1.274.086 1.793a1.278 1.278 0 0 1-1.804.086 1.264 1.264 0 0 1-.086-1.793 1.282 1.282 0 0 1 1.804-.086z"/><path fill="url(#1inoa)" d="M65 32.197c0 8.601-3.37 16.687-9.487 22.768-6.117 6.081-14.25 9.43-22.902 9.43a32.589 32.589 0 0 1-15.105-3.71l-15.895 4.27a1.288 1.288 0 0 1-1.24-.331 1.265 1.265 0 0 1-.323-1.236l4.338-15.39a32.034 32.034 0 0 1-4.164-15.8 31.844 31.844 0 0 1 6.037-18.722 1.282 1.282 0 0 1 1.782-.293c.573.408.705 1.2.294 1.77a29.334 29.334 0 0 0-5.559 17.245 29.5 29.5 0 0 0 4.086 14.987c.176.297.222.653.129.985L3.114 61.922l14.217-3.82c.318-.085.658-.045.948.113a29.996 29.996 0 0 0 14.332 3.641c16.45 0 29.835-13.305 29.835-29.658 0-16.354-13.384-29.659-29.835-29.659-6.268 0-12.266 1.911-17.347 5.526a1.282 1.282 0 0 1-1.781-.293 1.265 1.265 0 0 1 .295-1.771C19.294 2.075 25.807 0 32.61 0c8.651 0 16.785 3.35 22.903 9.43C61.63 15.512 65 23.597 65 32.197zM53.19 45.827a24.363 24.363 0 0 0 4.146-13.63c0-13.553-11.092-24.58-24.726-24.58-13.634 0-24.727 11.027-24.727 24.58a24.44 24.44 0 0 0 3.384 12.418l1.1 1.862c.175.297.22.652.127.985l-2.037 7.226 7.527-2.022c.318-.085.658-.045.948.113l1.803.985a24.853 24.853 0 0 0 11.875 3.014c4.906 0 9.646-1.425 13.71-4.121a1.281 1.281 0 0 1 1.77.35 1.264 1.264 0 0 1-.353 1.761 27.267 27.267 0 0 1-15.127 4.55c-4.583 0-9.114-1.151-13.104-3.329l-1.353-.738-9.199 2.471a1.284 1.284 0 0 1-1.24-.332 1.264 1.264 0 0 1-.322-1.236l2.496-8.858-.824-1.396A26.967 26.967 0 0 1 5.33 32.198c0-7.245 2.838-14.056 7.99-19.178C18.472 7.9 25.323 5.078 32.61 5.078s14.139 2.82 19.29 7.942c5.153 5.122 7.99 11.933 7.99 19.177 0 5.38-1.582 10.58-4.575 15.039a1.282 1.282 0 0 1-1.771.351 1.265 1.265 0 0 1-.354-1.76zM26.29 30.155a.246.246 0 0 0 .014.097c1.06 1.821 2.976 3.972 4.77 5.354 2.848 2.191 4.856 3.07 5.457 3.028.284-.297.953-1.186 1.288-1.632.544-.724.724-.959.905-1.116l.02-.022c1.339-1.444 2.827-1.165 3.84-.677 1.498.723 5.155 2.525 5.51 2.7.627.282 1.6 1.17 1.555 2.86-.033 1.207-.085 1.67-.106 1.817-.033.231-.258 1.563-1.334 2.916-1.014 1.274-3.007 2.815-6.738 2.923a9.635 9.635 0 0 1-.322.005c-3.322 0-6.89-1.45-9.333-2.688-4.906-2.486-8.223-5.29-11.832-9.997-3.26-4.253-4.727-8.006-4.362-11.156.794-6.853 5.394-7.593 5.59-7.621a.91.91 0 0 1 .03-.004c.102-.013.538-.05 1.864-.023 1.7.035 2.546 1.044 2.8 1.68.162.37 1.878 4.267 2.534 5.792.444 1.033.733 2.532-.41 3.808l-.085.098c-.5.583-1.215 1.408-1.655 1.858zm-2.203 1.357c-.483-.83-.572-2.164.37-3.127.287-.292.806-.876 1.544-1.736l.074-.086.047-.052c.099-.11.305-.34-.03-1.122-.673-1.563-2.473-5.651-2.537-5.795-.045-.05-.195-.13-.502-.137-.963-.02-1.368-.003-1.488.005-.34.076-2.873.798-3.406 5.395-.283 2.441 1.05 5.667 3.856 9.326 3.399 4.434 6.37 6.948 10.96 9.275 2.258 1.145 5.549 2.492 8.422 2.407 2.149-.062 3.742-.691 4.735-1.87.703-.836.864-1.687.879-1.773.003-.029 0-.013.006-.04.008-.07.05-.451.078-1.504.009-.305-.065-.458-.112-.505-.138-.067-3.976-1.96-5.515-2.702-.512-.247-.617-.134-.847.114a2.66 2.66 0 0 1-.172.175c-.103.122-.369.475-.585.762-.749.997-1.31 1.729-1.705 2.077-1.431 1.259-3.753.088-4.515-.297-1.614-.813-3.282-2.034-4.133-2.689-2.067-1.59-4.196-3.985-5.424-6.1zM9.666 11.182a1.264 1.264 0 0 1 .086-1.793 1.283 1.283 0 0 1 1.805.085 1.264 1.264 0 0 1-.086 1.793c-.245.221-.553.33-.86.33-.347 0-.692-.14-.944-.415zm42.191 38.355c.522.471.561 1.274.086 1.793a1.278 1.278 0 0 1-1.804.086 1.264 1.264 0 0 1-.086-1.793 1.282 1.282 0 0 1 1.804-.086z"/></g></g></svg>