<svg xmlns="http://www.w3.org/2000/svg" width="65" height="65" viewBox="0 0 65 65"><defs><linearGradient id="anlwa" x1="0" x2="65" y1="32" y2="32.96" gradientUnits="userSpaceOnUse"><stop offset="0" stop-color="#821dc9"/><stop offset="1" stop-color="#4600cd"/></linearGradient></defs><g><g><path fill="#821dc9" d="M21.931 49.993a1.257 1.257 0 0 1-.098.485 1.251 1.251 0 0 1-.467.57 1.246 1.246 0 0 1-.457.19 1.239 1.239 0 0 1-.952-.19 1.23 1.23 0 0 1-.35-.35 1.18 1.18 0 0 1-.117-.22 1.257 1.257 0 0 1 .467-1.541 1.268 1.268 0 0 1 1.974 1.056zm33.228 7.059c-.033.015-.067.03-.102.042l-19.55 7.005a10.113 10.113 0 0 1-4.206.9 11.387 11.387 0 0 1-4.14-.793c-3.967-1.785-6.17-3.056-7.627-3.897-1.895-1.094-2.574-1.485-4.637-1.665v.365a1.27 1.27 0 0 1-1.27 1.27h-3.54v1.097a1.27 1.27 0 0 1-1.27 1.27H1.27A1.27 1.27 0 0 1 0 61.377V45.36c0-.702.57-1.27 1.27-1.27H13.02c1.679-2.483 4.613-4.76 7.93-4.76 4.745 0 7.28 2.679 8.09 3.726l9.722 3.302.033.012c1.804.67 3.08 1.988 3.59 3.538l8.845-2.448c3.243-1.108 5.984-.097 7.152 2.64l.016.037c1.414 3.631-1.37 6.056-3.239 6.916zM7.55 46.629h-5.01v13.477h5.01zm4.809 0h-2.27v11.11h2.27zm43.681 4.449c-.804-1.854-2.611-1.685-3.988-1.214l-9.532 2.642a4.983 4.983 0 0 1-2.46 3.319 4.983 4.983 0 0 1-3.846.432l-11.394-3.613a1.27 1.27 0 0 1 .767-2.422l11.374 3.607c.63.174 1.292.095 1.864-.224.577-.321.994-.849 1.175-1.485.391-1.377-.46-2.758-2.072-3.363l-10.09-3.427a1.268 1.268 0 0 1-.673-.538c-.071-.113-1.9-2.921-6.214-2.921-2.516 0-4.85 2.02-6.053 3.994v10.232c2.827.234 3.828.812 5.905 2.01 1.495.863 3.54 2.043 7.371 3.768 1.014.395 3.601 1.144 6.323-.108a1.072 1.072 0 0 1 .108-.044l19.541-7.001c.563-.269 2.727-1.467 1.894-3.644zM45.608 16.915a1.25 1.25 0 0 1-.215.705 1.207 1.207 0 0 1-.35.35 1.305 1.305 0 0 1-.456.19 1.28 1.28 0 0 1-.496 0 1.264 1.264 0 0 1-.65-.347 1.244 1.244 0 0 1-.347-.65 1.252 1.252 0 0 1 .19-.953 1.22 1.22 0 0 1 .35-.35 1.234 1.234 0 0 1 .457-.19 1.265 1.265 0 0 1 1.42.758 1.244 1.244 0 0 1 .097.487zM65 5.53V21.55a1.27 1.27 0 0 1-1.27 1.27H51.98c-1.68 2.483-4.613 4.76-7.93 4.76-.36 0-.709-.016-1.044-.045L30.099 40.45c-.504.504-1.409.387-1.796 0L4.146 16.274c-.545-.545-.457-1.339 0-1.796L18.283.33a1.269 1.269 0 0 1 1.795 0l4.306 4.31 5.11-1.831c3.614-1.64 6.998-.64 8.29-.13l.055.023c3.967 1.785 6.17 3.056 7.627 3.897 1.895 1.094 2.574 1.485 4.637 1.666v-.366c0-.702.569-1.27 1.27-1.27h3.54V5.53c0-.701.568-1.27 1.27-1.27h7.547c.701 0 1.27.569 1.27 1.27zm-48.713.39c.86.532 1.855.817 2.894.817a5.475 5.475 0 0 0 2.893-.817l-2.893-2.896zm-5.738 9.455c0-1.04-.285-2.035-.816-2.896l-2.894 2.896 2.894 2.896c.532-.86.816-1.856.816-2.896zM32.094 34.86a5.524 5.524 0 0 0-5.786 0l2.893 2.895zm4.728-4.731a8.116 8.116 0 0 1-1.344-6.439l-4.287-1.456a7.213 7.213 0 0 1-1.883 3.278 7.211 7.211 0 0 1-5.117 2.118 7.212 7.212 0 0 1-5.117-2.118c-2.822-2.824-2.822-7.418 0-10.242a7.234 7.234 0 0 1 3.798-2 4.98 4.98 0 0 1 2.068-2.186 5.003 5.003 0 0 1 1.71-.584l-2.747-2.748a7.989 7.989 0 0 1-4.722 1.528 7.988 7.988 0 0 1-4.723-1.528l-2.896 2.9a8 8 0 0 1 1.526 4.725 8.001 8.001 0 0 1-1.526 4.726l12.917 12.927a8.062 8.062 0 0 1 9.444 0zM22.401 16.044a4.69 4.69 0 0 0-1.532 1.022 4.709 4.709 0 0 0 0 6.648 4.7 4.7 0 0 0 7.908-2.3l-2.539-.863-.033-.012c-2.166-.804-3.57-2.544-3.804-4.495zM40.08 26.868a9.87 9.87 0 0 1-2.24-1.213c.044.931.322 1.843.812 2.642zM50.103 10.81c-2.827-.233-3.828-.811-5.905-2.01-1.495-.862-3.54-2.043-7.372-3.768-1.014-.394-3.6-1.144-6.322.108a1.022 1.022 0 0 1-.051.022l-.013.005-.044.017-4.026 1.443 4.684 4.686.002.003.079.079 9.046 2.868a1.27 1.27 0 0 1-.767 2.423L28.04 13.079a2.454 2.454 0 0 0-1.864.223 2.458 2.458 0 0 0-1.175 1.484v.003c-.39 1.376.46 2.757 2.071 3.362l10.094 3.428c.31.105.552.318.7.582.016.024.126.169.152.207.486.617 1.961 2.177 4.703 2.575l.005.001c.412.06.854.093 1.324.093 2.516 0 4.85-2.02 6.053-3.994zm4.81-1.64h-2.27v11.108h2.27zm7.548-2.368h-5.01v13.476h5.01z"/><path fill="url(#anlwa)" d="M21.931 49.993a1.257 1.257 0 0 1-.098.485 1.251 1.251 0 0 1-.467.57 1.246 1.246 0 0 1-.457.19 1.239 1.239 0 0 1-.952-.19 1.23 1.23 0 0 1-.35-.35 1.18 1.18 0 0 1-.117-.22 1.257 1.257 0 0 1 .467-1.541 1.268 1.268 0 0 1 1.974 1.056zm33.228 7.059c-.033.015-.067.03-.102.042l-19.55 7.005a10.113 10.113 0 0 1-4.206.9 11.387 11.387 0 0 1-4.14-.793c-3.967-1.785-6.17-3.056-7.627-3.897-1.895-1.094-2.574-1.485-4.637-1.665v.365a1.27 1.27 0 0 1-1.27 1.27h-3.54v1.097a1.27 1.27 0 0 1-1.27 1.27H1.27A1.27 1.27 0 0 1 0 61.377V45.36c0-.702.57-1.27 1.27-1.27H13.02c1.679-2.483 4.613-4.76 7.93-4.76 4.745 0 7.28 2.679 8.09 3.726l9.722 3.302.033.012c1.804.67 3.08 1.988 3.59 3.538l8.845-2.448c3.243-1.108 5.984-.097 7.152 2.64l.016.037c1.414 3.631-1.37 6.056-3.239 6.916zM7.55 46.629h-5.01v13.477h5.01zm4.809 0h-2.27v11.11h2.27zm43.681 4.449c-.804-1.854-2.611-1.685-3.988-1.214l-9.532 2.642a4.983 4.983 0 0 1-2.46 3.319 4.983 4.983 0 0 1-3.846.432l-11.394-3.613a1.27 1.27 0 0 1 .767-2.422l11.374 3.607c.63.174 1.292.095 1.864-.224.577-.321.994-.849 1.175-1.485.391-1.377-.46-2.758-2.072-3.363l-10.09-3.427a1.268 1.268 0 0 1-.673-.538c-.071-.113-1.9-2.921-6.214-2.921-2.516 0-4.85 2.02-6.053 3.994v10.232c2.827.234 3.828.812 5.905 2.01 1.495.863 3.54 2.043 7.371 3.768 1.014.395 3.601 1.144 6.323-.108a1.072 1.072 0 0 1 .108-.044l19.541-7.001c.563-.269 2.727-1.467 1.894-3.644zM45.608 16.915a1.25 1.25 0 0 1-.215.705 1.207 1.207 0 0 1-.35.35 1.305 1.305 0 0 1-.456.19 1.28 1.28 0 0 1-.496 0 1.264 1.264 0 0 1-.65-.347 1.244 1.244 0 0 1-.347-.65 1.252 1.252 0 0 1 .19-.953 1.22 1.22 0 0 1 .35-.35 1.234 1.234 0 0 1 .457-.19 1.265 1.265 0 0 1 1.42.758 1.244 1.244 0 0 1 .097.487zM65 5.53V21.55a1.27 1.27 0 0 1-1.27 1.27H51.98c-1.68 2.483-4.613 4.76-7.93 4.76-.36 0-.709-.016-1.044-.045L30.099 40.45c-.504.504-1.409.387-1.796 0L4.146 16.274c-.545-.545-.457-1.339 0-1.796L18.283.33a1.269 1.269 0 0 1 1.795 0l4.306 4.31 5.11-1.831c3.614-1.64 6.998-.64 8.29-.13l.055.023c3.967 1.785 6.17 3.056 7.627 3.897 1.895 1.094 2.574 1.485 4.637 1.666v-.366c0-.702.569-1.27 1.27-1.27h3.54V5.53c0-.701.568-1.27 1.27-1.27h7.547c.701 0 1.27.569 1.27 1.27zm-48.713.39c.86.532 1.855.817 2.894.817a5.475 5.475 0 0 0 2.893-.817l-2.893-2.896zm-5.738 9.455c0-1.04-.285-2.035-.816-2.896l-2.894 2.896 2.894 2.896c.532-.86.816-1.856.816-2.896zM32.094 34.86a5.524 5.524 0 0 0-5.786 0l2.893 2.895zm4.728-4.731a8.116 8.116 0 0 1-1.344-6.439l-4.287-1.456a7.213 7.213 0 0 1-1.883 3.278 7.211 7.211 0 0 1-5.117 2.118 7.212 7.212 0 0 1-5.117-2.118c-2.822-2.824-2.822-7.418 0-10.242a7.234 7.234 0 0 1 3.798-2 4.98 4.98 0 0 1 2.068-2.186 5.003 5.003 0 0 1 1.71-.584l-2.747-2.748a7.989 7.989 0 0 1-4.722 1.528 7.988 7.988 0 0 1-4.723-1.528l-2.896 2.9a8 8 0 0 1 1.526 4.725 8.001 8.001 0 0 1-1.526 4.726l12.917 12.927a8.062 8.062 0 0 1 9.444 0zM22.401 16.044a4.69 4.69 0 0 0-1.532 1.022 4.709 4.709 0 0 0 0 6.648 4.7 4.7 0 0 0 7.908-2.3l-2.539-.863-.033-.012c-2.166-.804-3.57-2.544-3.804-4.495zM40.08 26.868a9.87 9.87 0 0 1-2.24-1.213c.044.931.322 1.843.812 2.642zM50.103 10.81c-2.827-.233-3.828-.811-5.905-2.01-1.495-.862-3.54-2.043-7.372-3.768-1.014-.394-3.6-1.144-6.322.108a1.022 1.022 0 0 1-.051.022l-.013.005-.044.017-4.026 1.443 4.684 4.686.002.003.079.079 9.046 2.868a1.27 1.27 0 0 1-.767 2.423L28.04 13.079a2.454 2.454 0 0 0-1.864.223 2.458 2.458 0 0 0-1.175 1.484v.003c-.39 1.376.46 2.757 2.071 3.362l10.094 3.428c.31.105.552.318.7.582.016.024.126.169.152.207.486.617 1.961 2.177 4.703 2.575l.005.001c.412.06.854.093 1.324.093 2.516 0 4.85-2.02 6.053-3.994zm4.81-1.64h-2.27v11.108h2.27zm7.548-2.368h-5.01v13.476h5.01z"/></g></g></svg>