<svg xmlns="http://www.w3.org/2000/svg" width="10" height="15" viewBox="0 0 10 15"><g><g><path fill="#fff" d="M9.894 13.088l-1.247-2.525a1.013 1.013 0 0 0-1.377-.434l-1.248.64a44.94 44.94 0 0 1-.151-.167c-.484-.534-1.146-1.265-1.718-2.423-.573-1.16-.755-2.14-.888-2.854l-.042-.219.837-.429.412-.211c.512-.263.725-.885.477-1.387L3.702.553A1.012 1.012 0 0 0 2.325.12l-.7.361.01.02c-.25.17-.482.384-.684.632a3.414 3.414 0 0 0-.448.724C-.415 3.85-.099 6.063 1.594 9.49c2.34 4.738 5.244 5.417 5.37 5.444a3.25 3.25 0 0 0 1.742-.12l.008.014.703-.352c.51-.263.724-.885.477-1.388z"/></g></g></svg>