<svg xmlns="http://www.w3.org/2000/svg" width="13" height="13" viewBox="0 0 13 13"><g><g><path fill="#fff" d="M13 9.382c0 1.996-1.594 3.614-3.561 3.614-.691 0-1.336-.2-1.883-.544a6.01 6.01 0 0 1-1.086.101C3.173 12.553.502 9.856.502 6.53c0-.323.025-.64.074-.95a3.634 3.634 0 0 1-.574-1.967c0-1.996 1.594-3.614 3.562-3.614a3.51 3.51 0 0 1 1.945.586c.312-.052.633-.079.96-.079 3.297 0 5.97 2.697 5.97 6.024 0 .277-.021.55-.057.817.39.58.618 1.282.618 2.036zM9.96 7.568c-.665-1.6-2.513-1.775-4.238-2.2-1.725-.426-.78-1.923.616-1.9 1.356.021 2.046 1.474 2.66 1.4.618-.076 1.142-1.013.173-1.85-.837-.726-1.896-1.125-3.523-.976-1.276.118-2.489.951-2.636 2.575-.148 1.626 1.75 2.451 3.252 2.677 1.053.157 2.49.674 1.627 1.674-.792.919-2.292.35-2.686.1-.395-.25-.838-1.15-1.578-1.1-.74.05-1.104 1.036-.196 1.9.813.775 1.7 1.2 3.597 1.1 1.898-.1 3.598-1.8 2.932-3.4z"/></g></g></svg>